<svg version="1.1" preserveAspectRatio="none" xmlns="http://www.w3.org/2000/svg" width="500" height="500" viewBox="0 0 500 500"><rect width="100%" height="100%" fill="#121212" fill-opacity="1"/><svg viewBox="116.2952 250.606 338.6505 204.1906" width="333" height="200.78360965065752" x="83.5px" y="149.6082px" xmlns="http://www.w3.org/2000/svg" xmlns:xlink="http://www.w3.org/1999/xlink" preserveAspectRatio="none"><defs></defs><style>.companyName {fill:#E3E3E3;fill-opacity:1;}.icon1 {fill:#F1EC40;fill-opacity:1;}.icon2 {fill:#555555;fill-opacity:1;}.icon3 {fill:#AAAAAA;fill-opacity:1;}.icon3-str {stroke:#AAAAAA;stroke-opacity:1;}.text {fill:#E3E3E3;fill-opacity:1;}</style><g opacity="1" transform="rotate(0 116.2952 434.7966)">
<svg width="338.6505" height="20" x="116.2952" y="434.7966" version="1.1" preserveAspectRatio="none" viewBox="2.92 -28 608.2 35.92">
  <g transform="matrix(1 0 0 1 0 0)" class="text"><path id="id-6izo4zJp29" d="M22.44-26.48L25.44-26.48L25.44-11.40Q25.44-6.12 22.30-2.90Q19.16 0.32 14.16 0.32L14.16 0.32Q9.20 0.32 6.06-2.90Q2.92-6.12 2.92-11.40L2.92-11.40L2.92-26.48L5.92-26.48L5.92-11.32Q5.92-7.04 8.48-4.64L8.48-4.64Q10.68-2.60 14.16-2.60L14.16-2.60Q17.64-2.60 19.88-4.64L19.88-4.64Q22.44-7 22.44-11.32L22.44-11.32L22.44-26.48Z M34.52-20L37.52-20L37.52-16.88Q38.60-18.32 40.16-19.32Q41.72-20.32 43.72-20.32Q45.72-20.32 47.16-19.76Q48.60-19.20 49.68-18.08L49.68-18.08Q52.16-15.64 52.16-11.64L52.16-11.64L52.16 0L49.16 0L49.16-11.56Q49.16-14.32 47.60-15.96Q46.04-17.60 43.56-17.60L43.56-17.60Q41.04-17.60 39.28-15.92L39.28-15.92Q37.52-14.20 37.52-11.52L37.52-11.52L37.52 0L34.52 0L34.52-20Z M64.16-28L64.16 0L61.16 0L61.16-28L64.16-28Z M82.28-2.40L82.28-2.40Q86.32-2.40 88.08-5.76L88.08-5.76L91.36-5.76Q90.32-3.04 88.06-1.36Q85.80 0.32 82.24 0.32L82.24 0.32Q77.72 0.32 74.88-2.68L74.88-2.68Q72.12-5.60 72.12-10L72.12-10Q72.12-14.44 74.76-17.32L74.76-17.32Q77.56-20.32 82.04-20.32L82.04-20.32Q86.52-20.32 89.32-17.32L89.32-17.32Q91.96-14.44 91.96-10L91.96-10L91.96-8.80L75.20-8.80Q75.52-6.04 77.40-4.24L77.40-4.24Q79.32-2.40 82.28-2.40ZM82.04-17.60L82.04-17.60Q79.28-17.60 77.40-15.88L77.40-15.88Q75.64-14.24 75.24-11.60L75.24-11.60L88.84-11.60Q88.44-14.24 86.68-15.88L86.68-15.88Q84.80-17.60 82.04-17.60Z M115.24 0L115.24-3.20Q112.84 0.32 108.08 0.32L108.08 0.32Q103.76 0.32 101.04-2.68L101.04-2.68Q98.40-5.64 98.40-10L98.40-10Q98.40-14.36 101.04-17.32L101.04-17.32Q103.76-20.32 108.28-20.32Q112.80-20.32 115.24-16.76L115.24-16.76L115.24-20L118.24-20L118.24 0L115.24 0ZM108.48-2.40L108.48-2.40Q111.72-2.40 113.60-4.64L113.60-4.64Q115.40-6.76 115.40-10L115.40-10Q115.40-13.24 113.60-15.36L113.60-15.36Q111.72-17.60 108.48-17.60L108.48-17.60Q105.28-17.60 103.28-15.36L103.28-15.36Q101.40-13.24 101.40-10L101.40-10Q101.40-6.76 103.28-4.64L103.28-4.64Q105.28-2.40 108.48-2.40Z M142.24-14.64L139.20-14.64Q138.80-17.76 134.18-17.76Q129.56-17.76 129.56-14.88L129.56-14.88Q129.56-13.68 130.54-13.06Q131.52-12.44 133-12.04Q134.48-11.64 136.22-11.30Q137.96-10.96 139.44-10.34Q140.92-9.72 141.90-8.64Q142.88-7.56 142.88-5.68L142.88-5.68Q142.88-2.76 140.68-1.22Q138.48 0.32 134.72 0.32L134.72 0.32Q130.72 0.32 128.36-1.68L128.36-1.68Q126.20-3.44 126.04-6.28L126.04-6.28L129.16-6.28Q129.44-3.52 132.28-2.56L132.28-2.56Q133.32-2.24 134.34-2.24Q135.36-2.24 136.24-2.36Q137.12-2.48 137.96-2.80L137.96-2.80Q139.88-3.56 139.88-5.40L139.88-5.40Q139.88-6.64 138.90-7.30Q137.92-7.96 136.44-8.38Q134.96-8.80 133.22-9.14Q131.48-9.48 130-10.08Q128.52-10.68 127.54-11.72Q126.56-12.76 126.56-14.60L126.56-14.60Q126.56-17.32 128.54-18.82Q130.52-20.32 134.40-20.32L134.40-20.32Q138.08-20.32 140.20-18.56L140.20-18.56Q141.96-17.08 142.24-14.64L142.24-14.64Z M150.72-28L153.72-28L153.72-16.88Q154.80-18.32 156.36-19.32Q157.92-20.32 159.92-20.32Q161.92-20.32 163.36-19.76Q164.80-19.20 165.88-18.08L165.88-18.08Q168.36-15.64 168.36-11.64L168.36-11.64L168.36 0L165.36 0L165.36-11.56Q165.36-14.32 163.80-15.96Q162.24-17.60 159.76-17.60L159.76-17.60Q157.24-17.60 155.48-15.92L155.48-15.92Q153.72-14.20 153.72-11.52L153.72-11.52L153.72 0L150.72 0L150.72-28Z M207.04-20L195.20 7.92L191.96 7.92L195.60-0.28L187.44-20L190.76-20L197.20-3.60L203.76-20L207.04-20Z M222.12-20.32L222.12-20.32Q226.60-20.32 229.40-17.32L229.40-17.32Q232.04-14.44 232.04-10L232.04-10Q232.04-5.56 229.40-2.68L229.40-2.68Q226.60 0.32 222.12 0.32L222.12 0.32Q217.64 0.32 214.84-2.68L214.84-2.68Q212.20-5.56 212.20-10L212.20-10Q212.20-14.44 214.84-17.32L214.84-17.32Q217.64-20.32 222.12-20.32ZM222.12-2.40L222.12-2.40Q225.36-2.40 227.24-4.64L227.24-4.64Q229.04-6.76 229.04-10L229.04-10Q229.04-13.24 227.24-15.36L227.24-15.36Q225.36-17.60 222.12-17.60L222.12-17.60Q218.88-17.60 217-15.36L217-15.36Q215.20-13.24 215.20-10L215.20-10Q215.20-6.76 217-4.64L217-4.64Q218.88-2.40 222.12-2.40Z M257.44 0L254.44 0L254.44-3.12Q253.36-1.68 251.80-0.68Q250.24 0.32 248.24 0.32Q246.24 0.32 244.80-0.24Q243.36-0.80 242.28-1.92L242.28-1.92Q239.80-4.36 239.80-8.36L239.80-8.36L239.80-20L242.80-20L242.80-8.44Q242.80-5.68 244.36-4.04Q245.92-2.40 248.40-2.40L248.40-2.40Q250.92-2.40 252.68-4.08L252.68-4.08Q254.44-5.80 254.44-8.48L254.44-8.48L254.44-20L257.44-20L257.44 0Z M277-20.32L277.20-20.32L277.20-17.32L276.84-17.32Q273.60-17.32 271.56-14.72L271.56-14.72Q269.64-12.24 269.64-8.80L269.64-8.80L269.64 0L266.64 0L266.64-20L269.64-20L269.64-15.08Q270.60-18.20 273.80-19.68L273.80-19.68Q275.12-20.32 277-20.32L277-20.32Z M306.20-2.40L306.20-2.40Q308.12-2.40 309.60-3.48Q311.08-4.56 311.76-6.28L311.76-6.28L315-6.28Q314.08-3.32 311.64-1.52L311.64-1.52Q309.08 0.32 305.56 0.32L305.56 0.32Q301.16 0.32 298.40-2.68L298.40-2.68Q295.72-5.60 295.72-10L295.72-10Q295.72-14.40 298.40-17.32L298.40-17.32Q301.16-20.32 305.56-20.32L305.56-20.32Q309.08-20.32 311.64-18.48L311.64-18.48Q314.08-16.68 315-13.72L315-13.72L311.76-13.72Q311.08-15.44 309.60-16.52Q308.12-17.60 306.20-17.60Q304.28-17.60 302.94-17Q301.60-16.40 300.68-15.36L300.68-15.36Q298.72-13.20 298.72-10L298.72-10Q298.72-6.80 300.68-4.64L300.68-4.64Q302.68-2.40 306.20-2.40Z M338.32 0L338.32-3.20Q335.92 0.32 331.16 0.32L331.16 0.32Q326.84 0.32 324.12-2.68L324.12-2.68Q321.48-5.64 321.48-10L321.48-10Q321.48-14.36 324.12-17.32L324.12-17.32Q326.84-20.32 331.36-20.32Q335.88-20.32 338.32-16.76L338.32-16.76L338.32-20L341.32-20L341.32 0L338.32 0ZM331.56-2.40L331.56-2.40Q334.80-2.40 336.68-4.64L336.68-4.64Q338.48-6.76 338.48-10L338.48-10Q338.48-13.24 336.68-15.36L336.68-15.36Q334.80-17.60 331.56-17.60L331.56-17.60Q328.36-17.60 326.36-15.36L326.36-15.36Q324.48-13.24 324.48-10L324.48-10Q324.48-6.76 326.36-4.64L326.36-4.64Q328.36-2.40 331.56-2.40Z M360.88-20.32L361.08-20.32L361.08-17.32L360.72-17.32Q357.48-17.32 355.44-14.72L355.44-14.72Q353.52-12.24 353.52-8.80L353.52-8.80L353.52 0L350.52 0L350.52-20L353.52-20L353.52-15.08Q354.48-18.20 357.68-19.68L357.68-19.68Q359-20.32 360.88-20.32L360.88-20.32Z M371.16-26.48L370.40-17.72L368.36-17.72L367.60-26.48L371.16-26.48Z M394.44-14.64L391.40-14.64Q391-17.76 386.38-17.76Q381.76-17.76 381.76-14.88L381.76-14.88Q381.76-13.68 382.74-13.06Q383.72-12.44 385.20-12.04Q386.68-11.64 388.42-11.30Q390.16-10.96 391.64-10.34Q393.12-9.72 394.10-8.64Q395.08-7.56 395.08-5.68L395.08-5.68Q395.08-2.76 392.88-1.22Q390.68 0.32 386.92 0.32L386.92 0.32Q382.92 0.32 380.56-1.68L380.56-1.68Q378.40-3.44 378.24-6.28L378.24-6.28L381.36-6.28Q381.64-3.52 384.48-2.56L384.48-2.56Q385.52-2.24 386.54-2.24Q387.56-2.24 388.44-2.36Q389.32-2.48 390.16-2.80L390.16-2.80Q392.08-3.56 392.08-5.40L392.08-5.40Q392.08-6.64 391.10-7.30Q390.12-7.96 388.64-8.38Q387.16-8.80 385.42-9.14Q383.68-9.48 382.20-10.08Q380.72-10.68 379.74-11.72Q378.76-12.76 378.76-14.60L378.76-14.60Q378.76-17.32 380.74-18.82Q382.72-20.32 386.60-20.32L386.60-20.32Q390.28-20.32 392.40-18.56L392.40-18.56Q394.16-17.08 394.44-14.64L394.44-14.64Z M418.44-20L418.44-16.80Q420.84-20.32 425.60-20.32L425.60-20.32Q429.92-20.32 432.60-17.32L432.60-17.32Q435.28-14.36 435.28-10L435.28-10Q435.28-5.64 432.60-2.68L432.60-2.68Q429.92 0.32 425.40 0.32Q420.88 0.32 418.44-3.24L418.44-3.24L418.44 7.92L415.44 7.92L415.44-20L418.44-20ZM425.20-17.60L425.20-17.60Q421.96-17.60 420.08-15.36L420.08-15.36Q418.28-13.24 418.28-10L418.28-10Q418.28-6.76 420.08-4.64L420.08-4.64Q421.96-2.40 425.20-2.40L425.20-2.40Q428.40-2.40 430.40-4.64L430.40-4.64Q432.28-6.76 432.28-10L432.28-10Q432.28-13.24 430.40-15.36L430.40-15.36Q428.40-17.60 425.20-17.60Z M451.88-20.32L451.88-20.32Q456.36-20.32 459.16-17.32L459.16-17.32Q461.80-14.44 461.80-10L461.80-10Q461.80-5.56 459.16-2.68L459.16-2.68Q456.36 0.32 451.88 0.32L451.88 0.32Q447.40 0.32 444.60-2.68L444.60-2.68Q441.96-5.56 441.96-10L441.96-10Q441.96-14.44 444.60-17.32L444.60-17.32Q447.40-20.32 451.88-20.32ZM451.88-2.40L451.88-2.40Q455.12-2.40 457-4.64L457-4.64Q458.80-6.76 458.80-10L458.80-10Q458.80-13.24 457-15.36L457-15.36Q455.12-17.60 451.88-17.60L451.88-17.60Q448.64-17.60 446.76-15.36L446.76-15.36Q444.96-13.24 444.96-10L444.96-10Q444.96-6.76 446.76-4.64L446.76-4.64Q448.64-2.40 451.88-2.40Z M474.56 0L471.56 0L471.56-17.36L467.48-17.36L467.48-20L471.56-20L471.56-27.16L474.56-27.16L474.56-20L479.16-20L479.16-17.36L474.56-17.36L474.56 0Z M494.96-2.40L494.96-2.40Q499.00-2.40 500.76-5.76L500.76-5.76L504.04-5.76Q503.00-3.04 500.74-1.36Q498.48 0.32 494.92 0.32L494.92 0.32Q490.40 0.32 487.56-2.68L487.56-2.68Q484.80-5.60 484.80-10L484.80-10Q484.80-14.44 487.44-17.32L487.44-17.32Q490.24-20.32 494.72-20.32L494.72-20.32Q499.20-20.32 502.00-17.32L502.00-17.32Q504.64-14.44 504.64-10L504.64-10L504.64-8.80L487.88-8.80Q488.20-6.04 490.08-4.24L490.08-4.24Q492.00-2.40 494.96-2.40ZM494.72-17.60L494.72-17.60Q491.96-17.60 490.08-15.88L490.08-15.88Q488.32-14.24 487.92-11.60L487.92-11.60L501.52-11.60Q501.12-14.24 499.36-15.88L499.36-15.88Q497.48-17.60 494.72-17.60Z M512.32-20L515.32-20L515.32-16.88Q516.40-18.32 517.96-19.32Q519.52-20.32 521.52-20.32Q523.52-20.32 524.96-19.76Q526.40-19.20 527.48-18.08L527.48-18.08Q529.96-15.64 529.96-11.64L529.96-11.64L529.96 0L526.96 0L526.96-11.56Q526.96-14.32 525.40-15.96Q523.84-17.60 521.36-17.60L521.36-17.60Q518.84-17.60 517.08-15.92L517.08-15.92Q515.32-14.20 515.32-11.52L515.32-11.52L515.32 0L512.32 0L512.32-20Z M543.64 0L540.64 0L540.64-17.36L536.56-17.36L536.56-20L540.64-20L540.64-27.16L543.64-27.16L543.64-20L548.24-20L548.24-17.36L543.64-17.36L543.64 0Z M555.52 0L555.52-20L558.52-20L558.52 0L555.52 0ZM555.40-27.28L558.64-27.28L558.64-23.36L555.40-23.36L555.40-27.28Z M583.32 0L583.32-3.20Q580.92 0.32 576.16 0.32L576.16 0.32Q571.84 0.32 569.12-2.68L569.12-2.68Q566.48-5.64 566.48-10L566.48-10Q566.48-14.36 569.12-17.32L569.12-17.32Q571.84-20.32 576.36-20.32Q580.88-20.32 583.32-16.76L583.32-16.76L583.32-20L586.32-20L586.32 0L583.32 0ZM576.56-2.40L576.56-2.40Q579.80-2.40 581.68-4.64L581.68-4.64Q583.48-6.76 583.48-10L583.48-10Q583.48-13.24 581.68-15.36L581.68-15.36Q579.80-17.60 576.56-17.60L576.56-17.60Q573.36-17.60 571.36-15.36L571.36-15.36Q569.48-13.24 569.48-10L569.48-10Q569.48-6.76 571.36-4.64L571.36-4.64Q573.36-2.40 576.56-2.40Z M598.52-28L598.52 0L595.52 0L595.52-28L598.52-28Z M607.24-4.08L611.12-4.08L611.12 0L607.24 0L607.24-4.08Z"/></g>
</svg>
</g><g opacity="1" transform="rotate(0 117.1542 374.7966)">
<svg width="336.9324" height="40" x="117.1542" y="374.7966" version="1.1" preserveAspectRatio="none" viewBox="2.5781 -28.0078 235.918 28.0078">
  <g transform="matrix(1 0 0 1 0 0)" class="companyName"><path id="id-D6z1nYkh8" d="M28.03-5.08L28.03 0L9.71 0Q9.00 0 8.19-0.17Q7.38-0.33 6.59-0.68Q5.80-1.04 5.08-1.59Q4.36-2.15 3.80-2.94Q3.24-3.73 2.91-4.78Q2.58-5.82 2.58-7.13L2.58-7.13L2.58-20.88Q2.58-21.58 2.74-22.39Q2.91-23.20 3.26-23.99Q3.61-24.79 4.18-25.51Q4.75-26.23 5.54-26.79Q6.33-27.34 7.36-27.68Q8.40-28.01 9.71-28.01L9.71-28.01L28.03-28.01L28.03-22.93L9.71-22.93Q8.71-22.93 8.18-22.40Q7.66-21.88 7.66-20.84L7.66-20.84L7.66-7.13Q7.66-6.15 8.19-5.62Q8.73-5.08 9.71-5.08L9.71-5.08L28.03-5.08Z M60.31-25.45L60.31 0L55.23 0L55.23-6.88L37.38-6.88L37.38 0L32.30 0L32.30-14.00Q32.30-17.07 33.36-19.65Q34.41-22.23 36.29-24.08Q38.16-25.94 40.72-26.97Q43.28-28.01 46.31-28.01L46.31-28.01L57.75-28.01Q58.28-28.01 58.75-27.81Q59.22-27.62 59.57-27.27Q59.92-26.91 60.12-26.45Q60.31-25.98 60.31-25.45L60.31-25.45ZM37.38-14.00L37.38-11.95L55.23-11.95L55.23-22.93L46.31-22.93Q46.07-22.93 45.32-22.86Q44.57-22.79 43.58-22.52Q42.60-22.25 41.50-21.68Q40.41-21.11 39.49-20.12Q38.57-19.12 37.98-17.63Q37.38-16.13 37.38-14.00L37.38-14.00Z M94.20-21.84L94.20-18.59Q94.20-16.86 93.77-15.49Q93.34-14.12 92.61-13.08Q91.88-12.03 90.92-11.29Q89.96-10.55 88.92-10.07Q87.87-9.59 86.81-9.38Q85.74-9.16 84.80-9.16L84.80-9.16L95.41 0L87.56 0L76.97-9.16L73.32-9.16L73.32-14.24L84.80-14.24Q85.76-14.32 86.55-14.64Q87.34-14.96 87.92-15.51Q88.50-16.05 88.81-16.83Q89.12-17.60 89.12-18.59L89.12-18.59L89.12-21.80Q89.12-22.23 89.01-22.45Q88.91-22.68 88.74-22.78Q88.57-22.89 88.39-22.91Q88.20-22.93 88.05-22.93L88.05-22.93L71.29-22.93L71.29 0L66.21 0L66.21-25.45Q66.21-25.98 66.41-26.45Q66.60-26.91 66.94-27.27Q67.29-27.62 67.75-27.81Q68.22-28.01 68.77-28.01L68.77-28.01L88.05-28.01Q89.75-28.01 90.92-27.39Q92.09-26.78 92.82-25.85Q93.55-24.92 93.88-23.85Q94.20-22.77 94.20-21.84L94.20-21.84Z M126.21-8.24L126.21-8.24Q126.21-6.74 125.83-5.54Q125.45-4.34 124.82-3.42Q124.20-2.50 123.36-1.86Q122.52-1.21 121.62-0.80Q120.72-0.39 119.79-0.20Q118.87 0 118.05 0L118.05 0L98.46 0L98.46-5.08L118.05-5.08Q119.51-5.08 120.32-5.94Q121.13-6.80 121.13-8.24L121.13-8.24Q121.13-8.95 120.92-9.53Q120.70-10.12 120.30-10.55Q119.90-10.98 119.33-11.21Q118.75-11.45 118.05-11.45L118.05-11.45L106.37-11.45Q105.14-11.45 103.71-11.88Q102.29-12.32 101.06-13.30Q99.84-14.28 99.03-15.86Q98.22-17.44 98.22-19.73L98.22-19.73Q98.22-22.01 99.03-23.58Q99.84-25.16 101.06-26.14Q102.29-27.13 103.71-27.57Q105.14-28.01 106.37-28.01L106.37-28.01L123.65-28.01L123.65-22.93L106.37-22.93Q104.92-22.93 104.11-22.05Q103.30-21.17 103.30-19.73L103.30-19.73Q103.30-18.26 104.11-17.41Q104.92-16.56 106.37-16.56L106.37-16.56L118.05-16.56L118.09-16.56Q118.91-16.54 119.82-16.34Q120.74-16.13 121.65-15.70Q122.56-15.27 123.38-14.62Q124.20-13.96 124.83-13.05Q125.47-12.13 125.84-10.94Q126.21-9.75 126.21-8.24Z M148.36-28.01L148.36-16.56L166.19-16.56L166.19-28.01L171.27-28.01L171.27 0L166.19 0L166.19-11.45L148.36-11.45L148.36 0L143.28 0L143.28-28.01L148.36-28.01Z M204.65-28.01L204.65-2.56Q204.65-2.01 204.45-1.54Q204.26-1.07 203.91-0.73Q203.55-0.39 203.09-0.20Q202.62 0 202.09 0L202.09 0L190.64 0Q189.02 0 187.36-0.35Q185.70-0.70 184.15-1.44Q182.60-2.17 181.23-3.30Q179.86-4.43 178.84-5.99Q177.81-7.54 177.23-9.54Q176.64-11.54 176.64-14.00L176.64-14.00L176.64-28.01L181.72-28.01L181.72-14.00Q181.72-11.86 182.31-10.37Q182.91-8.89 183.83-7.89Q184.75-6.89 185.84-6.33Q186.93-5.76 187.92-5.49Q188.91-5.21 189.66-5.15Q190.41-5.08 190.64-5.08L190.64-5.08L199.57-5.08L199.57-28.01L204.65-28.01Z M238.50-7.13L238.50-6.15Q238.50-5.21 238.17-4.14Q237.85-3.07 237.12-2.15Q236.39-1.23 235.21-0.62Q234.04 0 232.34 0L232.34 0L213.07 0Q212.52 0 212.05-0.20Q211.58-0.39 211.24-0.73Q210.90-1.07 210.70-1.54Q210.51-2.01 210.51-2.56L210.51-2.56L210.51-25.45Q210.51-25.98 210.70-26.45Q210.90-26.91 211.24-27.27Q211.58-27.62 212.05-27.81Q212.52-28.01 213.07-28.01L213.07-28.01L230.06-28.01Q231.00-28.01 232.07-27.68Q233.14-27.34 234.07-26.61Q235-25.88 235.62-24.71Q236.23-23.54 236.23-21.84L236.23-21.84L236.23-20.88Q236.23-19.53 235.78-17.98Q235.33-16.43 234.34-15.04L234.34-15.04Q235.20-14.51 235.95-13.77Q236.70-13.03 237.27-12.05Q237.83-11.07 238.16-9.84Q238.50-8.61 238.50-7.13L238.50-7.13ZM233.42-6.19L233.42-7.13Q233.42-8.13 233.11-8.92Q232.79-9.71 232.23-10.27Q231.66-10.84 230.86-11.14Q230.06-11.45 229.06-11.45L229.06-11.45L217.62-11.45L217.62-16.56L226.78-16.56Q227.77-16.56 228.57-16.87Q229.38-17.17 229.94-17.73Q230.51-18.30 230.81-19.09Q231.11-19.88 231.11-20.88L231.11-20.88L231.11-21.84Q231.11-22.93 230.06-22.93L230.06-22.93L215.59-22.93L215.59-5.08L232.34-5.08Q232.48-5.08 232.68-5.10Q232.87-5.12 233.03-5.21Q233.18-5.31 233.30-5.55Q233.42-5.78 233.42-6.19L233.42-6.19Z"/></g>
</svg>
</g><g opacity="1" transform="rotate(0 201.3873 250.606)">
<svg width="168.4662" height="94.1906" x="201.3873" y="250.606" version="1.1" preserveAspectRatio="none" viewBox="5.53000020980835 26.309995651245117 89.68000030517578 50.14070129394531">
  <g transform="matrix(1 0 0 1 0 0)" class="icon1"><title>Car profile</title><g data-name="Car profile"><path d="M53.35,29.54a2.69,2.69,0,0,0-1.62-.61c-.72,0-1.43,0-2.15,0a2.34,2.34,0,0,1-.85-.08A6.66,6.66,0,0,0,46,28.54l-6.44-.07a2.57,2.57,0,0,0-.64.08.62.62,0,0,0-.35.21,2.84,2.84,0,0,0-.38.76c-.27,1-.82,1.82-1.16,2.76s-.73,1.7-1.1,2.55A15,15,0,0,0,35.09,37a14,14,0,0,0-.57,1.61c-.08.6-.61,1-.82,1.49-.05.13-.17.24-.21.37a3.62,3.62,0,0,1-2.06,2,20.73,20.73,0,0,1-2.59,1c-.67.24-1.36.4-2,.64a2.94,2.94,0,0,1-.82.2,3.84,3.84,0,0,0-1.65.41,6.38,6.38,0,0,0-1.42.41,7.06,7.06,0,0,0-1.45.34,2.66,2.66,0,0,1-.84.13c-.43,0-.86.06-1.29.06a2.5,2.5,0,0,0-1.25.25c-.43-.21-.82.08-1.23.11a8.92,8.92,0,0,1-1.28,0,.46.46,0,0,1-.3-.27,1.28,1.28,0,0,1,.22-1.4l.3-.31a1.39,1.39,0,0,1,1.1-.55,2.82,2.82,0,0,0,1.46-.27,1.52,1.52,0,0,1,.62-.13c.43,0,.86,0,1.29-.05a7.28,7.28,0,0,0,1.87-.37c.53-.17,1.1-.19,1.64-.41a11.24,11.24,0,0,0,1.64-.43c.74,0,1.33-.48,2-.57A2.08,2.08,0,0,1,28.68,41a3,3,0,0,0,1.56-.61c1.23-.84,1.26-.8,1.77-1.47A3.82,3.82,0,0,0,32.89,37a6.86,6.86,0,0,0,.48-1.4c.16-.39.37-.77.56-1.15.46-1,.81-2,1.28-2.93a29.67,29.67,0,0,0,1.18-2.74,7.64,7.64,0,0,1,1.07-2.09.87.87,0,0,1,.72-.38l7.3,0c.93,0,1.86,0,2.79.06a1.89,1.89,0,0,1,.64,0c1.38.56,2.83.29,4.24.39a5.55,5.55,0,0,1,2.31.28,1.1,1.1,0,0,0,.42.06l1.93.11a4.62,4.62,0,0,0,1.87.38c.5.06.91.41,1.44.39a3.66,3.66,0,0,1,1.28.1,8.84,8.84,0,0,0,2.09.4,1.21,1.21,0,0,1,.4.13c1.35.64,2.82,1,4.21,1.51a5.34,5.34,0,0,1,1.72.85,1.92,1.92,0,0,0,.35.25,7.35,7.35,0,0,0,2,.8A5.22,5.22,0,0,0,75,33.14a8.29,8.29,0,0,1,3.47,2,12.18,12.18,0,0,1,1.73,1.24c.61.39,1.09,1,1.7,1.29a10.09,10.09,0,0,1,1.82,1.47c.65,1.17,1.79,2.05,2,3.47.28.58.53,1.17.84,1.73a11.94,11.94,0,0,1,1.12,2.76,15.78,15.78,0,0,1,.56,1.83,10.08,10.08,0,0,1,0,2.14c0,.21,0,.43,0,.67s-.19.35-.3.53c-1.19,1.94-.8,1.75-3,2.82a4.35,4.35,0,0,1-2.06.48,4.86,4.86,0,0,0-1.69.24A6.68,6.68,0,0,1,79,56H74.29a.51.51,0,0,0-.58.48,4.72,4.72,0,0,1-.25,1.9,11.36,11.36,0,0,1-1,1.36c-.09.11-.13.27-.23.35a9.7,9.7,0,0,1-1.68,1.32c-.64.33-1.15.82-1.79,1.14a3.13,3.13,0,0,1-1.65.35A2.59,2.59,0,0,1,65,61.93a1.88,1.88,0,0,0-.5-.38,3.9,3.9,0,0,1-1.64-2.41,7.34,7.34,0,0,1-.44-2.08,2,2,0,0,0-.08-.42.84.84,0,0,0-.79-.6,2.5,2.5,0,0,0-.63.09,3.42,3.42,0,0,1-1.26.2l-7.72.09a3.61,3.61,0,0,0-1.67.27,2,2,0,0,1-.84.08l-11.59,0-3.43,0c-.48,0-.92.42-1.42.14a2.63,2.63,0,0,1-1.46.22,1.22,1.22,0,0,0-1.21.73,4,4,0,0,1-.59.89,24.86,24.86,0,0,1-4.86,4.51,9.05,9.05,0,0,1-1.12.62,1.51,1.51,0,0,1-.61.18c-.72,0-1.43,0-2.15,0-1.44-.4-2.93-.71-3.68-2.26a9.53,9.53,0,0,0-.64-.86,3.17,3.17,0,0,1-.61-1.8c0-.5,0-1,0-1.5a.46.46,0,0,0-.44-.38H13.67a1.59,1.59,0,0,0-.64,0,5.91,5.91,0,0,1-2.32.3A6.8,6.8,0,0,0,8,58c-.5,0-1,0-1.5,0a.77.77,0,0,1-.37-.2,2.14,2.14,0,0,1-.6-1.3,2.6,2.6,0,0,0,.3-1.44.83.83,0,0,1,.2-.37.93.93,0,0,1,.31-.29c.68-.31,1.26-.69,1.2-1.57.19-.38.39-.76.56-1.15a6.1,6.1,0,0,1,.47-1.18c.51-.7.81-1.52,1.33-2.19a7.37,7.37,0,0,0,1.06-2.08,10.05,10.05,0,0,1,.62-1.36,2,2,0,0,1,.91-.89l.48.44a1.61,1.61,0,0,1,.36,2.13,19.1,19.1,0,0,1-.69,1.78c-.36.53-.68,1.09-1,1.64a38.36,38.36,0,0,0-1.85,3.61c-.17.38,0,.62.48.72l.63.12c.13,0,.29.08.4,0a7.1,7.1,0,0,1,2.55-.19c.26,0,.54.21.8.18s.55-.24.82-.08a1.21,1.21,0,0,0,1.39-.08,1.78,1.78,0,0,0,.58-.6c.34-.55.31-1.26.78-1.75l1.34-1.38c.35-.36.68-.73,1-1.07a9.21,9.21,0,0,1,4-2,1.82,1.82,0,0,1,1.06,0,10.61,10.61,0,0,1,1.82.61,4.17,4.17,0,0,0,1.17.52c.5.11.91.41,1.39.55.29.49.57,1,.87,1.46a2.29,2.29,0,0,1,.29,1,5.11,5.11,0,0,0,.22,1.47,5.55,5.55,0,0,1,.2,1.25c0,.13.34.28.53.28a1.63,1.63,0,0,0,.82-.22.8.8,0,0,1,.62,0c.2.05.38.19.6,0A1.54,1.54,0,0,1,35,54.3c2.15,0,4.29,0,6.44,0a2.9,2.9,0,0,1,1.47.24c.29.16.55,0,.8-.12a.24.24,0,0,1,.19,0c.5.33.94-.14,1.44-.1.85.08,1.71,0,2.57,0,1.72,0,3.43,0,5.15-.09a3.18,3.18,0,0,0,1.65-.29c.09-.06.27,0,.41,0s.28.14.39.1a10.52,10.52,0,0,1,3-.22c1,0,2,0,3,0a.58.58,0,0,0,.64-.43A3.28,3.28,0,0,0,62.45,52a2.9,2.9,0,0,1,.59-1.8,18.51,18.51,0,0,1,1.11-1.57,1.78,1.78,0,0,1,1.43-.83c.45,0,.79-.32,1.22-.35s1,0,1.5,0a2.1,2.1,0,0,1,1.22.29c.14.08.37-.15.57,0,.16.57.78.56,1.12.91a6,6,0,0,1,1.57,2.51,8.8,8.8,0,0,0,.48,1.19,1.14,1.14,0,0,0,1.17.74c2,0,4,0,6-.05a2.35,2.35,0,0,0,1-.23,1.82,1.82,0,0,1,.62-.11,8.21,8.21,0,0,1,1.28-.06,1.92,1.92,0,0,0,1.75-1,4.6,4.6,0,0,0,.29-.57,1.4,1.4,0,0,0,.07-1.24c-.14-.33-.28-.65-.42-1a1.45,1.45,0,0,1-.2-.6,3.57,3.57,0,0,0-.67-2,14.23,14.23,0,0,1-.86-1.94c-.2-.6-.55-1.16-.81-1.75a5.19,5.19,0,0,0-2.09-2.37,16.3,16.3,0,0,0-2.08-1.5,9.68,9.68,0,0,0-2-1.56,7.2,7.2,0,0,0-1-.79,45.35,45.35,0,0,0-4.7-2.49.32.32,0,0,0-.39.11c-.48.71-.94,1.43-1.43,2.13-1.11,1.57-2.09,3.23-3.35,4.69a.29.29,0,0,1-.18.1.24.24,0,0,1-.23-.26,2.33,2.33,0,0,1,.06-.84,6.15,6.15,0,0,1,.67-1.33,34.15,34.15,0,0,1,2-3,13.64,13.64,0,0,0,1.25-2,1.27,1.27,0,0,0,.08-.38c-.7-.35-1.35-.77-2.08-1.07s-1.62-.52-2.42-.82a4.13,4.13,0,0,0-1.64-.4,2.94,2.94,0,0,1-1.66-.34,1.57,1.57,0,0,0-.63-.08,2.65,2.65,0,0,1-.85-.07,5.78,5.78,0,0,0-2.28-.46,5,5,0,0,0-2.31-.33.88.88,0,0,0-.9.76c0,.8-.42,1.51-.5,2.29a16.94,16.94,0,0,0-.48,2.08,5.94,5.94,0,0,0-.42,2.3c0,.57-.07,1.15,0,1.72s-.34.94-.32,1.45a4,4,0,0,1,0,.43.53.53,0,0,0,.45.61l.64.05a3,3,0,0,1,.84.09,4.08,4.08,0,0,0,1.48.2l2.58.06a11.58,11.58,0,0,1,2.14.12c.7.16,1.4.25,2.1.38a5.23,5.23,0,0,1,1.16.5s.07.12.06.14a.3.3,0,0,1-.18.12c-.43,0-.85.08-1.28.07-1,0-2-.05-3-.07a3.28,3.28,0,0,1-1-.18,2.7,2.7,0,0,0-.84-.13c-1.57,0-3.15,0-4.72-.08a.93.93,0,0,0-1,.64.4.4,0,0,1-.55.1,6.17,6.17,0,0,0-.46-.44,1.3,1.3,0,0,0-.56-.28,11,11,0,0,0-1.29,0l-10.52.06c-.36,0-.72,0-1.07,0a2.46,2.46,0,0,0-.83.14c-.35.16-.7-.18-1,.07a7.7,7.7,0,0,1-2.13.09c-.1,0-.21-.17-.27-.29a.41.41,0,0,1,.21-.53,5,5,0,0,1,1.66-.37c1.36,0,2.72,0,4.08-.08a6.8,6.8,0,0,0,2.54-.27.29.29,0,0,1,.21,0c.63.29,1.25-.2,1.88,0l5.8,0c.36,0,.71,0,1.07,0,.18,0,.46-.22.47-.36,0-.43.07-.86.1-1.28a9.18,9.18,0,0,1,.13-1.92,13.78,13.78,0,0,0,.33-1.89c.08-.57.32-1.09.44-1.65a13.94,13.94,0,0,1,.56-2.27C53.05,30.9,52.93,30.15,53.35,29.54ZM28.81,54.12c0-.25-.2-.51,0-.79a.27.27,0,0,0,0-.2c-.23-.67-.47-1.34-.73-2a.53.53,0,0,0-.51-.32,1,1,0,0,1-.77-.3,3.53,3.53,0,0,0-1-.8,1,1,0,0,0-.83-.05,9.47,9.47,0,0,0-3,2,10.5,10.5,0,0,0-2.43,3.47,8.66,8.66,0,0,0-1,2.8,1.53,1.53,0,0,1-.16.4,1.47,1.47,0,0,0,.07,1.24c.13.25.14.56.27.81a1.61,1.61,0,0,0,.53.65,14.07,14.07,0,0,0,1.92.94,1.45,1.45,0,0,0,1.24-.12c.62-.35,1.22-.73,1.83-1.1a3,3,0,0,0,.51-.38,21.43,21.43,0,0,0,2-2,8.05,8.05,0,0,0,1-1.89,7.83,7.83,0,0,1,.62-1.11.89.89,0,0,1,.34-.25c.17-.09.21-.19.12-.35A.62.62,0,0,1,28.81,54.12Zm42.32,2.07a7,7,0,0,0-.48-3.11,11.06,11.06,0,0,0-1-2.1,3.65,3.65,0,0,0-.74-.77.86.86,0,0,0-.37-.2,3.41,3.41,0,0,0-1.7,0,6.24,6.24,0,0,0-1.31.67.69.69,0,0,0-.26.33c-.13.33-.19.69-.35,1a1.05,1.05,0,0,0,0,1c.07.14,0,.25,0,.4a5.34,5.34,0,0,0-.08,2.32,3.36,3.36,0,0,1,.32,1.45,3.71,3.71,0,0,0,1.2,2.43l.48.43a1.49,1.49,0,0,0,1.61.08c.47-.32,1-.62,1.4-1a8.57,8.57,0,0,0,1-1.07,1.12,1.12,0,0,0,.23-.58C71.1,57,71.11,56.5,71.13,56.19Z"></path><path d="M95.21,76.24c0,.05,0,.12-.05.15a.27.27,0,0,1-.19.06c-.34-.08-.67-.21-1-.27s-.57,0-.85-.07a2,2,0,0,1-.62-.15,2.47,2.47,0,0,0-1-.24,4.38,4.38,0,0,1-1.88-.36,1.43,1.43,0,0,0-.63-.1c-.94,0-1.78-.5-2.72-.52a2.87,2.87,0,0,0-1.44-.35,3.36,3.36,0,0,1-1.67-.32,1.52,1.52,0,0,0-.63-.11A3.36,3.36,0,0,1,81,73.68a1.07,1.07,0,0,0-.41-.1,11.09,11.09,0,0,1-2.12-.19,14,14,0,0,0-2.11-.31,2.43,2.43,0,0,1-.62-.14,2.53,2.53,0,0,0-1-.21c-.5,0-1,0-1.5-.06a4.28,4.28,0,0,1-1.68-.29,2.22,2.22,0,0,0-.84-.08l-2.79-.11A3.87,3.87,0,0,1,66.45,72a2.37,2.37,0,0,0-.84-.1l-3.43-.1-1.07,0c-.34,0-.66-.31-1-.1a7.79,7.79,0,0,0-1.46-.19c-.42,0-.86,0-1.29,0l-9.23.05c-.5,0-1,0-1.49.07-.37.29-.8-.06-1.22.12a3.6,3.6,0,0,1-1.27.12l-4.72.09a3.65,3.65,0,0,0-1.26.21,3.32,3.32,0,0,1-1.05.12l-4.94.12a3.4,3.4,0,0,0-1.27.15c-.3.12-.65-.16-1,.07a1.8,1.8,0,0,1-.83.13c-.86,0-1.72.07-2.57.09a4,4,0,0,0-1.26.19,4,4,0,0,1-1.05.14c-.71,0-1.43.07-2.14.1a1.86,1.86,0,0,0-.64,0,7,7,0,0,1-3,.32c-.05,0-.16-.09-.16-.13s0-.28.08-.35a1.16,1.16,0,0,1,.53-.33,9.08,9.08,0,0,0,1.66-.38A6.11,6.11,0,0,1,22,72.21a1.86,1.86,0,0,0,.62-.13,3.52,3.52,0,0,1,1.47-.25l1.5-.06a1.92,1.92,0,0,0,.64,0,10,10,0,0,1,3.18-.35,10.44,10.44,0,0,1,1.29,0c.36,0,.67-.3,1-.18.51.17,1-.2,1.46-.16a12.59,12.59,0,0,0,1.5,0c.5,0,1,0,1.5,0a7.55,7.55,0,0,0,2.33-.26,4,4,0,0,1,1.27-.1l5.36-.08a4,4,0,0,0,1.47-.24,1.48,1.48,0,0,1,1,0,.65.65,0,0,0,.4,0,3,3,0,0,1,1.05-.15l6.87,0a3,3,0,0,1,1.27.17c.1,0,.26,0,.39-.06a2.88,2.88,0,0,1,1.68.06c.36.14.68-.24,1-.09a4.13,4.13,0,0,0,1.68.25l3.86.08a3.65,3.65,0,0,1,1.26.2,2.75,2.75,0,0,0,.84.11l3.22.14a5.44,5.44,0,0,1,1.68.25,5.78,5.78,0,0,0,1.49.14,4,4,0,0,1,1.88.32.46.46,0,0,0,.2.05c.5,0,1,.07,1.5.07s.92.34,1.44.36a5.89,5.89,0,0,1,2.1.35,4.29,4.29,0,0,0,1.27.13,3.25,3.25,0,0,1,1,.23,2.36,2.36,0,0,0,.83.19,27.41,27.41,0,0,1,2.92.61c.45.27,1,.19,1.45.34s.79.29,1.21.38a33.57,33.57,0,0,1,4.66,1.51C95,76,95.12,76.13,95.21,76.24Z"></path><path d="M87,67.87c-.79,0-1.58-.06-2.36,0s-1.24-.34-1.88-.36-1.28-.08-1.93-.12A6.93,6.93,0,0,0,78.12,67a11.59,11.59,0,0,1-3.18-.33,5,5,0,0,0-1.49-.12c-.86,0-1.72,0-2.58,0a4.5,4.5,0,0,1-1.69-.22,2.26,2.26,0,0,0-.84-.08c-3.29,0-6.58,0-9.88,0-1.43,0-2.86,0-4.29.05a7.7,7.7,0,0,0-2.76.25,2.66,2.66,0,0,1-.85,0l-4.29.1a3.7,3.7,0,0,0-1.48.21A2.31,2.31,0,0,1,44,67l-3.43.11a4.28,4.28,0,0,0-1.9.26l-2.57.16a5,5,0,0,0-1.68.25,3.55,3.55,0,0,1-1.06.11,8.89,8.89,0,0,0-3,.38,1.3,1.3,0,0,1-.43,0,14.56,14.56,0,0,0-2.14.15,10.73,10.73,0,0,1-2.1.35c-.5,0-.91.37-1.44.35a4.34,4.34,0,0,0-1.49.13,13.86,13.86,0,0,1-3.17.44c-1.05.52-2.27.2-3.34.68a2.72,2.72,0,0,1-.85.1,7.62,7.62,0,0,0-2.31.37c-.45.18-1,.06-1.47.22a6.78,6.78,0,0,1-1.68.27.9.9,0,0,1-1-.67A7.44,7.44,0,0,1,11.38,70a2.61,2.61,0,0,0,.83-.17,3,3,0,0,1,.83-.2,8.58,8.58,0,0,0,2.1-.34,6.71,6.71,0,0,1,1.7-.16c.51,0,.91-.4,1.44-.38a3.3,3.3,0,0,0,1.28-.1,8.93,8.93,0,0,1,2.53-.39A8.9,8.9,0,0,1,25,67.84a9.53,9.53,0,0,1,1.45-.36A4.87,4.87,0,0,0,28,67.4a16.56,16.56,0,0,1,3.6-.45,9.17,9.17,0,0,1,3-.38,1.56,1.56,0,0,0,.43,0,12.34,12.34,0,0,1,3.6-.39,6.44,6.44,0,0,0,1.9-.26,3.37,3.37,0,0,1,1.06-.09l3.43-.11a4.27,4.27,0,0,0,1.47-.2,3.11,3.11,0,0,1,1.06-.11l8.37-.12c1.5,0,3,0,4.51,0a4.59,4.59,0,0,0,1.9-.18,10.72,10.72,0,0,0,3.19.19c2.22.07,4.44.09,6.65.13a3.37,3.37,0,0,1,1.26.2,2.65,2.65,0,0,0,.84.13c.64,0,1.29,0,1.93.08a5.93,5.93,0,0,1,1.68.25,5.65,5.65,0,0,0,1.48.16,3.5,3.5,0,0,1,1.46.27,1.72,1.72,0,0,0,.62.12,5.45,5.45,0,0,1,1.89.28c.58.27,1.3.06,1.84.51.56.07,1.13.13,1.69.21.13,0,.19.16.18.33Z"></path></g></g>
</svg>
</g></svg></svg>