<svg version="1.1" preserveAspectRatio="none" xmlns="http://www.w3.org/2000/svg" width="500" height="500" viewBox="0 0 500 500"><rect width="100%" height="100%" fill="#070707" fill-opacity="1"/><svg viewBox="137.1452 607.8746 474.1513 228.4384" width="333" height="160.43399480292473" x="83.5px" y="169.783px" xmlns="http://www.w3.org/2000/svg" xmlns:xlink="http://www.w3.org/1999/xlink" preserveAspectRatio="none"><defs></defs><style>.companyName {fill:#F7DC5F;fill-opacity:1;}.icon1 {fill:#F7DC5F;fill-opacity:1;}.icon2 {fill:#8C7848;fill-opacity:1;}.icon3 {fill:#534538;fill-opacity:1;}.icon3-str {stroke:#534538;stroke-opacity:1;}.text {fill:#F7DC5F;fill-opacity:1;}</style><g opacity="1" transform="rotate(0 137.1452 808.313)">
<svg width="474.1513" height="28" x="137.1452" y="808.313" version="1.1" preserveAspectRatio="none" viewBox="2.92 -28 608.2 35.92">
  <g transform="matrix(1 0 0 1 0 0)" class="text"><path id="id-6izo4zJp29" d="M22.44-26.48L25.44-26.48L25.44-11.40Q25.44-6.12 22.30-2.90Q19.16 0.32 14.16 0.32L14.16 0.32Q9.20 0.32 6.06-2.90Q2.92-6.12 2.92-11.40L2.92-11.40L2.92-26.48L5.92-26.48L5.92-11.32Q5.92-7.04 8.48-4.64L8.48-4.64Q10.68-2.60 14.16-2.60L14.16-2.60Q17.64-2.60 19.88-4.64L19.88-4.64Q22.44-7 22.44-11.32L22.44-11.32L22.44-26.48Z M34.52-20L37.52-20L37.52-16.88Q38.60-18.32 40.16-19.32Q41.72-20.32 43.72-20.32Q45.72-20.32 47.16-19.76Q48.60-19.20 49.68-18.08L49.68-18.08Q52.16-15.64 52.16-11.64L52.16-11.64L52.16 0L49.16 0L49.16-11.56Q49.16-14.32 47.60-15.96Q46.04-17.60 43.56-17.60L43.56-17.60Q41.04-17.60 39.28-15.92L39.28-15.92Q37.52-14.20 37.52-11.52L37.52-11.52L37.52 0L34.52 0L34.52-20Z M64.16-28L64.16 0L61.16 0L61.16-28L64.16-28Z M82.28-2.40L82.28-2.40Q86.32-2.40 88.08-5.76L88.08-5.76L91.36-5.76Q90.32-3.04 88.06-1.36Q85.80 0.32 82.24 0.32L82.24 0.32Q77.72 0.32 74.88-2.68L74.88-2.68Q72.12-5.60 72.12-10L72.12-10Q72.12-14.44 74.76-17.32L74.76-17.32Q77.56-20.32 82.04-20.32L82.04-20.32Q86.52-20.32 89.32-17.32L89.32-17.32Q91.96-14.44 91.96-10L91.96-10L91.96-8.80L75.20-8.80Q75.52-6.04 77.40-4.24L77.40-4.24Q79.32-2.40 82.28-2.40ZM82.04-17.60L82.04-17.60Q79.28-17.60 77.40-15.88L77.40-15.88Q75.64-14.24 75.24-11.60L75.24-11.60L88.84-11.60Q88.44-14.24 86.68-15.88L86.68-15.88Q84.80-17.60 82.04-17.60Z M115.24 0L115.24-3.20Q112.84 0.32 108.08 0.32L108.08 0.32Q103.76 0.32 101.04-2.68L101.04-2.68Q98.40-5.64 98.40-10L98.40-10Q98.40-14.36 101.04-17.32L101.04-17.32Q103.76-20.32 108.28-20.32Q112.80-20.32 115.24-16.76L115.24-16.76L115.24-20L118.24-20L118.24 0L115.24 0ZM108.48-2.40L108.48-2.40Q111.72-2.40 113.60-4.64L113.60-4.64Q115.40-6.76 115.40-10L115.40-10Q115.40-13.24 113.60-15.36L113.60-15.36Q111.72-17.60 108.48-17.60L108.48-17.60Q105.28-17.60 103.28-15.36L103.28-15.36Q101.40-13.24 101.40-10L101.40-10Q101.40-6.76 103.28-4.64L103.28-4.64Q105.28-2.40 108.48-2.40Z M142.24-14.64L139.20-14.64Q138.80-17.76 134.18-17.76Q129.56-17.76 129.56-14.88L129.56-14.88Q129.56-13.68 130.54-13.06Q131.52-12.44 133-12.04Q134.48-11.64 136.22-11.30Q137.96-10.96 139.44-10.34Q140.92-9.72 141.90-8.64Q142.88-7.56 142.88-5.68L142.88-5.68Q142.88-2.76 140.68-1.22Q138.48 0.32 134.72 0.32L134.72 0.32Q130.72 0.32 128.36-1.68L128.36-1.68Q126.20-3.44 126.04-6.28L126.04-6.28L129.16-6.28Q129.44-3.52 132.28-2.56L132.28-2.56Q133.32-2.24 134.34-2.24Q135.36-2.24 136.24-2.36Q137.12-2.48 137.96-2.80L137.96-2.80Q139.88-3.56 139.88-5.40L139.88-5.40Q139.88-6.64 138.90-7.30Q137.92-7.96 136.44-8.38Q134.96-8.80 133.22-9.14Q131.48-9.48 130-10.08Q128.52-10.68 127.54-11.72Q126.56-12.76 126.56-14.60L126.56-14.60Q126.56-17.32 128.54-18.82Q130.52-20.32 134.40-20.32L134.40-20.32Q138.08-20.32 140.20-18.56L140.20-18.56Q141.96-17.08 142.24-14.64L142.24-14.64Z M150.72-28L153.72-28L153.72-16.88Q154.80-18.32 156.36-19.32Q157.92-20.32 159.92-20.32Q161.92-20.32 163.36-19.76Q164.80-19.20 165.88-18.08L165.88-18.08Q168.36-15.64 168.36-11.64L168.36-11.64L168.36 0L165.36 0L165.36-11.56Q165.36-14.32 163.80-15.96Q162.24-17.60 159.76-17.60L159.76-17.60Q157.24-17.60 155.48-15.92L155.48-15.92Q153.72-14.20 153.72-11.52L153.72-11.52L153.72 0L150.72 0L150.72-28Z M207.04-20L195.20 7.92L191.96 7.92L195.60-0.28L187.44-20L190.76-20L197.20-3.60L203.76-20L207.04-20Z M222.12-20.32L222.12-20.32Q226.60-20.32 229.40-17.32L229.40-17.32Q232.04-14.44 232.04-10L232.04-10Q232.04-5.56 229.40-2.68L229.40-2.68Q226.60 0.32 222.12 0.32L222.12 0.32Q217.64 0.32 214.84-2.68L214.84-2.68Q212.20-5.56 212.20-10L212.20-10Q212.20-14.44 214.84-17.32L214.84-17.32Q217.64-20.32 222.12-20.32ZM222.12-2.40L222.12-2.40Q225.36-2.40 227.24-4.64L227.24-4.64Q229.04-6.76 229.04-10L229.04-10Q229.04-13.24 227.24-15.36L227.24-15.36Q225.36-17.60 222.12-17.60L222.12-17.60Q218.88-17.60 217-15.36L217-15.36Q215.20-13.24 215.20-10L215.20-10Q215.20-6.76 217-4.64L217-4.64Q218.88-2.40 222.12-2.40Z M257.44 0L254.44 0L254.44-3.12Q253.36-1.68 251.80-0.68Q250.24 0.32 248.24 0.32Q246.24 0.32 244.80-0.24Q243.36-0.80 242.28-1.92L242.28-1.92Q239.80-4.36 239.80-8.36L239.80-8.36L239.80-20L242.80-20L242.80-8.44Q242.80-5.68 244.36-4.04Q245.92-2.40 248.40-2.40L248.40-2.40Q250.92-2.40 252.68-4.08L252.68-4.08Q254.44-5.80 254.44-8.48L254.44-8.48L254.44-20L257.44-20L257.44 0Z M277-20.32L277.20-20.32L277.20-17.32L276.84-17.32Q273.60-17.32 271.56-14.72L271.56-14.72Q269.64-12.24 269.64-8.80L269.64-8.80L269.64 0L266.64 0L266.64-20L269.64-20L269.64-15.08Q270.60-18.20 273.80-19.68L273.80-19.68Q275.12-20.32 277-20.32L277-20.32Z M306.20-2.40L306.20-2.40Q308.12-2.40 309.60-3.48Q311.08-4.56 311.76-6.28L311.76-6.28L315-6.28Q314.08-3.32 311.64-1.52L311.64-1.52Q309.08 0.32 305.56 0.32L305.56 0.32Q301.16 0.32 298.40-2.68L298.40-2.68Q295.72-5.60 295.72-10L295.72-10Q295.72-14.40 298.40-17.32L298.40-17.32Q301.16-20.32 305.56-20.32L305.56-20.32Q309.08-20.32 311.64-18.48L311.64-18.48Q314.08-16.68 315-13.72L315-13.72L311.76-13.72Q311.08-15.44 309.60-16.52Q308.12-17.60 306.20-17.60Q304.28-17.60 302.94-17Q301.60-16.40 300.68-15.36L300.68-15.36Q298.72-13.20 298.72-10L298.72-10Q298.72-6.80 300.68-4.64L300.68-4.64Q302.68-2.40 306.20-2.40Z M338.32 0L338.32-3.20Q335.92 0.32 331.16 0.32L331.16 0.32Q326.84 0.32 324.12-2.68L324.12-2.68Q321.48-5.64 321.48-10L321.48-10Q321.48-14.36 324.12-17.32L324.12-17.32Q326.84-20.32 331.36-20.32Q335.88-20.32 338.32-16.76L338.32-16.76L338.32-20L341.32-20L341.32 0L338.32 0ZM331.56-2.40L331.56-2.40Q334.80-2.40 336.68-4.64L336.68-4.64Q338.48-6.76 338.48-10L338.48-10Q338.48-13.24 336.68-15.36L336.68-15.36Q334.80-17.60 331.56-17.60L331.56-17.60Q328.36-17.60 326.36-15.36L326.36-15.36Q324.48-13.24 324.48-10L324.48-10Q324.48-6.76 326.36-4.64L326.36-4.64Q328.36-2.40 331.56-2.40Z M360.88-20.32L361.08-20.32L361.08-17.32L360.72-17.32Q357.48-17.32 355.44-14.72L355.44-14.72Q353.52-12.24 353.52-8.80L353.52-8.80L353.52 0L350.52 0L350.52-20L353.52-20L353.52-15.08Q354.48-18.20 357.68-19.68L357.68-19.68Q359-20.32 360.88-20.32L360.88-20.32Z M371.16-26.48L370.40-17.72L368.36-17.72L367.60-26.48L371.16-26.48Z M394.44-14.64L391.40-14.64Q391-17.76 386.38-17.76Q381.76-17.76 381.76-14.88L381.76-14.88Q381.76-13.68 382.74-13.06Q383.72-12.44 385.20-12.04Q386.68-11.64 388.42-11.30Q390.16-10.96 391.64-10.34Q393.12-9.72 394.10-8.64Q395.08-7.56 395.08-5.68L395.08-5.68Q395.08-2.76 392.88-1.22Q390.68 0.32 386.92 0.32L386.92 0.32Q382.92 0.32 380.56-1.68L380.56-1.68Q378.40-3.44 378.24-6.28L378.24-6.28L381.36-6.28Q381.64-3.52 384.48-2.56L384.48-2.56Q385.52-2.24 386.54-2.24Q387.56-2.24 388.44-2.36Q389.32-2.48 390.16-2.80L390.16-2.80Q392.08-3.56 392.08-5.40L392.08-5.40Q392.08-6.64 391.10-7.30Q390.12-7.96 388.64-8.38Q387.16-8.80 385.42-9.14Q383.68-9.48 382.20-10.08Q380.72-10.68 379.74-11.72Q378.76-12.76 378.76-14.60L378.76-14.60Q378.76-17.32 380.74-18.82Q382.72-20.32 386.60-20.32L386.60-20.32Q390.28-20.32 392.40-18.56L392.40-18.56Q394.16-17.08 394.44-14.64L394.44-14.64Z M418.44-20L418.44-16.80Q420.84-20.32 425.60-20.32L425.60-20.32Q429.92-20.32 432.60-17.32L432.60-17.32Q435.28-14.36 435.28-10L435.28-10Q435.28-5.64 432.60-2.68L432.60-2.68Q429.92 0.32 425.40 0.32Q420.88 0.32 418.44-3.24L418.44-3.24L418.44 7.92L415.44 7.92L415.44-20L418.44-20ZM425.20-17.60L425.20-17.60Q421.96-17.60 420.08-15.36L420.08-15.36Q418.28-13.24 418.28-10L418.28-10Q418.28-6.76 420.08-4.64L420.08-4.64Q421.96-2.40 425.20-2.40L425.20-2.40Q428.40-2.40 430.40-4.64L430.40-4.64Q432.28-6.76 432.28-10L432.28-10Q432.28-13.24 430.40-15.36L430.40-15.36Q428.40-17.60 425.20-17.60Z M451.88-20.32L451.88-20.32Q456.36-20.32 459.16-17.32L459.16-17.32Q461.80-14.44 461.80-10L461.80-10Q461.80-5.56 459.16-2.68L459.16-2.68Q456.36 0.32 451.88 0.32L451.88 0.32Q447.40 0.32 444.60-2.68L444.60-2.68Q441.96-5.56 441.96-10L441.96-10Q441.96-14.44 444.60-17.32L444.60-17.32Q447.40-20.32 451.88-20.32ZM451.88-2.40L451.88-2.40Q455.12-2.40 457-4.64L457-4.64Q458.80-6.76 458.80-10L458.80-10Q458.80-13.24 457-15.36L457-15.36Q455.12-17.60 451.88-17.60L451.88-17.60Q448.64-17.60 446.76-15.36L446.76-15.36Q444.96-13.24 444.96-10L444.96-10Q444.96-6.76 446.76-4.64L446.76-4.64Q448.64-2.40 451.88-2.40Z M474.56 0L471.56 0L471.56-17.36L467.48-17.36L467.48-20L471.56-20L471.56-27.16L474.56-27.16L474.56-20L479.16-20L479.16-17.36L474.56-17.36L474.56 0Z M494.96-2.40L494.96-2.40Q499.00-2.40 500.76-5.76L500.76-5.76L504.04-5.76Q503.00-3.04 500.74-1.36Q498.48 0.32 494.92 0.32L494.92 0.32Q490.40 0.32 487.56-2.68L487.56-2.68Q484.80-5.60 484.80-10L484.80-10Q484.80-14.44 487.44-17.32L487.44-17.32Q490.24-20.32 494.72-20.32L494.72-20.32Q499.20-20.32 502.00-17.32L502.00-17.32Q504.64-14.44 504.64-10L504.64-10L504.64-8.80L487.88-8.80Q488.20-6.04 490.08-4.24L490.08-4.24Q492.00-2.40 494.96-2.40ZM494.72-17.60L494.72-17.60Q491.96-17.60 490.08-15.88L490.08-15.88Q488.32-14.24 487.92-11.60L487.92-11.60L501.52-11.60Q501.12-14.24 499.36-15.88L499.36-15.88Q497.48-17.60 494.72-17.60Z M512.32-20L515.32-20L515.32-16.88Q516.40-18.32 517.96-19.32Q519.52-20.32 521.52-20.32Q523.52-20.32 524.96-19.76Q526.40-19.20 527.48-18.08L527.48-18.08Q529.96-15.64 529.96-11.64L529.96-11.64L529.96 0L526.96 0L526.96-11.56Q526.96-14.32 525.40-15.96Q523.84-17.60 521.36-17.60L521.36-17.60Q518.84-17.60 517.08-15.92L517.08-15.92Q515.32-14.20 515.32-11.52L515.32-11.52L515.32 0L512.32 0L512.32-20Z M543.64 0L540.64 0L540.64-17.36L536.56-17.36L536.56-20L540.64-20L540.64-27.16L543.64-27.16L543.64-20L548.24-20L548.24-17.36L543.64-17.36L543.64 0Z M555.52 0L555.52-20L558.52-20L558.52 0L555.52 0ZM555.40-27.28L558.64-27.28L558.64-23.36L555.40-23.36L555.40-27.28Z M583.32 0L583.32-3.20Q580.92 0.32 576.16 0.32L576.16 0.32Q571.84 0.32 569.12-2.68L569.12-2.68Q566.48-5.64 566.48-10L566.48-10Q566.48-14.36 569.12-17.32L569.12-17.32Q571.84-20.32 576.36-20.32Q580.88-20.32 583.32-16.76L583.32-16.76L583.32-20L586.32-20L586.32 0L583.32 0ZM576.56-2.40L576.56-2.40Q579.80-2.40 581.68-4.64L581.68-4.64Q583.48-6.76 583.48-10L583.48-10Q583.48-13.24 581.68-15.36L581.68-15.36Q579.80-17.60 576.56-17.60L576.56-17.60Q573.36-17.60 571.36-15.36L571.36-15.36Q569.48-13.24 569.48-10L569.48-10Q569.48-6.76 571.36-4.64L571.36-4.64Q573.36-2.40 576.56-2.40Z M598.52-28L598.52 0L595.52 0L595.52-28L598.52-28Z M607.24-4.08L611.12-4.08L611.12 0L607.24 0L607.24-4.08Z"/></g>
</svg>
</g><g opacity="1" transform="rotate(0 177.0395 716.313)">
<svg width="394.3626" height="70" x="177.0395" y="716.313" version="1.1" preserveAspectRatio="none" viewBox="1.56 -33.2 189.51999999999998 33.64">
  <g transform="matrix(1 0 0 1 0 0)" class="companyName"><path id="id-D6z1nYkh8" d="M20.08-4.84L21.12-3.32Q19.60-1.64 17.34-0.72Q15.08 0.20 12.44 0.20L12.44 0.20Q10 0.20 8-0.58Q6-1.36 4.56-2.76Q3.12-4.16 2.34-6.14Q1.56-8.12 1.56-10.52L1.56-10.52Q1.56-13 2.40-15.04Q3.24-17.08 4.76-18.54Q6.28-20 8.40-20.80Q10.52-21.60 13.08-21.60L13.08-21.60Q14.88-21.60 16.42-21.24Q17.96-20.88 19.06-20.24Q20.16-19.60 20.80-18.74Q21.44-17.88 21.44-16.88L21.44-16.88Q21.44-15.72 20.78-15.04Q20.12-14.36 19-14.36L19-14.36Q18.08-14.36 17.38-14.84Q16.68-15.32 16-16.40L16-16.40Q15.40-17.36 14.98-17.92Q14.56-18.48 14.20-18.78Q13.84-19.08 13.48-19.18Q13.12-19.28 12.60-19.28L12.60-19.28Q10.28-19.28 9-17.12Q7.72-14.96 7.72-11.08L7.72-11.08Q7.72-6.92 9.26-4.68Q10.80-2.44 13.68-2.44L13.68-2.44Q15.32-2.44 16.96-3.06Q18.60-3.68 20.08-4.84L20.08-4.84Z M38.32-7.60L38.32-11.40Q34.96-9.88 33.26-8.58Q31.56-7.28 31.56-5.88L31.56-5.88Q31.56-4.72 32.20-4.04Q32.84-3.36 33.80-3.36L33.80-3.36Q34.76-3.36 35.60-3.70Q36.44-4.04 37.04-4.60Q37.64-5.16 37.98-5.94Q38.32-6.72 38.32-7.60L38.32-7.60ZM32.68-11.08L38.32-13.52L38.32-15.20Q38.32-17.52 37.50-18.58Q36.68-19.64 34.96-19.64L34.96-19.64Q33.80-19.64 33.20-19.02Q32.60-18.40 32.08-16.96L32.08-16.96Q31.72-15.96 31.06-15.40Q30.40-14.84 29.24-14.84L29.24-14.84Q28.12-14.84 27.52-15.52Q26.92-16.20 26.92-17.44L26.92-17.44Q26.92-19.36 29.02-20.48Q31.12-21.60 35.36-21.60L35.36-21.60Q39.84-21.60 41.76-19.98Q43.68-18.36 43.68-14.56L43.68-14.56L43.68-5.80Q43.68-2.40 45.04-2.40L45.04-2.40Q45.80-2.40 46.44-2.92L46.44-2.92L47.04-1.76Q46.48-0.76 45.30-0.18Q44.12 0.40 42.64 0.40L42.64 0.40Q40.80 0.40 39.84-0.72Q38.88-1.84 38.88-3.88L38.88-3.88L38.68-3.88Q37.52-1.80 35.68-0.72Q33.84 0.36 31.48 0.36L31.48 0.36Q28.96 0.36 27.44-1.06Q25.92-2.48 25.92-4.76L25.92-4.76Q25.92-6.52 27.48-8.06Q29.04-9.60 32.68-11.08L32.68-11.08Z M59.84-8.12L59.84-6.20Q59.84-4.64 59.98-3.74Q60.12-2.84 60.56-2.36Q61-1.88 61.84-1.74Q62.68-1.60 64.08-1.60L64.08-1.60L64.08 0L50.72 0L50.72-1.60Q51.92-1.68 52.64-1.84Q53.36-2 53.72-2.48Q54.08-2.96 54.18-3.86Q54.28-4.76 54.28-6.28L54.28-6.28L54.28-11.16Q54.28-13.64 54.16-15.12Q54.04-16.60 53.64-17.40Q53.24-18.20 52.50-18.46Q51.76-18.72 50.56-18.72L50.56-18.72L50.56-20.12L58.56-21.60L59.20-17L59.36-17Q60.44-19.12 62.20-20.36Q63.96-21.60 65.92-21.60L65.92-21.60Q67.44-21.60 68.40-20.84Q69.36-20.08 69.36-18.92L69.36-18.92Q69.36-17.64 68.62-16.76Q67.88-15.88 66.60-15.88L66.60-15.88Q66-15.88 65.52-16.12Q65.04-16.36 64.66-16.66Q64.28-16.96 63.90-17.22Q63.52-17.48 63.12-17.48L63.12-17.48Q62.36-17.48 61.68-16.48Q61-15.48 60.56-13.80L60.56-13.80Q60.24-12.60 60.04-11.10Q59.84-9.60 59.84-8.12L59.84-8.12Z M75.72-1.40L74.84 0L73.60 0L73.60-7.28L75.28-7.28Q75.96-4.40 77.24-3.08Q78.52-1.76 80.56-1.76L80.56-1.76Q82.04-1.76 82.86-2.38Q83.68-3 83.68-4.08L83.68-4.08Q83.68-5.20 82.68-6.26Q81.68-7.32 79.44-8.52L79.44-8.52Q76.40-10.16 75.08-11.78Q73.76-13.40 73.76-15.44L73.76-15.44Q73.76-16.76 74.26-17.90Q74.76-19.04 75.62-19.88Q76.48-20.72 77.68-21.18Q78.88-21.64 80.28-21.64L80.28-21.64Q81.52-21.64 82.74-21.28Q83.96-20.92 84.88-20.28L84.88-20.28L85.60-21.24L86.64-21.24L86.64-15.20L85.08-15.20Q84.16-17.48 83.18-18.48Q82.20-19.48 80.80-19.48L80.80-19.48Q79.68-19.48 79.02-18.88Q78.36-18.28 78.36-17.28L78.36-17.28Q78.36-16.16 79.34-15.16Q80.32-14.16 82.60-12.96L82.60-12.96Q84.20-12.08 85.36-11.24Q86.52-10.40 87.24-9.54Q87.96-8.68 88.30-7.74Q88.64-6.80 88.64-5.72L88.64-5.72Q88.64-4.32 88.12-3.20Q87.60-2.08 86.64-1.28Q85.68-0.48 84.34-0.04Q83 0.40 81.36 0.40L81.36 0.40Q79.64 0.40 78.16-0.06Q76.68-0.52 75.72-1.40L75.72-1.40Z M114.48-11.88L114.48-6.56Q114.48-4.92 114.58-3.98Q114.68-3.04 115.02-2.52Q115.36-2 116.06-1.84Q116.76-1.68 117.96-1.60L117.96-1.60L117.96 0L105.36 0L105.36-1.60Q106.56-1.68 107.28-1.84Q108-2 108.36-2.48Q108.72-2.96 108.82-3.86Q108.92-4.76 108.92-6.28L108.92-6.28L108.92-22.72Q108.92-25.12 108.86-26.50Q108.80-27.88 108.64-28.60L108.64-28.60Q108.52-29.12 108.36-29.42Q108.20-29.72 107.86-29.90Q107.52-30.08 106.94-30.14Q106.36-30.20 105.48-30.20L105.48-30.20L105.48-31.68L114.40-33.20L114.40-18.44L114.56-18.44Q115.80-20.08 117.34-20.84Q118.88-21.60 121.04-21.60L121.04-21.60Q124.96-21.60 127.12-19.20L127.12-19.20Q128.16-18 128.76-16.30Q129.36-14.60 129.36-12.76L129.36-12.76L129.36-6.56Q129.36-4.88 129.44-3.94Q129.52-3 129.86-2.50Q130.20-2 130.88-1.84Q131.56-1.68 132.76-1.60L132.76-1.60L132.76 0L120.24 0L120.24-1.60Q121.44-1.64 122.14-1.82Q122.84-2 123.22-2.48Q123.60-2.96 123.70-3.86Q123.80-4.76 123.80-6.28L123.80-6.28L123.80-11.20Q123.80-15.44 122.88-17.20Q121.96-18.96 119.72-18.96L119.72-18.96Q117.32-18.96 115.92-17.20L115.92-17.20Q115.24-16.28 114.86-14.92Q114.48-13.56 114.48-11.88L114.48-11.88Z M153.88-10.48L153.88-14.64Q153.88-16.24 153.80-17.18Q153.72-18.12 153.36-18.62Q153-19.12 152.30-19.30Q151.60-19.48 150.40-19.60L150.40-19.60L150.40-21.20L159.44-21.20L159.44-9.08Q159.44-6.64 159.50-5.26Q159.56-3.88 159.72-3.20L159.72-3.20Q159.84-2.68 160-2.38Q160.16-2.08 160.52-1.90Q160.88-1.72 161.50-1.66Q162.12-1.60 163.12-1.60L163.12-1.60L163.12-0.04L155.16 0.44L154.72-3.12L154.56-3.12Q153.52-1.44 151.64-0.52Q149.76 0.40 147.44 0.40L147.44 0.40Q143.16 0.40 140.92-2.64L140.92-2.64Q139.20-4.96 139.20-9.24L139.20-9.24L139.20-14.64Q139.20-16.28 139.12-17.22Q139.04-18.16 138.70-18.64Q138.36-19.12 137.68-19.30Q137-19.48 135.80-19.60L135.80-19.60L135.80-21.20L144.76-21.20L144.76-9.88Q144.76-5.84 145.76-4.02Q146.76-2.20 148.96-2.20L148.96-2.20Q151.32-2.20 152.60-4.36L152.60-4.36Q153.88-6.44 153.88-10.48L153.88-10.48Z M174.64-11.28L174.64-8.76Q174.64-7.28 175.06-6.02Q175.48-4.76 176.20-3.84Q176.92-2.92 177.92-2.40Q178.92-1.88 180.12-1.88L180.12-1.88Q182.52-1.88 183.76-4.08Q185-6.28 185-10.56L185-10.56Q185-14.72 183.78-16.90Q182.56-19.08 180.12-19.08L180.12-19.08Q178.68-19.08 177.46-18.30Q176.24-17.52 175.56-16.12L175.56-16.12Q174.64-14.20 174.64-11.28L174.64-11.28ZM174.56-33.20L174.56-18.44L174.72-18.44Q175.76-19.96 177.40-20.78Q179.04-21.60 181.12-21.60L181.12-21.60Q183.24-21.60 185.06-20.74Q186.88-19.88 188.22-18.40Q189.56-16.92 190.32-14.92Q191.08-12.92 191.08-10.64L191.08-10.64Q191.08-8.24 190.26-6.22Q189.44-4.20 188.02-2.72Q186.60-1.24 184.70-0.40Q182.80 0.44 180.68 0.44L180.68 0.44Q178.48 0.44 176.54-0.42Q174.60-1.28 173.44-2.68L173.44-2.68L170.40 0L169.04 0L169.04-23.80Q169.04-27.56 168.52-28.96L168.52-28.96Q168.40-29.24 168.24-29.44Q168.08-29.64 167.78-29.78Q167.48-29.92 166.96-30.02Q166.44-30.12 165.60-30.24L165.60-30.24L165.60-31.60L174.56-33.20Z"/></g>
</svg>
</g><g opacity="1" transform="rotate(0 275.6302 607.8746)">
<svg width="197.1813" height="78.4384" x="275.6302" y="607.8746" version="1.1" preserveAspectRatio="none" viewBox="5.392000198364258 35.255001068115234 89.21600341796875 35.4900016784668">
  <g transform="matrix(1 0 0 1 0 0)" class="icon1"><polygon stroke-width="0.5111" stroke-miterlimit="10" points="94.608,40.762 94.427,42.353   90.769,43.05 85.103,45.352 79.097,48.503 74.88,50.845 70.834,52.252 63.104,52.718 65.617,56.081 67.364,61.236 75.201,61.236   79.844,65.068 84.955,68.18 84.998,69.669 84.903,70.745 83.401,70.553 81.963,69.562 76.072,65.55 63.723,65.986 58.483,61.831   55.712,60.554 51.328,55.986 48.39,54.869 45.183,55.071 41.521,56.37 31.582,56.021 28.432,53.85 27.753,51.56 27.753,55.188   26.731,56.688 16.4,52.999 15.186,52.516 12.087,53.188 8.829,54.465 7.052,55.347 5.392,54.39 6.35,52.601 14.22,49.406   20.278,49.981 21.204,49.725 18.394,45.54 18.01,44.774 16.541,43.784 16.093,44.869 14.177,44.933 12.1,44.183 11.653,44.625   10.631,44.794 8.842,42.938 8.417,41.898 10.29,39.684 10.375,38.576 11.738,37.214 15.23,36.532 16.85,35.255 17.786,35.255   17.956,36.191 20.598,36.276 23.067,37.81 30.329,38.587 36.909,42.229 43.001,44.113 46.835,45.561 52.883,46.84 59.249,46.979   65.468,48.375 70.602,48.714 74.521,47.691 83.272,43.349 88.491,41.472 92.216,40.666 "></polygon></g>
</svg>
</g></svg></svg>