<svg version="1.1" preserveAspectRatio="none" xmlns="http://www.w3.org/2000/svg" width="500" height="500" viewBox="0 0 500 500"><rect width="100%" height="100%" fill="#141414" fill-opacity="1"/><svg viewBox="91.8447 273.5098 351.3445 84" width="333" height="79.61416786088868" x="83.5px" y="210.1929px" xmlns="http://www.w3.org/2000/svg" xmlns:xlink="http://www.w3.org/1999/xlink" preserveAspectRatio="none"><defs></defs><style>.background {fill:#141414;fill-opacity:1;}.companyName {fill:#E9E41D;fill-opacity:1;}.icon3-str {stroke:#E9E41D;stroke-opacity:1;}.shapeStroke-str {stroke:#E5E5E5;stroke-opacity:1;}.text {fill:#E5E5E5;fill-opacity:1;}</style><g opacity="1" transform="rotate(0 91.8447 273.5098)">
<svg width="351.3445" height="54" x="91.8447" y="273.5098" version="1.1" preserveAspectRatio="none" viewBox="0 0 351.3445 54">
  <defs><rect x="0" y="0" width="351.3445" height="54" rx="0%" ry="0%" id="id-UPl23ini1705227240347"></rect></defs><use class="companyName shapeStroke-str" style="stroke-width:0;" xlink:href="#id-UPl23ini1705227240347"></use>
</svg>
</g><g opacity="1" transform="rotate(0 119.7934 337.5098)">
<svg width="295.4472" height="20" x="119.7934" y="337.5098" version="1.1" preserveAspectRatio="none" viewBox="4.32 -29.68 556.04 37.64">
  <g transform="matrix(1 0 0 1 0 0)" class="text"><path id="id-6izo4zJp29" d="M15.84 0.24Q10.40 0.24 7.36-2.88Q4.32-6 4.32-11.96L4.32-11.96L4.32-28L7.28-28L7.28-12.08Q7.28-7.20 9.48-4.80Q11.68-2.40 15.84-2.40L15.84-2.40Q20.04-2.40 22.24-4.80Q24.44-7.20 24.44-12.08L24.44-12.08L24.44-28L27.32-28L27.32-11.96Q27.32-6 24.30-2.88Q21.28 0.24 15.84 0.24L15.84 0.24Z M46.36-21.20Q50.32-21.20 52.66-18.90Q55-16.60 55-12.20L55-12.20L55 0L52.16 0L52.16-11.92Q52.16-15.20 50.52-16.92Q48.88-18.64 45.84-18.64L45.84-18.64Q42.44-18.64 40.46-16.62Q38.48-14.60 38.48-11.04L38.48-11.04L38.48 0L35.64 0L35.64-21.04L38.36-21.04L38.36-17.16Q39.52-19.08 41.58-20.14Q43.64-21.20 46.36-21.20L46.36-21.20Z M62.72 0L62.72-29.68L65.56-29.68L65.56 0L62.72 0Z M91.84-10.52L91.80-9.64L74.20-9.64Q74.44-6.36 76.72-4.34Q79.00-2.32 82.48-2.32L82.48-2.32Q84.44-2.32 86.08-3.02Q87.72-3.72 88.92-5.08L88.92-5.08L90.52-3.24Q89.12-1.56 87.02-0.68Q84.92 0.20 82.40 0.20L82.40 0.20Q79.16 0.20 76.66-1.18Q74.16-2.56 72.76-5Q71.36-7.44 71.36-10.52L71.36-10.52Q71.36-13.60 72.70-16.04Q74.04-18.48 76.38-19.84Q78.72-21.20 81.64-21.20L81.64-21.20Q84.56-21.20 86.88-19.84Q89.20-18.48 90.52-16.06Q91.84-13.64 91.84-10.52L91.84-10.52ZM81.64-18.76Q78.60-18.76 76.54-16.82Q74.48-14.88 74.20-11.76L74.20-11.76L89.12-11.76Q88.84-14.88 86.78-16.82Q84.72-18.76 81.64-18.76L81.64-18.76Z M104.40-21.20Q108.52-21.20 110.72-19.14Q112.92-17.08 112.92-13.04L112.92-13.04L112.92 0L110.20 0L110.20-3.28Q109.24-1.64 107.38-0.72Q105.52 0.20 102.96 0.20L102.96 0.20Q99.44 0.20 97.36-1.48Q95.28-3.16 95.28-5.92L95.28-5.92Q95.28-8.60 97.22-10.24Q99.16-11.88 103.40-11.88L103.40-11.88L110.08-11.88L110.08-13.16Q110.08-15.88 108.56-17.30Q107.04-18.72 104.12-18.72L104.12-18.72Q102.12-18.72 100.28-18.06Q98.44-17.40 97.12-16.24L97.12-16.24L95.84-18.36Q97.44-19.72 99.68-20.46Q101.92-21.20 104.40-21.20L104.40-21.20ZM103.40-2.04Q105.80-2.04 107.52-3.14Q109.24-4.24 110.08-6.32L110.08-6.32L110.08-9.76L103.48-9.76Q98.08-9.76 98.08-6L98.08-6Q98.08-4.16 99.48-3.10Q100.88-2.04 103.40-2.04L103.40-2.04Z M126.28 0.20Q123.72 0.20 121.38-0.54Q119.04-1.28 117.72-2.40L117.72-2.40L119-4.64Q120.32-3.60 122.32-2.94Q124.32-2.28 126.48-2.28L126.48-2.28Q129.36-2.28 130.74-3.18Q132.12-4.08 132.12-5.72L132.12-5.72Q132.12-6.88 131.36-7.54Q130.60-8.20 129.44-8.54Q128.28-8.88 126.36-9.20L126.36-9.20Q123.80-9.68 122.24-10.18Q120.68-10.68 119.58-11.88Q118.48-13.08 118.48-15.20L118.48-15.20Q118.48-17.84 120.68-19.52Q122.88-21.20 126.80-21.20L126.80-21.20Q128.84-21.20 130.88-20.66Q132.92-20.12 134.24-19.24L134.24-19.24L133-16.96Q130.40-18.76 126.80-18.76L126.80-18.76Q124.08-18.76 122.70-17.80Q121.32-16.84 121.32-15.28L121.32-15.28Q121.32-14.08 122.10-13.36Q122.88-12.64 124.04-12.30Q125.20-11.96 127.24-11.60L127.24-11.60Q129.76-11.12 131.28-10.64Q132.80-10.16 133.88-9Q134.96-7.84 134.96-5.80L134.96-5.80Q134.96-3.04 132.66-1.42Q130.36 0.20 126.28 0.20L126.28 0.20Z M150.92-21.20Q154.88-21.20 157.22-18.90Q159.56-16.60 159.56-12.20L159.56-12.20L159.56 0L156.72 0L156.72-11.92Q156.72-15.20 155.08-16.92Q153.44-18.64 150.40-18.64L150.40-18.64Q147-18.64 145.02-16.62Q143.04-14.60 143.04-11.04L143.04-11.04L143.04 0L140.20 0L140.20-29.68L143.04-29.68L143.04-17.36Q144.20-19.20 146.24-20.20Q148.28-21.20 150.92-21.20L150.92-21.20Z M192.64-21.04L195.44-21.04L184.92 2.52Q183.64 5.48 181.96 6.72Q180.28 7.96 177.92 7.96L177.92 7.96Q176.40 7.96 175.08 7.48Q173.76 7 172.80 6.04L172.80 6.04L174.12 3.92Q175.72 5.52 177.96 5.52L177.96 5.52Q179.40 5.52 180.42 4.72Q181.44 3.92 182.32 2L182.32 2L183.24-0.04L173.84-21.04L176.80-21.04L184.72-3.16L192.64-21.04Z M207.44 0.20Q204.40 0.20 201.96-1.18Q199.52-2.56 198.12-5Q196.72-7.44 196.72-10.52L196.72-10.52Q196.72-13.60 198.12-16.04Q199.52-18.48 201.96-19.84Q204.40-21.20 207.44-21.20L207.44-21.20Q210.48-21.20 212.92-19.84Q215.36-18.48 216.74-16.04Q218.12-13.60 218.12-10.52L218.12-10.52Q218.12-7.44 216.74-5Q215.36-2.56 212.92-1.18Q210.48 0.20 207.44 0.20L207.44 0.20ZM207.44-2.32Q209.68-2.32 211.46-3.34Q213.24-4.36 214.24-6.24Q215.24-8.12 215.24-10.52L215.24-10.52Q215.24-12.92 214.24-14.80Q213.24-16.68 211.46-17.70Q209.68-18.72 207.44-18.72L207.44-18.72Q205.20-18.72 203.42-17.70Q201.64-16.68 200.62-14.80Q199.60-12.92 199.60-10.52L199.60-10.52Q199.60-8.12 200.62-6.24Q201.64-4.36 203.42-3.34Q205.20-2.32 207.44-2.32L207.44-2.32Z M240.04-21.04L242.88-21.04L242.88 0L240.16 0L240.16-3.84Q239.04-1.92 237.08-0.86Q235.12 0.20 232.60 0.20L232.60 0.20Q228.48 0.20 226.10-2.10Q223.72-4.40 223.72-8.84L223.72-8.84L223.72-21.04L226.56-21.04L226.56-9.12Q226.56-5.80 228.20-4.08Q229.84-2.36 232.88-2.36L232.88-2.36Q236.20-2.36 238.12-4.38Q240.04-6.40 240.04-10L240.04-10L240.04-21.04Z M253.56-16.92Q254.56-19.04 256.54-20.12Q258.52-21.20 261.44-21.20L261.44-21.20L261.44-18.44L260.76-18.48Q257.44-18.48 255.56-16.44Q253.68-14.40 253.68-10.72L253.68-10.72L253.68 0L250.84 0L250.84-21.04L253.56-21.04L253.56-16.92Z M286.08 0.20Q282.96 0.20 280.50-1.16Q278.04-2.52 276.64-4.98Q275.24-7.44 275.24-10.52L275.24-10.52Q275.24-13.60 276.64-16.04Q278.04-18.48 280.50-19.84Q282.96-21.20 286.08-21.20L286.08-21.20Q288.80-21.20 290.94-20.14Q293.08-19.08 294.32-17.04L294.32-17.04L292.20-15.60Q291.16-17.16 289.56-17.94Q287.96-18.72 286.08-18.72L286.08-18.72Q283.80-18.72 281.98-17.70Q280.16-16.68 279.14-14.80Q278.12-12.92 278.12-10.52L278.12-10.52Q278.12-8.08 279.14-6.22Q280.16-4.36 281.98-3.34Q283.80-2.32 286.08-2.32L286.08-2.32Q287.96-2.32 289.56-3.08Q291.16-3.84 292.20-5.40L292.20-5.40L294.32-3.96Q293.08-1.92 290.92-0.86Q288.76 0.20 286.08 0.20L286.08 0.20Z M307.24-21.20Q311.36-21.20 313.56-19.14Q315.76-17.08 315.76-13.04L315.76-13.04L315.76 0L313.04 0L313.04-3.28Q312.08-1.64 310.22-0.72Q308.36 0.20 305.80 0.20L305.80 0.20Q302.28 0.20 300.20-1.48Q298.12-3.16 298.12-5.92L298.12-5.92Q298.12-8.60 300.06-10.24Q302.00-11.88 306.24-11.88L306.24-11.88L312.92-11.88L312.92-13.16Q312.92-15.88 311.40-17.30Q309.88-18.72 306.96-18.72L306.96-18.72Q304.96-18.72 303.12-18.06Q301.28-17.40 299.96-16.24L299.96-16.24L298.68-18.36Q300.28-19.72 302.52-20.46Q304.76-21.20 307.24-21.20L307.24-21.20ZM306.24-2.04Q308.64-2.04 310.36-3.14Q312.08-4.24 312.92-6.32L312.92-6.32L312.92-9.76L306.32-9.76Q300.92-9.76 300.92-6L300.92-6Q300.92-4.16 302.32-3.10Q303.72-2.04 306.24-2.04L306.24-2.04Z M326.20-16.92Q327.20-19.04 329.18-20.12Q331.16-21.20 334.08-21.20L334.08-21.20L334.08-18.44L333.40-18.48Q330.08-18.48 328.20-16.44Q326.32-14.40 326.32-10.72L326.32-10.72L326.32 0L323.48 0L323.48-21.04L326.20-21.04L326.20-16.92Z M338.52-17.44L338.32-28L340.84-28L340.64-17.44L338.52-17.44Z M353.24 0.20Q350.68 0.20 348.34-0.54Q346.00-1.28 344.68-2.40L344.68-2.40L345.96-4.64Q347.28-3.60 349.28-2.94Q351.28-2.28 353.44-2.28L353.44-2.28Q356.32-2.28 357.70-3.18Q359.08-4.08 359.08-5.72L359.08-5.72Q359.08-6.88 358.32-7.54Q357.56-8.20 356.40-8.54Q355.24-8.88 353.32-9.20L353.32-9.20Q350.76-9.68 349.20-10.18Q347.64-10.68 346.54-11.88Q345.44-13.08 345.44-15.20L345.44-15.20Q345.44-17.84 347.64-19.52Q349.84-21.20 353.76-21.20L353.76-21.20Q355.80-21.20 357.84-20.66Q359.88-20.12 361.20-19.24L361.20-19.24L359.96-16.96Q357.36-18.76 353.76-18.76L353.76-18.76Q351.04-18.76 349.66-17.80Q348.28-16.84 348.28-15.28L348.28-15.28Q348.28-14.08 349.06-13.36Q349.84-12.64 351.00-12.30Q352.16-11.96 354.20-11.60L354.20-11.60Q356.72-11.12 358.24-10.64Q359.76-10.16 360.84-9Q361.92-7.84 361.92-5.80L361.92-5.80Q361.92-3.04 359.62-1.42Q357.32 0.20 353.24 0.20L353.24 0.20Z M388.48-21.20Q391.44-21.20 393.84-19.86Q396.24-18.52 397.60-16.08Q398.96-13.64 398.96-10.52L398.96-10.52Q398.96-7.36 397.60-4.92Q396.24-2.48 393.86-1.14Q391.48 0.20 388.48 0.20L388.48 0.20Q385.92 0.20 383.86-0.86Q381.80-1.92 380.48-3.96L380.48-3.96L380.48 7.76L377.64 7.76L377.64-21.04L380.36-21.04L380.36-16.88Q381.64-18.96 383.74-20.08Q385.84-21.20 388.48-21.20L388.48-21.20ZM388.28-2.32Q390.48-2.32 392.28-3.34Q394.08-4.36 395.10-6.24Q396.12-8.12 396.12-10.52L396.12-10.52Q396.12-12.92 395.10-14.78Q394.08-16.64 392.28-17.68Q390.48-18.72 388.28-18.72L388.28-18.72Q386.04-18.72 384.26-17.68Q382.48-16.64 381.46-14.78Q380.44-12.92 380.44-10.52L380.44-10.52Q380.44-8.12 381.46-6.24Q382.48-4.36 384.26-3.34Q386.04-2.32 388.28-2.32L388.28-2.32Z M413.36 0.20Q410.32 0.20 407.88-1.18Q405.44-2.56 404.04-5Q402.64-7.44 402.64-10.52L402.64-10.52Q402.64-13.60 404.04-16.04Q405.44-18.48 407.88-19.84Q410.32-21.20 413.36-21.20L413.36-21.20Q416.40-21.20 418.84-19.84Q421.28-18.48 422.66-16.04Q424.04-13.60 424.04-10.52L424.04-10.52Q424.04-7.44 422.66-5Q421.28-2.56 418.84-1.18Q416.40 0.20 413.36 0.20L413.36 0.20ZM413.36-2.32Q415.60-2.32 417.38-3.34Q419.16-4.36 420.16-6.24Q421.16-8.12 421.16-10.52L421.16-10.52Q421.16-12.92 420.16-14.80Q419.16-16.68 417.38-17.70Q415.60-18.72 413.36-18.72L413.36-18.72Q411.12-18.72 409.34-17.70Q407.56-16.68 406.54-14.80Q405.52-12.92 405.52-10.52L405.52-10.52Q405.52-8.12 406.54-6.24Q407.56-4.36 409.34-3.34Q411.12-2.32 413.36-2.32L413.36-2.32Z M439.92-3.32L440.92-1.28Q440.12-0.56 438.94-0.18Q437.76 0.20 436.48 0.20L436.48 0.20Q433.52 0.20 431.92-1.40Q430.32-3 430.32-5.92L430.32-5.92L430.32-18.64L426.56-18.64L426.56-21.04L430.32-21.04L430.32-25.64L433.16-25.64L433.16-21.04L439.56-21.04L439.56-18.64L433.16-18.64L433.16-6.08Q433.16-4.20 434.10-3.22Q435.04-2.24 436.80-2.24L436.80-2.24Q437.68-2.24 438.50-2.52Q439.32-2.80 439.92-3.32L439.92-3.32Z M463.68-10.52L463.64-9.64L446.04-9.64Q446.28-6.36 448.56-4.34Q450.84-2.32 454.32-2.32L454.32-2.32Q456.28-2.32 457.92-3.02Q459.56-3.72 460.76-5.08L460.76-5.08L462.36-3.24Q460.96-1.56 458.86-0.68Q456.76 0.20 454.24 0.20L454.24 0.20Q451.00 0.20 448.50-1.18Q446.00-2.56 444.60-5Q443.20-7.44 443.20-10.52L443.20-10.52Q443.20-13.60 444.54-16.04Q445.88-18.48 448.22-19.84Q450.56-21.20 453.48-21.20L453.48-21.20Q456.40-21.20 458.72-19.84Q461.04-18.48 462.36-16.06Q463.68-13.64 463.68-10.52L463.68-10.52ZM453.48-18.76Q450.44-18.76 448.38-16.82Q446.32-14.88 446.04-11.76L446.04-11.76L460.96-11.76Q460.68-14.88 458.62-16.82Q456.56-18.76 453.48-18.76L453.48-18.76Z M480.20-21.20Q484.16-21.20 486.50-18.90Q488.84-16.60 488.84-12.20L488.84-12.20L488.84 0L486.00 0L486.00-11.92Q486.00-15.20 484.36-16.92Q482.72-18.64 479.68-18.64L479.68-18.64Q476.28-18.64 474.30-16.62Q472.32-14.60 472.32-11.04L472.32-11.04L472.32 0L469.48 0L469.48-21.04L472.20-21.04L472.20-17.16Q473.36-19.08 475.42-20.14Q477.48-21.20 480.20-21.20L480.20-21.20Z M506.64-3.32L507.64-1.28Q506.84-0.56 505.66-0.18Q504.48 0.20 503.20 0.20L503.20 0.20Q500.24 0.20 498.64-1.40Q497.04-3 497.04-5.92L497.04-5.92L497.04-18.64L493.28-18.64L493.28-21.04L497.04-21.04L497.04-25.64L499.88-25.64L499.88-21.04L506.28-21.04L506.28-18.64L499.88-18.64L499.88-6.08Q499.88-4.20 500.82-3.22Q501.76-2.24 503.52-2.24L503.52-2.24Q504.40-2.24 505.22-2.52Q506.04-2.80 506.64-3.32L506.64-3.32Z M512.80 0L512.80-21.04L515.64-21.04L515.64 0L512.80 0ZM514.24-25.64Q513.36-25.64 512.76-26.24Q512.16-26.84 512.16-27.68L512.16-27.68Q512.16-28.48 512.76-29.08Q513.36-29.68 514.24-29.68L514.24-29.68Q515.12-29.68 515.72-29.10Q516.32-28.52 516.32-27.72L516.32-27.72Q516.32-26.84 515.72-26.24Q515.12-25.64 514.24-25.64L514.24-25.64Z M530.92-21.20Q535.04-21.20 537.24-19.14Q539.44-17.08 539.44-13.04L539.44-13.04L539.44 0L536.72 0L536.72-3.28Q535.76-1.64 533.90-0.72Q532.04 0.20 529.48 0.20L529.48 0.20Q525.96 0.20 523.88-1.48Q521.80-3.16 521.80-5.92L521.80-5.92Q521.80-8.60 523.74-10.24Q525.68-11.88 529.92-11.88L529.92-11.88L536.60-11.88L536.60-13.16Q536.60-15.88 535.08-17.30Q533.56-18.72 530.64-18.72L530.64-18.72Q528.64-18.72 526.80-18.06Q524.96-17.40 523.64-16.24L523.64-16.24L522.36-18.36Q523.96-19.72 526.20-20.46Q528.44-21.20 530.92-21.20L530.92-21.20ZM529.92-2.04Q532.32-2.04 534.04-3.14Q535.76-4.24 536.60-6.32L536.60-6.32L536.60-9.76L530.00-9.76Q524.60-9.76 524.60-6L524.60-6Q524.60-4.16 526.00-3.10Q527.40-2.04 529.92-2.04L529.92-2.04Z M547.16 0L547.16-29.68L550.00-29.68L550.00 0L547.16 0Z M558.20 0.20Q557.32 0.20 556.70-0.44Q556.08-1.08 556.08-2L556.08-2Q556.08-2.92 556.70-3.54Q557.32-4.16 558.20-4.16L558.20-4.16Q559.08-4.16 559.72-3.54Q560.36-2.92 560.36-2L560.36-2Q560.36-1.08 559.72-0.44Q559.08 0.20 558.20 0.20L558.20 0.20Z"/></g>
</svg>
</g><g opacity="1" transform="rotate(0 93.8447 275.5098)">
<svg width="347.3445" height="50" x="93.8447" y="275.5098" version="1.1" preserveAspectRatio="none" viewBox="2.32 -28.8 204.24 29.4">
  <g transform="matrix(1 0 0 1 0 0)" class="background"><path id="id-D6z1nYkh8" d="M21.92 0L21.92 0L12.16 0Q7.16 0 4.74-2Q2.32-4 2.32-8.16L2.32-8.16L2.32-20.60Q2.32-24.76 4.74-26.78Q7.16-28.80 12.16-28.80L12.16-28.80L21.92-28.80Q22.68-28.80 23.02-28.46Q23.36-28.12 23.36-27.36L23.36-27.36L23.36-22.52Q23.36-21.76 23.02-21.42Q22.68-21.08 21.92-21.08L21.92-21.08L13.88-21.08Q12.64-21.08 12.04-20.58Q11.44-20.08 11.44-19.08L11.44-19.08L11.44-9.56Q11.44-8.56 12.04-8.10Q12.64-7.64 13.88-7.64L13.88-7.64L21.92-7.64Q22.68-7.64 23.02-7.30Q23.36-6.96 23.36-6.20L23.36-6.20L23.36-1.44Q23.36-0.68 23.02-0.34Q22.68 0 21.92 0Z M38.32-20.40L38.32-20.40L36.44-14.32L42.72-14.32L40.84-20.40Q40.68-20.76 40.50-20.92Q40.32-21.08 40.08-21.08L40.08-21.08L39.08-21.08Q38.84-21.08 38.66-20.92Q38.48-20.76 38.32-20.40ZM36.04-7.04L36.04-1.44Q36.04-0.68 35.70-0.34Q35.36 0 34.60 0L34.60 0L28.72 0Q27.96 0 27.62-0.34Q27.28-0.68 27.28-1.44L27.28-1.44L27.28-12Q27.28-13.20 27.66-14.76Q28.04-16.32 28.84-18.40L28.84-18.40L32.32-27.48Q32.56-28.16 33.06-28.48Q33.56-28.80 34.36-28.80L34.36-28.80L45.12-28.80Q45.88-28.80 46.38-28.48Q46.88-28.16 47.12-27.48L47.12-27.48L50.60-18.40Q51.40-16.32 51.78-14.76Q52.16-13.20 52.16-12L52.16-12L52.16-1.44Q52.16-0.68 51.82-0.34Q51.48 0 50.72 0L50.72 0L44.68 0Q43.88 0 43.50-0.34Q43.12-0.68 43.12-1.44L43.12-1.44L43.12-7.04L36.04-7.04Z M69.12-21.60L66.12-21.60L66.12-16.48L69.12-16.48Q70.16-16.48 70.52-17.02Q70.88-17.56 70.88-18.36L70.88-18.36L70.88-19.72Q70.88-20.52 70.52-21.06Q70.16-21.60 69.12-21.60L69.12-21.60ZM64.68 0L64.68 0L58.52 0Q57.76 0 57.42-0.34Q57.08-0.68 57.08-1.44L57.08-1.44L57.08-27.36Q57.08-28.12 57.42-28.46Q57.76-28.80 58.52-28.80L58.52-28.80L71.84-28.80Q76.32-28.80 78.02-26.94Q79.72-25.08 79.72-22.12L79.72-22.12L79.72-20.28Q79.72-18.60 79.22-17.42Q78.72-16.24 77.48-15.72L77.48-15.72Q79.64-15.48 80.98-13.96Q82.32-12.44 82.32-9.92L82.32-9.92L82.32-1.44Q82.32-0.68 81.98-0.34Q81.64 0 80.88 0L80.88 0L74.68 0Q73.92 0 73.58-0.34Q73.24-0.68 73.24-1.44L73.24-1.44L73.24-7.56Q73.24-8.44 72.90-8.86Q72.56-9.28 71.72-9.28L71.72-9.28L66.12-9.28L66.12-1.44Q66.12-0.68 65.78-0.34Q65.44 0 64.68 0Z M100.16 0L100.16 0L87.52 0Q86.76 0 86.42-0.34Q86.08-0.68 86.08-1.44L86.08-1.44L86.08-6.12Q86.08-6.88 86.42-7.22Q86.76-7.56 87.52-7.56L87.52-7.56L98.28-7.56Q98.80-7.56 99.06-7.90Q99.32-8.24 99.32-8.72L99.32-8.72Q99.32-9.40 99.06-9.72Q98.80-10.04 98.28-10.08L98.28-10.08L92.28-10.92Q89.48-11.32 87.78-12.76Q86.08-14.20 86.08-17.56L86.08-17.56L86.08-21.76Q86.08-25.16 88.28-26.98Q90.48-28.80 94.36-28.80L94.36-28.80L105.56-28.80Q106.32-28.80 106.66-28.46Q107-28.12 107-27.36L107-27.36L107-22.60Q107-21.84 106.66-21.50Q106.32-21.16 105.56-21.16L105.56-21.16L96.24-21.16Q95.72-21.16 95.44-20.82Q95.16-20.48 95.16-19.96L95.16-19.96Q95.16-19.44 95.44-19.08Q95.72-18.72 96.24-18.68L96.24-18.68L102.20-17.88Q105-17.48 106.72-16.04Q108.44-14.60 108.44-11.24L108.44-11.24L108.44-7.04Q108.44-3.64 106.22-1.82Q104 0 100.16 0Z M129.44 0L129.44 0L123.24 0Q122.48 0 122.14-0.34Q121.80-0.68 121.80-1.44L121.80-1.44L121.80-27.36Q121.80-28.12 122.14-28.46Q122.48-28.80 123.24-28.80L123.24-28.80L129.44-28.80Q130.20-28.80 130.54-28.46Q130.88-28.12 130.88-27.36L130.88-27.36L130.88-18.68L137.56-18.68L137.56-27.36Q137.56-28.12 137.90-28.46Q138.24-28.80 139-28.80L139-28.80L145.20-28.80Q145.96-28.80 146.30-28.46Q146.64-28.12 146.64-27.36L146.64-27.36L146.64-1.44Q146.64-0.68 146.30-0.34Q145.96 0 145.20 0L145.20 0L139 0Q138.24 0 137.90-0.34Q137.56-0.68 137.56-1.44L137.56-1.44L137.56-10.32L130.88-10.32L130.88-1.44Q130.88-0.68 130.54-0.34Q130.20 0 129.44 0Z M176.68-27.36L176.68-7.56Q176.68-5.72 176.14-4.22Q175.60-2.72 174.22-1.66Q172.84-0.60 170.44 0Q168.04 0.60 164.32 0.60L164.32 0.60Q160.60 0.60 158.20 0Q155.80-0.60 154.42-1.66Q153.04-2.72 152.50-4.22Q151.96-5.72 151.96-7.56L151.96-7.56L151.96-27.36Q151.96-28.12 152.30-28.46Q152.64-28.80 153.40-28.80L153.40-28.80L159.68-28.80Q160.44-28.80 160.78-28.46Q161.12-28.12 161.12-27.36L161.12-27.36L161.12-9.12Q161.12-8.32 161.72-7.78Q162.32-7.24 164.40-7.24L164.40-7.24Q166.52-7.24 167.12-7.78Q167.72-8.32 167.72-9.12L167.72-9.12L167.72-27.36Q167.72-28.12 168.06-28.46Q168.40-28.80 169.16-28.80L169.16-28.80L175.24-28.80Q176.00-28.80 176.34-28.46Q176.68-28.12 176.68-27.36L176.68-27.36Z M198.80 0L198.80 0L183.44 0Q182.68 0 182.34-0.34Q182.00-0.68 182.00-1.44L182.00-1.44L182.00-27.36Q182.00-28.12 182.34-28.46Q182.68-28.80 183.44-28.80L183.44-28.80L196.20-28.80Q200.12-28.80 202.00-27.30Q203.88-25.80 203.88-22.68L203.88-22.68L203.88-20.76Q203.88-19.08 203.30-18.02Q202.72-16.96 201.52-16.44L201.52-16.44Q204.08-16.20 205.32-14.68Q206.56-13.16 206.56-10.24L206.56-10.24L206.56-6.56Q206.56-3.20 204.66-1.60Q202.76 0 198.80 0ZM194.40-22L191.00-22L191.00-17.68L194.40-17.68Q195.16-17.68 195.54-18.08Q195.92-18.48 195.92-19.28L195.92-19.28L195.92-20.40Q195.92-21.20 195.54-21.60Q195.16-22 194.40-22L194.40-22ZM196.20-11.52L191.00-11.52L191.00-6.80L196.20-6.80Q196.96-6.80 197.34-7.20Q197.72-7.60 197.72-8.40L197.72-8.40L197.72-9.96Q197.72-10.76 197.34-11.14Q196.96-11.52 196.20-11.52L196.20-11.52Z"/></g>
</svg>
</g></svg></svg>