<svg version="1.1" preserveAspectRatio="none" xmlns="http://www.w3.org/2000/svg" width="500" height="500" viewBox="0 0 500 500"><rect width="100%" height="100%" fill="#010506" fill-opacity="1"/><svg viewBox="68.3283 306.72 512.3533 123.76" width="333" height="80.43683918889565" x="83.5px" y="209.7816px" xmlns="http://www.w3.org/2000/svg" xmlns:xlink="http://www.w3.org/1999/xlink" preserveAspectRatio="none"><defs></defs><style>.background {fill:#010506;fill-opacity:1;}.companyName {fill:#EEF8F7;fill-opacity:1;}.icon1 {fill:#E35F21;fill-opacity:1;}.icon2 {fill:#EEF8F7;fill-opacity:1;}.icon3 {fill:#FAAB05;fill-opacity:1;}.icon3-str {stroke:#FAAB05;stroke-opacity:1;}.shapeStroke-str {stroke:#E35F21;stroke-opacity:1;}.text {fill:#EEF8F7;fill-opacity:1;}</style><g opacity="1" transform="rotate(0 68.3283 306.72)">
<svg width="123.76" height="123.76" x="68.3283" y="306.72" version="1.1" preserveAspectRatio="none" viewBox="0 0 123.76 123.76">
  <defs><rect x="0" y="0" width="123.76" height="123.76" rx="150px" ry="150px" id="id-3WKIowxM31705227262987"></rect></defs><use class="icon1 shapeStroke-str" style="stroke-width:0;" xlink:href="#id-3WKIowxM31705227262987"></use>
</svg>
</g><g opacity="1" transform="rotate(0 86.8923 347.2922)">
<svg width="86.632" height="42.6157" x="86.8923" y="347.2922" version="1.1" preserveAspectRatio="none" viewBox="-5.684341886080802e-14 0 95 46.732120513916016">
  <g transform="matrix(1 0 0 1 0 0)" class="background"><title>Group 25</title><desc>Created with Sketch.</desc><g stroke-width="1" fill-rule="evenodd"><g fill-rule="nonzero"><path d="M44.3333333,28.5021851 L44.3333333,35.6228149 C44.3333333,36.0629534 44.686872,36.4166667 45.1246952,36.4166667 L49.8753048,36.4166667 C50.3156571,36.4166667 50.6666667,36.0641522 50.6666667,35.6228149 L50.6666667,28.5021851 C50.6666667,28.0620466 50.313128,27.7083333 49.8753048,27.7083333 L45.1246952,27.7083333 C44.6843429,27.7083333 44.3333333,28.0608478 44.3333333,28.5021851 Z M42.75,28.5021851 C42.75,27.1879098 43.8083721,26.125 45.1246952,26.125 L49.8753048,26.125 C51.1877539,26.125 52.25,27.1877707 52.25,28.5021851 L52.25,35.6228149 C52.25,36.9370902 51.1916279,38 49.8753048,38 L45.1246952,38 C43.8122461,38 42.75,36.9372293 42.75,35.6228149 L42.75,28.5021851 Z"></path><path d="M79.9583333,18.5927026 L79.9583333,44.7635217 C79.9583333,45.2298469 79.8568132,45.6268816 79.6171984,45.9240913 C79.1472194,46.6216215 78.2886465,46.8942121 77.4180026,46.636426 C77.3792483,46.6248866 77.3792483,46.6248866 77.193522,46.5697256 C76.938959,46.4942085 76.7967462,46.4520743 76.5560224,46.3808887 C75.8681095,46.1774624 75.0982892,45.9507716 74.2651642,45.7066362 C71.8849082,45.0091362 69.4745116,44.3116515 67.1829439,43.660781 C66.9135843,43.5842752 66.647142,43.5087794 66.3837736,43.4343425 C64.3438615,42.8577941 62.5192745,42.353445 60.9652328,41.9385361 C58.7577721,41.3491729 57.0866158,40.4913115 55.8914292,39.4245028 C55.0091816,38.6370197 54.4320504,37.7784529 54.1075616,36.9095488 C53.9042635,36.365165 53.8333333,35.921985 53.8333333,35.6319944 L53.8333333,27.3487547 C53.8333333,27.0587641 53.9042635,26.6155842 54.1075616,26.0712003 C54.4320504,25.2022963 55.0091816,24.3437295 55.8914292,23.5562464 C57.0866158,22.4894377 58.7577721,21.6315763 60.9652328,21.0422131 C62.4822211,20.637197 64.2545483,20.1665752 66.2322504,19.6433257 C66.3082594,19.6232162 66.3082594,19.6232162 66.3842725,19.6031079 C68.8007037,18.9638885 71.3896471,18.2815025 73.9785779,17.6007651 C74.8846937,17.3625096 75.72609,17.1414773 76.4811971,16.9432711 C76.9019094,16.832854 76.9019094,16.832854 77.1824009,16.7592725 C77.3873896,16.7055097 77.3873896,16.7055097 77.4303975,16.6942353 C77.6207829,16.6442759 77.8118009,16.6184697 78.0001746,16.6175373 C79.1253995,16.579335 79.9583333,17.426071 79.9583333,18.5927026 Z M78.0489557,18.2001473 C77.9580221,18.2006534 77.8976478,18.2085633 77.8320867,18.2257672 C77.7889982,18.2370628 77.7889982,18.2370628 77.5841283,18.2907945 C77.3037609,18.3643434 77.3037609,18.3643434 76.8831846,18.4747248 C76.1282867,18.6728761 75.2871059,18.8938518 74.3812157,19.132048 C71.7929863,19.8126009 69.2047696,20.4947954 66.7891846,21.1337909 C66.7132029,21.153891 66.7132029,21.153891 66.6372256,21.173992 C64.6605869,21.6969602 62.8893612,22.1672895 61.3736561,22.571963 C59.3960793,23.0999502 57.9469509,23.8438372 56.9457769,24.7374725 C56.2586218,25.3508186 55.8268513,25.9931402 55.5908392,26.6251246 C55.4578366,26.9812737 55.4166667,27.2385084 55.4166667,27.3487547 L55.4166667,35.6319944 C55.4166667,35.7422408 55.4578366,35.9994754 55.5908392,36.3556246 C55.8268513,36.987609 56.2586218,37.6299306 56.9457769,38.2432766 C57.9469509,39.136912 59.3960793,39.8807989 61.3736561,40.4087862 C62.9360177,40.8259164 64.7676728,41.3322192 66.8144078,41.910696 C67.0784399,41.9853205 67.3455373,42.0610019 67.6155447,42.1376917 C69.9117883,42.7898903 72.3262492,43.4885511 74.7104143,44.1871966 C75.5448366,44.4317122 76.3158986,44.6587686 77.0050176,44.8625515 C77.246255,44.933889 77.3887449,44.9761053 77.6440321,45.0518373 C77.8304527,45.1072045 77.8304527,45.1072045 77.8686807,45.118588 C78.1019755,45.1876633 78.2403591,45.1415471 78.3100631,45.0301948 L78.3967853,44.9161027 C78.360622,44.9556625 78.375,44.9037093 78.375,44.7635217 L78.375,18.5927026 C78.375,18.3025622 78.2644881,18.1910413 78.0489557,18.2001473 Z"></path><path d="M16.9872776,18.2008479 C16.7355119,18.1910413 16.625,18.3025622 16.625,18.5927026 L16.625,44.7635217 C16.625,44.9037093 16.639378,44.9556625 16.6032147,44.9161027 L16.6899369,45.0301948 C16.7596409,45.1415471 16.8980245,45.1876633 17.1301536,45.1189342 C17.1695473,45.1072045 17.1695473,45.1072045 17.3559679,45.0518373 C17.6112551,44.9761053 17.753745,44.933889 17.9949824,44.8625515 C18.6841014,44.6587686 19.4551634,44.4317122 20.2895857,44.1871966 C22.6737508,43.4885511 25.0882117,42.7898903 27.3844553,42.1376917 C27.6544627,42.0610019 27.9215601,41.9853205 28.1855922,41.910696 C30.2323272,41.3322192 32.0639823,40.8259164 33.6263439,40.4087862 C35.6039207,39.8807989 37.0530491,39.136912 38.0542231,38.2432766 C38.7413782,37.6299306 39.1731487,36.987609 39.4091608,36.3556246 C39.5421634,35.9994754 39.5833333,35.7422408 39.5833333,35.6319944 L39.5833333,27.3487547 C39.5833333,27.2385084 39.5421634,26.9812737 39.4091608,26.6251246 C39.1731487,25.9931402 38.7413782,25.3508186 38.0542231,24.7374725 C37.0530491,23.8438372 35.6039207,23.0999502 33.6263439,22.571963 C32.1106388,22.1672895 30.3394131,21.6969602 28.3627744,21.173992 C28.2867971,21.153891 28.2867971,21.153891 28.2108154,21.1337909 C25.7952304,20.4947954 23.2070137,19.8126009 20.6187843,19.132048 C19.7128941,18.8938518 18.8717133,18.6728761 18.1168154,18.4747248 C17.6962391,18.3643434 17.6962391,18.3643434 17.4158717,18.2907945 C17.2110018,18.2370628 17.2110018,18.2370628 17.1677238,18.2257175 C17.1023522,18.2085633 17.0419779,18.2006534 16.9872776,18.2008479 Z M17.569413,16.6941856 C17.6126104,16.7055097 17.6126104,16.7055097 17.8175991,16.7592725 C18.0980906,16.832854 18.0980906,16.832854 18.5188029,16.9432711 C19.27391,17.1414773 20.1153063,17.3625096 21.0214221,17.6007651 C23.6103529,18.2815025 26.1992963,18.9638885 28.6157275,19.6031079 C28.6917406,19.6232162 28.6917406,19.6232162 28.7677496,19.6433257 C30.7454517,20.1665752 32.5177789,20.637197 34.0347672,21.0422131 C36.2422279,21.6315763 37.9133842,22.4894377 39.1085708,23.5562464 C39.9908184,24.3437295 40.5679496,25.2022963 40.8924384,26.0712003 C41.0957365,26.6155842 41.1666667,27.0587641 41.1666667,27.3487547 L41.1666667,35.6319944 C41.1666667,35.921985 41.0957365,36.365165 40.8924384,36.9095488 C40.5679496,37.7784529 39.9908184,38.6370197 39.1085708,39.4245028 C37.9133842,40.4913115 36.2422279,41.3491729 34.0347672,41.9385361 C32.4807255,42.353445 30.6561385,42.8577941 28.6162264,43.4343425 C28.352858,43.5087794 28.0864157,43.5842752 27.8170561,43.660781 C25.5254884,44.3116515 23.1150918,45.0091362 20.7348358,45.7066362 C19.9017108,45.9507716 19.1318905,46.1774624 18.4439776,46.3808887 C18.2032538,46.4520743 18.061041,46.4942085 17.806478,46.5697256 C17.6207517,46.6248866 17.6207517,46.6248866 17.5808317,46.6367722 C16.7113246,46.8942207 15.8527798,46.6216217 15.3828015,45.9240911 C15.1431868,45.6268814 15.0416667,45.2298468 15.0416667,44.7635217 L15.0416667,18.5927026 C15.0416667,17.426071 15.8746005,16.579335 16.9998254,16.6175373 C17.1881989,16.6184697 17.3792111,16.6442744 17.569413,16.6941856 Z"></path><path d="M26.7188466,26.0998862 L38.9896799,29.2665529 C39.4130354,29.3758059 39.8447999,29.1211756 39.9540529,28.6978201 C40.0633059,28.2744646 39.8086756,27.8427001 39.3853201,27.7334471 L27.1144868,24.5667805 C26.6911313,24.4575274 26.2593668,24.7121578 26.1501138,25.1355132 C26.0408608,25.5588687 26.2954911,25.9906332 26.7188466,26.0998862 Z"></path><path d="M27.1144868,38.7665529 L39.3853201,35.5998862 C39.8086756,35.4906332 40.0633059,35.0588687 39.9540529,34.6355132 C39.8447999,34.2121578 39.4130354,33.9575274 38.9896799,34.0667805 L26.7188466,37.2334471 C26.2954911,37.3427001 26.0408608,37.7744646 26.1501138,38.1978201 C26.2593668,38.6211756 26.6911313,38.8758059 27.1144868,38.7665529 Z"></path><path d="M39.1875,30.875 L29.6875,30.875 C29.2502746,30.875 28.8958333,31.2294412 28.8958333,31.6666667 C28.8958333,32.1038921 29.2502746,32.4583333 29.6875,32.4583333 L39.1875,32.4583333 C39.6247254,32.4583333 39.9791667,32.1038921 39.9791667,31.6666667 C39.9791667,31.2294412 39.6247254,30.875 39.1875,30.875 Z"></path><path d="M67.8855132,24.5667805 L68.2811534,26.0998862 L56.0103201,29.2665529 L55.6146799,27.7334471 L67.8855132,24.5667805 Z M55.6146799,27.7334471 C55.1036446,27.8653272 54.9470371,28.3145437 55.0459471,28.6978201 L55.6146799,27.7334471 Z M55.0459471,28.6978201 L55.6146799,27.7334471 L67.8855132,24.5667805 C68.9075837,24.3030203 69.3032239,25.8361261 68.2811534,26.0998862 L56.0103201,29.2665529 C55.4992848,29.3984329 55.1448572,29.0810965 55.0459471,28.6978201 Z"></path><path d="M68.2811534,37.2334471 L67.8855132,38.7665529 L55.6146799,35.5998862 L56.0103201,34.0667805 L68.2811534,37.2334471 Z M67.8855132,38.7665529 L55.6146799,35.5998862 C54.5926094,35.3361261 54.9882496,33.8030203 56.0103201,34.0667805 L68.2811534,37.2334471 C69.3032239,37.4972072 68.9075837,39.030313 67.8855132,38.7665529 Z"></path><path d="M55.8125,32.4583333 L55.8125,30.875 L65.3125,30.875 L65.3125,32.4583333 L55.8125,32.4583333 Z M55.8125,30.875 L65.3125,30.875 C66.3680556,30.875 66.3680556,32.4583333 65.3125,32.4583333 L55.8125,32.4583333 C54.7569444,32.4583333 54.7569444,30.875 55.8125,30.875 Z"></path><path d="M82.6261315,23.9536702 C90.4996817,21.4078837 95,18.0701316 95,14.25 C95,6.11673819 73.7713204,0 47.5,0 C47.0627746,0 46.7083333,0.35444124 46.7083333,0.791666667 C46.7083333,1.22889209 47.0627746,1.58333333 47.5,1.58333333 C72.82128,1.58333333 93.4166667,7.5175973 93.4166667,14.25 C93.4166667,17.123089 89.4065115,20.0973017 82.1390159,22.4471302 C81.7229964,22.5816434 81.4947905,23.0279384 81.6293037,23.443958 C81.763817,23.8599775 82.210112,24.0881834 82.6261315,23.9536702 Z"></path><path d="M92.3828228,16.9057764 C92.1680331,17.14834 91.9370686,17.3823461 91.7131069,17.5900019 C84.4878183,12.0063173 66.6469666,7.91666667 47.5,7.91666667 C47.0627746,7.91666667 46.7083333,8.27110791 46.7083333,8.70833333 C46.7083333,9.14555876 47.0627746,9.5 47.5,9.5 C66.7832588,9.5 84.7018874,13.7172561 91.2099778,19.218345 C91.8276409,19.7404367 92.3422553,19.3267652 93.4166667,18.1257758 C93.4659819,18.0706507 93.5164765,18.0138669 93.5682145,17.9554387 C94.4546123,16.9544229 95,15.9837328 95,15.0416667 C95,13.9861111 93.4166667,13.9861111 93.4166667,15.0416667 C93.4166667,16.3355927 93.4166667,16.4795562 93.4166667,18.1257758 L93.4166667,18.8198816 L93.4166667,22.9583333 C93.4166667,25.8522612 89.3748211,28.9833364 82.1508791,31.5023002 C81.7380327,31.6462583 81.5200557,32.0976375 81.6640138,32.5104839 C81.807972,32.9233303 82.2593512,33.1413073 82.6721976,32.9973492 C90.4845678,30.2732026 95,26.7752564 95,22.9583333 L95,18.8198816 L95,15.0416667 L93.4166667,15.0416667 C93.4166667,15.4881771 93.0322422,16.1723821 92.3828228,16.9057764 Z"></path><path d="M81.5416667,23.1958333 L81.5416667,32.3 C81.5416667,32.7372254 81.8961079,33.0916667 82.3333333,33.0916667 C82.7705588,33.0916667 83.125,32.7372254 83.125,32.3 L83.125,23.1958333 C83.125,22.7586079 82.7705588,22.4041667 82.3333333,22.4041667 C81.8961079,22.4041667 81.5416667,22.7586079 81.5416667,23.1958333 Z"></path><path d="M12.8605288,22.446983 C5.59331287,20.0971751 1.58333333,17.1230255 1.58333333,14.25 C1.58333333,7.5175973 22.17872,1.58333333 47.5,1.58333333 C47.9372254,1.58333333 48.2916667,1.22889209 48.2916667,0.791666667 C48.2916667,0.35444124 47.9372254,0 47.5,0 C21.2286796,0 -5.68434189e-14,6.11673819 -5.68434189e-14,14.25 C-5.68434189e-14,18.0700559 4.50013812,21.4077497 12.3734001,23.9535188 C12.7894185,24.0880356 13.2357155,23.8598336 13.3702324,23.4438152 C13.5047493,23.0277969 13.2765472,22.5814999 12.8605288,22.446983 Z"></path><path d="M3.79002224,19.218345 C10.2981126,13.7172561 28.2167412,9.5 47.5,9.5 C47.9372254,9.5 48.2916667,9.14555876 48.2916667,8.70833333 C48.2916667,8.27110791 47.9372254,7.91666667 47.5,7.91666667 C28.3530334,7.91666667 10.5121817,12.0063173 3.28689307,17.5900019 C3.06293143,17.3823461 2.83196687,17.14834 2.61717716,16.9057764 C1.96775776,16.1723821 1.58333333,15.4881771 1.58333333,15.0416667 C1.58333333,13.9861111 -5.12182889e-14,13.9861111 -5.12182889e-14,15.0416667 L-5.68434189e-14,22.9583333 C-5.68434189e-14,26.7740131 4.51245344,30.2708948 12.3201808,32.9946909 C12.7330063,33.1387088 13.1844171,32.9207972 13.328435,32.5079717 C13.4724529,32.0951462 13.2545413,31.6437354 12.8417157,31.4997175 C5.62228002,28.9811521 1.58333333,25.8512099 1.58333333,22.9583333 L1.58333333,18.8198816 L1.58333333,18.1257758 C2.65774469,19.3267652 3.17235909,19.7404367 3.79002224,19.218345 Z"></path><path d="M11.875,23.1958333 L13.4583333,23.1958333 L13.4583333,32.3 L11.875,32.3 L11.875,23.1958333 Z M13.4583333,23.1958333 L13.4583333,32.3 C13.4583333,33.3555556 11.875,33.3555556 11.875,32.3 L11.875,23.1958333 C11.875,22.1402778 13.4583333,22.1402778 13.4583333,23.1958333 Z"></path></g></g></g>
</svg>
</g><g opacity="1" transform="rotate(0 212.0883 397)">
<svg width="303.0365" height="19.2" x="212.0883" y="397" version="1.1" preserveAspectRatio="none" viewBox="2.72 -31.88 667.3199999999999 42.28">
  <g transform="matrix(1 0 0 1 0 0)" class="text"><path id="id-6izo4zJp29" d="M2.72-28.20L6.36-28.20L6.36-11.28Q6.36-7.12 8.20-5.14Q10.04-3.16 13.28-3.16L13.28-3.16Q16.48-3.16 18.28-5.16Q20.08-7.16 20.08-11.28L20.08-11.28L20.08-28.20L23.72-28.20L23.72-11.28Q23.72-5.52 20.86-2.62Q18 0.28 13.20 0.28L13.20 0.28Q8.44 0.28 5.58-2.62Q2.72-5.52 2.72-11.28L2.72-11.28L2.72-28.20Z M44.92-22.32Q48.76-22.32 51.12-19.86Q53.48-17.40 53.48-12.76L53.48-12.76L53.48 0L49.84 0L49.84-12.44Q49.84-15.72 48.16-17.48Q46.48-19.24 43.60-19.24L43.60-19.24Q40.60-19.24 38.80-17.30Q37-15.36 37-11.64L37-11.64L37 0L33.36 0L33.36-21.96L37-21.96L37-16.76Q37.84-19.44 39.98-20.88Q42.12-22.32 44.92-22.32L44.92-22.32Z M63.08-29.60L66.72-29.60L66.72 0L63.08 0L63.08-29.60Z M96.76-12.20Q96.76-11.04 96.60-10.20L96.60-10.20L79.04-10.20Q79.16-6.44 81.18-4.56Q83.20-2.68 86.12-2.68L86.12-2.68Q88.76-2.68 90.54-4.02Q92.32-5.36 92.72-7.60L92.72-7.60L96.60-7.60Q96.20-5.32 94.82-3.52Q93.44-1.72 91.24-0.72Q89.04 0.28 86.28 0.28L86.28 0.28Q83.12 0.28 80.68-1.08Q78.24-2.44 76.86-4.98Q75.48-7.52 75.48-10.96L75.48-10.96Q75.48-14.40 76.86-16.96Q78.24-19.52 80.68-20.88Q83.12-22.24 86.28-22.24L86.28-22.24Q89.48-22.24 91.86-20.88Q94.24-19.52 95.50-17.24Q96.76-14.96 96.76-12.20L96.76-12.20ZM93.08-11.96Q93.20-14.40 92.28-16.04Q91.36-17.68 89.76-18.48Q88.16-19.28 86.28-19.28L86.28-19.28Q83.28-19.28 81.24-17.42Q79.20-15.56 79.04-11.96L79.04-11.96L93.08-11.96Z M114.52-22.24Q117.72-22.24 119.94-20.64Q122.16-19.04 123.04-16.36L123.04-16.36L123.04-21.96L126.68-21.96L126.68 0L123.04 0L123.04-5.60Q122.16-2.92 119.94-1.32Q117.72 0.28 114.52 0.28L114.52 0.28Q111.60 0.28 109.32-1.08Q107.04-2.44 105.74-4.98Q104.44-7.52 104.44-10.96L104.44-10.96Q104.44-14.40 105.74-16.96Q107.04-19.52 109.32-20.88Q111.60-22.24 114.52-22.24L114.52-22.24ZM115.56-19Q112.20-19 110.18-16.86Q108.16-14.72 108.16-10.96L108.16-10.96Q108.16-7.20 110.18-5.06Q112.20-2.92 115.56-2.92L115.56-2.92Q117.72-2.92 119.42-3.92Q121.12-4.92 122.08-6.74Q123.04-8.56 123.04-10.96L123.04-10.96Q123.04-13.36 122.08-15.20Q121.12-17.04 119.42-18.02Q117.72-19 115.56-19L115.56-19Z M143.36-22.24Q147.08-22.24 149.34-20.30Q151.60-18.36 152.08-15.08L152.08-15.08L148.60-15.08Q148.36-17.04 146.98-18.30Q145.60-19.56 143.28-19.56L143.28-19.56Q141.32-19.56 140.22-18.62Q139.12-17.68 139.12-16.08L139.12-16.08Q139.12-14.88 139.86-14.14Q140.60-13.40 141.70-13.02Q142.80-12.64 144.72-12.20L144.72-12.20Q147.16-11.64 148.66-11.06Q150.16-10.48 151.22-9.20Q152.28-7.92 152.28-5.76L152.28-5.76Q152.28-3.08 150.26-1.40Q148.24 0.28 144.88 0.28L144.88 0.28Q140.96 0.28 138.48-1.60Q136-3.48 135.56-6.84L135.56-6.84L139.08-6.84Q139.28-4.84 140.82-3.60Q142.36-2.36 144.88-2.36L144.88-2.36Q146.76-2.36 147.82-3.32Q148.88-4.28 148.88-5.84L148.88-5.84Q148.88-7.12 148.12-7.88Q147.36-8.64 146.24-9.04Q145.12-9.44 143.16-9.88L143.16-9.88Q140.72-10.44 139.26-11Q137.80-11.56 136.78-12.78Q135.76-14 135.76-16.08L135.76-16.08Q135.76-18.84 137.80-20.54Q139.84-22.24 143.36-22.24L143.36-22.24Z M172.72-22.32Q176.56-22.32 178.92-19.86Q181.28-17.40 181.28-12.76L181.28-12.76L181.28 0L177.64 0L177.64-12.44Q177.64-15.72 175.96-17.48Q174.28-19.24 171.40-19.24L171.40-19.24Q168.40-19.24 166.60-17.30Q164.80-15.36 164.80-11.64L164.80-11.64L164.80 0L161.16 0L161.16-29.60L164.80-29.60L164.80-16.76Q165.64-19.44 167.78-20.88Q169.92-22.32 172.72-22.32L172.72-22.32Z M202.20-21.96L206.28-21.96L213.40-4.68L220-21.96L224.04-21.96L211 10.40L206.88 10.40L211.44-0.36L202.20-21.96Z M241.32-22.24Q244.48-22.24 246.98-20.88Q249.48-19.52 250.90-16.96Q252.32-14.40 252.32-10.96L252.32-10.96Q252.32-7.52 250.90-4.98Q249.48-2.44 246.98-1.08Q244.48 0.28 241.32 0.28L241.32 0.28Q238.16 0.28 235.66-1.08Q233.16-2.44 231.72-4.98Q230.28-7.52 230.28-10.96L230.28-10.96Q230.28-14.40 231.72-16.96Q233.16-19.52 235.66-20.88Q238.16-22.24 241.32-22.24L241.32-22.24ZM241.32-19.04Q239.36-19.04 237.70-18.16Q236.04-17.28 235.02-15.46Q234-13.64 234-10.96L234-10.96Q234-8.32 235.02-6.50Q236.04-4.68 237.70-3.80Q239.36-2.92 241.32-2.92L241.32-2.92Q243.28-2.92 244.94-3.80Q246.60-4.68 247.62-6.50Q248.64-8.32 248.64-10.96L248.64-10.96Q248.64-13.64 247.62-15.46Q246.60-17.28 244.94-18.16Q243.28-19.04 241.32-19.04L241.32-19.04Z M276.96-21.96L280.60-21.96L280.60 0L276.96 0L276.96-5.16Q276.12-2.48 273.98-1.06Q271.84 0.36 269.00 0.36L269.00 0.36Q265.20 0.36 262.84-2.10Q260.48-4.56 260.48-9.16L260.48-9.16L260.48-21.96L264.12-21.96L264.12-9.52Q264.12-6.24 265.80-4.46Q267.48-2.68 270.36-2.68L270.36-2.68Q273.36-2.68 275.16-4.62Q276.96-6.56 276.96-10.28L276.96-10.28L276.96-21.96Z M294.08-17.52Q295.16-19.80 297.24-21.06Q299.32-22.32 302.20-22.32L302.20-22.32L302.20-18.36L301.08-18.36Q298-18.36 296.04-16.78Q294.08-15.20 294.08-11.56L294.08-11.56L294.08 0L290.44 0L290.44-21.96L294.08-21.96L294.08-17.52Z M333.40-22.24Q337.60-22.24 340.36-20Q343.12-17.76 343.76-14L343.76-14L339.92-14Q339.52-16.36 337.74-17.70Q335.96-19.04 333.32-19.04L333.32-19.04Q331.40-19.04 329.82-18.16Q328.24-17.28 327.28-15.46Q326.32-13.64 326.32-10.96L326.32-10.96Q326.32-8.28 327.28-6.46Q328.24-4.64 329.82-3.76Q331.40-2.88 333.32-2.88L333.32-2.88Q335.96-2.88 337.74-4.24Q339.52-5.60 339.92-7.96L339.92-7.96L343.76-7.96Q343.12-4.16 340.36-1.94Q337.60 0.28 333.40 0.28L333.40 0.28Q330.24 0.28 327.80-1.08Q325.36-2.44 323.98-4.98Q322.60-7.52 322.60-10.96L322.60-10.96Q322.60-14.40 323.98-16.96Q325.36-19.52 327.80-20.88Q330.24-22.24 333.40-22.24L333.40-22.24Z M361.52-22.24Q364.72-22.24 366.94-20.64Q369.16-19.04 370.04-16.36L370.04-16.36L370.04-21.96L373.68-21.96L373.68 0L370.04 0L370.04-5.60Q369.16-2.92 366.94-1.32Q364.72 0.28 361.52 0.28L361.52 0.28Q358.60 0.28 356.32-1.08Q354.04-2.44 352.74-4.98Q351.44-7.52 351.44-10.96L351.44-10.96Q351.44-14.40 352.74-16.96Q354.04-19.52 356.32-20.88Q358.60-22.24 361.52-22.24L361.52-22.24ZM362.56-19Q359.20-19 357.18-16.86Q355.16-14.72 355.16-10.96L355.16-10.96Q355.16-7.20 357.18-5.06Q359.20-2.92 362.56-2.92L362.56-2.92Q364.72-2.92 366.42-3.92Q368.12-4.92 369.08-6.74Q370.04-8.56 370.04-10.96L370.04-10.96Q370.04-13.36 369.08-15.20Q368.12-17.04 366.42-18.02Q364.72-19 362.56-19L362.56-19Z M387.12-17.52Q388.20-19.80 390.28-21.06Q392.36-22.32 395.24-22.32L395.24-22.32L395.24-18.36L394.12-18.36Q391.04-18.36 389.08-16.78Q387.12-15.20 387.12-11.56L387.12-11.56L387.12 0L383.48 0L383.48-21.96L387.12-21.96L387.12-17.52Z M401.60-31.88L405.08-31.88L404.60-23.92L402.08-23.92L401.60-31.88Z M420.56-22.24Q424.28-22.24 426.54-20.30Q428.80-18.36 429.28-15.08L429.28-15.08L425.80-15.08Q425.56-17.04 424.18-18.30Q422.80-19.56 420.48-19.56L420.48-19.56Q418.52-19.56 417.42-18.62Q416.32-17.68 416.32-16.08L416.32-16.08Q416.32-14.88 417.06-14.14Q417.80-13.40 418.90-13.02Q420.00-12.64 421.92-12.20L421.92-12.20Q424.36-11.64 425.86-11.06Q427.36-10.48 428.42-9.20Q429.48-7.92 429.48-5.76L429.48-5.76Q429.48-3.08 427.46-1.40Q425.44 0.28 422.08 0.28L422.08 0.28Q418.16 0.28 415.68-1.60Q413.20-3.48 412.76-6.84L412.76-6.84L416.28-6.84Q416.48-4.84 418.02-3.60Q419.56-2.36 422.08-2.36L422.08-2.36Q423.96-2.36 425.02-3.32Q426.08-4.28 426.08-5.84L426.08-5.84Q426.08-7.12 425.32-7.88Q424.56-8.64 423.44-9.04Q422.32-9.44 420.36-9.88L420.36-9.88Q417.92-10.44 416.46-11Q415.00-11.56 413.98-12.78Q412.96-14 412.96-16.08L412.96-16.08Q412.96-18.84 415.00-20.54Q417.04-22.24 420.56-22.24L420.56-22.24Z M464.36-22.24Q467.28-22.24 469.56-20.88Q471.84-19.52 473.14-16.96Q474.44-14.40 474.44-10.96L474.44-10.96Q474.44-7.52 473.14-4.98Q471.84-2.44 469.56-1.08Q467.28 0.28 464.36 0.28L464.36 0.28Q461.16 0.28 458.94-1.34Q456.72-2.96 455.88-5.60L455.88-5.60L455.88 10.40L452.24 10.40L452.24-21.96L455.88-21.96L455.88-16.36Q456.72-19 458.94-20.62Q461.16-22.24 464.36-22.24L464.36-22.24ZM463.32-19Q461.20-19 459.48-18.02Q457.76-17.04 456.80-15.20Q455.84-13.36 455.84-10.96L455.84-10.96Q455.84-8.56 456.80-6.74Q457.76-4.92 459.48-3.92Q461.20-2.92 463.32-2.92L463.32-2.92Q466.72-2.92 468.74-5.06Q470.76-7.20 470.76-10.96L470.76-10.96Q470.76-14.72 468.74-16.86Q466.72-19 463.32-19L463.32-19Z M493.16-22.24Q496.32-22.24 498.82-20.88Q501.32-19.52 502.74-16.96Q504.16-14.40 504.16-10.96L504.16-10.96Q504.16-7.52 502.74-4.98Q501.32-2.44 498.82-1.08Q496.32 0.28 493.16 0.28L493.16 0.28Q490.00 0.28 487.50-1.08Q485.00-2.44 483.56-4.98Q482.12-7.52 482.12-10.96L482.12-10.96Q482.12-14.40 483.56-16.96Q485.00-19.52 487.50-20.88Q490.00-22.24 493.16-22.24L493.16-22.24ZM493.16-19.04Q491.20-19.04 489.54-18.16Q487.88-17.28 486.86-15.46Q485.84-13.64 485.84-10.96L485.84-10.96Q485.84-8.32 486.86-6.50Q487.88-4.68 489.54-3.80Q491.20-2.92 493.16-2.92L493.16-2.92Q495.12-2.92 496.78-3.80Q498.44-4.68 499.46-6.50Q500.48-8.32 500.48-10.96L500.48-10.96Q500.48-13.64 499.46-15.46Q498.44-17.28 496.78-18.16Q495.12-19.04 493.16-19.04L493.16-19.04Z M521.16-3.20L523.40-3.20L523.40 0L520.68 0Q517.32 0 515.66-1.60Q514.00-3.20 514.00-6.96L514.00-6.96L514.00-18.80L510.72-18.80L510.72-21.96L514.00-21.96L514.00-27.44L517.68-27.44L517.68-21.96L523.36-21.96L523.36-18.80L517.68-18.80L517.68-6.88Q517.68-4.76 518.46-3.98Q519.24-3.20 521.16-3.20L521.16-3.20Z M552.04-12.20Q552.04-11.04 551.88-10.20L551.88-10.20L534.32-10.20Q534.44-6.44 536.46-4.56Q538.48-2.68 541.40-2.68L541.40-2.68Q544.04-2.68 545.82-4.02Q547.60-5.36 548.00-7.60L548.00-7.60L551.88-7.60Q551.48-5.32 550.10-3.52Q548.72-1.72 546.52-0.72Q544.32 0.28 541.56 0.28L541.56 0.28Q538.40 0.28 535.96-1.08Q533.52-2.44 532.14-4.98Q530.76-7.52 530.76-10.96L530.76-10.96Q530.76-14.40 532.14-16.96Q533.52-19.52 535.96-20.88Q538.40-22.24 541.56-22.24L541.56-22.24Q544.76-22.24 547.14-20.88Q549.52-19.52 550.78-17.24Q552.04-14.96 552.04-12.20L552.04-12.20ZM548.36-11.96Q548.48-14.40 547.56-16.04Q546.64-17.68 545.04-18.48Q543.44-19.28 541.56-19.28L541.56-19.28Q538.56-19.28 536.52-17.42Q534.48-15.56 534.32-11.96L534.32-11.96L548.36-11.96Z M572.36-22.32Q576.20-22.32 578.56-19.86Q580.92-17.40 580.92-12.76L580.92-12.76L580.92 0L577.28 0L577.28-12.44Q577.28-15.72 575.60-17.48Q573.92-19.24 571.04-19.24L571.04-19.24Q568.04-19.24 566.24-17.30Q564.44-15.36 564.44-11.64L564.44-11.64L564.44 0L560.80 0L560.80-21.96L564.44-21.96L564.44-16.76Q565.28-19.44 567.42-20.88Q569.56-22.32 572.36-22.32L572.36-22.32Z M598.76-3.20L601.00-3.20L601.00 0L598.28 0Q594.92 0 593.26-1.60Q591.60-3.20 591.60-6.96L591.60-6.96L591.60-18.80L588.32-18.80L588.32-21.96L591.60-21.96L591.60-27.44L595.28-27.44L595.28-21.96L600.96-21.96L600.96-18.80L595.28-18.80L595.28-6.88Q595.28-4.76 596.06-3.98Q596.84-3.20 598.76-3.20L598.76-3.20Z M608.80-28.40Q608.80-29.40 609.48-30.02Q610.16-30.64 611.28-30.64L611.28-30.64Q612.40-30.64 613.08-30.02Q613.76-29.40 613.76-28.40L613.76-28.40Q613.76-27.40 613.08-26.78Q612.40-26.16 611.28-26.16L611.28-26.16Q610.16-26.16 609.48-26.78Q608.80-27.40 608.80-28.40L608.80-28.40ZM609.44-21.96L613.08-21.96L613.08 0L609.44 0L609.44-21.96Z M631.92-22.24Q635.12-22.24 637.34-20.64Q639.56-19.04 640.44-16.36L640.44-16.36L640.44-21.96L644.08-21.96L644.08 0L640.44 0L640.44-5.60Q639.56-2.92 637.34-1.32Q635.12 0.28 631.92 0.28L631.92 0.28Q629.00 0.28 626.72-1.08Q624.44-2.44 623.14-4.98Q621.84-7.52 621.84-10.96L621.84-10.96Q621.84-14.40 623.14-16.96Q624.44-19.52 626.72-20.88Q629.00-22.24 631.92-22.24L631.92-22.24ZM632.96-19Q629.60-19 627.58-16.86Q625.56-14.72 625.56-10.96L625.56-10.96Q625.56-7.20 627.58-5.06Q629.60-2.92 632.96-2.92L632.96-2.92Q635.12-2.92 636.82-3.92Q638.52-4.92 639.48-6.74Q640.44-8.56 640.44-10.96L640.44-10.96Q640.44-13.36 639.48-15.20Q638.52-17.04 636.82-18.02Q635.12-19 632.96-19L632.96-19Z M653.88-29.60L657.52-29.60L657.52 0L653.88 0L653.88-29.60Z M665.64-4.28L670.04-4.28L670.04 0L665.64 0L665.64-4.28Z"/></g>
</svg>
</g><g opacity="1" transform="rotate(0 212.0883 321)">
<svg width="368.5933" height="60" x="212.0883" y="321" version="1.1" preserveAspectRatio="none" viewBox="1.2 -29.6 183.56 29.88">
  <g transform="matrix(1 0 0 1 0 0)" class="companyName"><path id="id-D6z1nYkh8" d="M12.44-22.60Q16.76-22.60 19.68-20.22Q22.60-17.84 23.36-13.68L23.36-13.68L16.12-13.68Q15.80-15.12 14.80-15.92Q13.80-16.72 12.28-16.72L12.28-16.72Q10.48-16.72 9.32-15.30Q8.16-13.88 8.16-11.16L8.16-11.16Q8.16-8.44 9.32-7.02Q10.48-5.60 12.28-5.60L12.28-5.60Q13.80-5.60 14.80-6.40Q15.80-7.20 16.12-8.64L16.12-8.64L23.36-8.64Q22.60-4.48 19.68-2.10Q16.76 0.28 12.44 0.28L12.44 0.28Q9.16 0.28 6.62-1.10Q4.08-2.48 2.64-5.08Q1.20-7.68 1.20-11.16L1.20-11.16Q1.20-14.68 2.62-17.26Q4.04-19.84 6.60-21.22Q9.16-22.60 12.44-22.60L12.44-22.60Z M36.20-22.60Q38.76-22.60 40.60-21.44Q42.44-20.28 43.32-18.28L43.32-18.28L43.32-22.32L50.12-22.32L50.12 0L43.32 0L43.32-4.04Q42.44-2.04 40.60-0.88Q38.76 0.28 36.20 0.28L36.20 0.28Q33.44 0.28 31.26-1.10Q29.08-2.48 27.82-5.08Q26.56-7.68 26.56-11.16L26.56-11.16Q26.56-14.68 27.82-17.26Q29.08-19.84 31.26-21.22Q33.44-22.60 36.20-22.60L36.20-22.60ZM38.40-16.60Q36.20-16.60 34.86-15.16Q33.52-13.72 33.52-11.16L33.52-11.16Q33.52-8.60 34.86-7.16Q36.20-5.72 38.40-5.72L38.40-5.72Q40.56-5.72 41.94-7.20Q43.32-8.68 43.32-11.16L43.32-11.16Q43.32-13.68 41.94-15.14Q40.56-16.60 38.40-16.60L38.40-16.60Z M62.48-18.12Q63.76-20.16 65.78-21.36Q67.80-22.56 70.16-22.56L70.16-22.56L70.16-15.24L68.20-15.24Q65.48-15.24 63.98-14.08Q62.48-12.92 62.48-10.16L62.48-10.16L62.48 0L55.64 0L55.64-22.32L62.48-22.32L62.48-18.12Z M81.96-22.60Q86.20-22.60 88.74-20.48Q91.28-18.36 91.92-14.88L91.92-14.88L85.52-14.88Q85.24-16.24 84.26-17.02Q83.28-17.80 81.80-17.80L81.80-17.80Q80.64-17.80 80.04-17.30Q79.44-16.80 79.44-15.88L79.44-15.88Q79.44-14.84 80.54-14.32Q81.64-13.80 84-13.28L84-13.28Q86.56-12.68 88.20-12.06Q89.84-11.44 91.04-10.04Q92.24-8.64 92.24-6.28L92.24-6.28Q92.24-4.36 91.20-2.88Q90.16-1.40 88.20-0.56Q86.24 0.28 83.56 0.28L83.56 0.28Q79.04 0.28 76.32-1.72Q73.60-3.72 73-7.44L73-7.44L79.60-7.44Q79.76-6 80.82-5.24Q81.88-4.48 83.56-4.48L83.56-4.48Q84.72-4.48 85.32-5.02Q85.92-5.56 85.92-6.44L85.92-6.44Q85.92-7.60 84.82-8.10Q83.72-8.60 81.24-9.16L81.24-9.16Q78.76-9.68 77.16-10.28Q75.56-10.88 74.40-12.22Q73.24-13.56 73.24-15.88L73.24-15.88Q73.24-18.88 75.52-20.74Q77.80-22.60 81.96-22.60L81.96-22.60Z M119.80-22.56Q123.64-22.56 125.90-20Q128.16-17.44 128.16-12.96L128.16-12.96L128.16 0L121.32 0L121.32-12.16Q121.32-14.40 120.14-15.66Q118.96-16.92 117-16.92L117-16.92Q114.92-16.92 113.70-15.60Q112.48-14.28 112.48-11.84L112.48-11.84L112.48 0L105.64 0L105.64-29.60L112.48-29.60L112.48-18.24Q113.44-20.24 115.34-21.40Q117.24-22.56 119.80-22.56L119.80-22.56Z M148.80-22.32L155.68-22.32L155.68 0L148.80 0L148.80-4.04Q147.84-2.08 145.94-0.92Q144.04 0.24 141.52 0.24L141.52 0.24Q137.68 0.24 135.42-2.32Q133.16-4.88 133.16-9.36L133.16-9.36L133.16-22.32L139.96-22.32L139.96-10.20Q139.96-7.92 141.14-6.66Q142.32-5.40 144.32-5.40L144.32-5.40Q146.40-5.40 147.60-6.72Q148.80-8.04 148.80-10.48L148.80-10.48L148.80-22.32Z M175.12-22.60Q177.88-22.60 180.06-21.22Q182.24-19.84 183.50-17.26Q184.76-14.68 184.76-11.16L184.76-11.16Q184.76-7.68 183.50-5.08Q182.24-2.48 180.06-1.10Q177.88 0.28 175.12 0.28L175.12 0.28Q172.56 0.28 170.72-0.88Q168.88-2.04 168.04-4.04L168.04-4.04L168.04 0L161.20 0L161.20-29.60L168.04-29.60L168.04-18.28Q168.88-20.28 170.72-21.44Q172.56-22.60 175.12-22.60L175.12-22.60ZM172.92-16.60Q170.76-16.60 169.38-15.14Q168.00-13.68 168.00-11.16L168.00-11.16Q168.00-8.68 169.38-7.20Q170.76-5.72 172.92-5.72L172.92-5.72Q175.12-5.72 176.46-7.16Q177.80-8.60 177.80-11.16L177.80-11.16Q177.80-13.72 176.46-15.16Q175.12-16.60 172.92-16.60L172.92-16.60Z"/></g>
</svg>
</g></svg></svg>