<svg version="1.1" preserveAspectRatio="none" xmlns="http://www.w3.org/2000/svg" width="500" height="500" viewBox="0 0 500 500"><rect width="100%" height="100%" fill="#FFEB62" fill-opacity="1"/><svg viewBox="58.2282 331.9011 389.4862 295.8042" width="333" height="252.9044638808769" x="83.5px" y="123.5478px" xmlns="http://www.w3.org/2000/svg" xmlns:xlink="http://www.w3.org/1999/xlink" preserveAspectRatio="none"><defs></defs><style>.companyName {fill:#262626;fill-opacity:1;}.icon1 {fill:#262626;fill-opacity:1;}.icon2 {fill:#FF7B04;fill-opacity:1;}.icon3 {fill:#928B53;fill-opacity:1;}.icon3-str {stroke:#928B53;stroke-opacity:1;}.text {fill:#262626;fill-opacity:1;}</style><g opacity="1" transform="rotate(0 63.3198 331.9011)">
<svg width="379.303" height="166.8042" x="63.3198" y="331.9011" version="1.1" preserveAspectRatio="none" viewBox="9.100000381469727 37.64400863647461 101.99999237060547 44.85599136352539">
  <g transform="matrix(1 0 0 1 0 0)" class="icon1"><path d="M109.4,67.3h-3.6v-3.5c0-8.6-9.2-14.8-22-14.8h-7.5l-4.4-8.6c-0.3-0.5-0.8-0.9-1.3-1c-23.3-5.3-37.5,2.6-44,7.8  C19.8,52.6,15.5,60,14.8,67.3h-3.7c-1.1,0-2,0.9-2,2c0,1.1,0.9,2,2,2h14.4c0,0.3,0,0.7,0,1c0,5.6,4.6,10.2,10.1,10.2  c5.6,0,10.2-4.5,10.2-10.2c0-0.3,0-0.7,0-1h29.4c0,0.3,0,0.7,0,1c0,5.6,4.6,10.2,10.2,10.2c5.6,0,10.1-4.5,10.1-10.2  c0-0.3,0-0.7,0-1h13.6c1.1,0,2-0.9,2-2C110.9,68.2,110.5,67.3,109.4,67.3z M68.7,43l3.1,6H30.9C37.3,44.5,49.6,39,68.7,43z   M35.6,78.4c-3.4,0-6.1-2.8-6.1-6.2c0-0.3,0-0.7,0.1-1c0.5-2.9,3-5.1,6.1-5.1s5.6,2.2,6.1,5.1c0.1,0.3,0.1,0.7,0.1,1  C41.8,75.6,39,78.4,35.6,78.4z M44.4,67.3c-0.2-0.4-0.5-0.7-0.7-1.1c0,0,0,0,0-0.1c-0.2-0.3-0.5-0.6-0.7-0.9c0,0-0.1-0.1-0.1-0.1  c-0.3-0.3-0.6-0.5-0.9-0.8c-0.1-0.1-0.1-0.1-0.2-0.2c-0.3-0.2-0.6-0.4-0.9-0.6c0,0-0.1,0-0.1-0.1c-1.5-0.9-3.3-1.4-5.2-1.4  c-3.8,0-7.1,2.1-8.8,5.1h-2.1C26,62.5,30.4,59,35.6,59s9.5,3.5,10.9,8.3H44.4z M85.2,78.4c-3.4,0-6.2-2.8-6.2-6.2c0-0.3,0-0.7,0.1-1  c0.5-2.9,3-5.1,6.1-5.1c3,0,5.6,2.2,6.1,5.1c0.1,0.3,0.1,0.7,0.1,1C91.4,75.6,88.6,78.4,85.2,78.4z M94,67.3c-1.8-3.1-5-5.1-8.8-5.1  c-1.5,0-2.8,0.3-4.1,0.9c0,0-0.1,0-0.1,0.1c-0.3,0.1-0.5,0.3-0.8,0.4c-0.2,0.1-0.4,0.3-0.6,0.4c0,0,0,0-0.1,0  c-0.2,0.1-0.3,0.2-0.4,0.3c-1.1,0.8-2.1,1.9-2.8,3.1h-2C75.6,62.5,80,59,85.2,59c5.2,0,9.5,3.5,10.9,8.3H94z M101.8,67.3h-1.7  c-1.4-7-7.6-12.3-15-12.3c-7.4,0-13.6,5.3-15,12.3H50.5c-1.4-7-7.6-12.3-15-12.3c-7.4,0-13.6,5.3-15,12.3h-1.7  c0.6-5,3.2-10,7.3-14.3h57.7c10.4,0,18,4.5,18,10.8V67.3z"></path></g>
</svg>
</g><g opacity="1" transform="rotate(0 58.2282 605.7053)">
<svg width="389.4862" height="22" x="58.2282" y="605.7053" version="1.1" preserveAspectRatio="none" viewBox="3.52 -30.88 689.04 38.92">
  <g transform="matrix(1 0 0 1 0 0)" class="text"><path id="id-6izo4zJp29" d="M15.80 0.40Q10 0.40 6.76-2.86Q3.52-6.12 3.52-12.20L3.52-12.20L3.52-28L8.72-28L8.72-12.40Q8.72-4.16 15.84-4.16L15.84-4.16Q22.92-4.16 22.92-12.40L22.92-12.40L22.92-28L28.04-28L28.04-12.20Q28.04-6.12 24.82-2.86Q21.60 0.40 15.80 0.40L15.80 0.40Z M50.96-21.60Q55-21.60 57.44-19.24Q59.88-16.88 59.88-12.24L59.88-12.24L59.88 0L54.88 0L54.88-11.60Q54.88-14.40 53.56-15.82Q52.24-17.24 49.80-17.24L49.80-17.24Q47.04-17.24 45.44-15.58Q43.84-13.92 43.84-10.80L43.84-10.80L43.84 0L38.84 0L38.84-21.36L43.60-21.36L43.60-18.60Q44.84-20.08 46.72-20.84Q48.60-21.60 50.96-21.60L50.96-21.60Z M70.24 0L70.24-29.68L75.24-29.68L75.24 0L70.24 0Z M105.88-10.56Q105.88-10.04 105.80-9.08L105.80-9.08L89.04-9.08Q89.48-6.72 91.34-5.34Q93.20-3.96 95.96-3.96L95.96-3.96Q99.48-3.96 101.76-6.28L101.76-6.28L104.44-3.20Q103.00-1.48 100.80-0.60Q98.60 0.28 95.84 0.28L95.84 0.28Q92.32 0.28 89.64-1.12Q86.96-2.52 85.50-5.02Q84.04-7.52 84.04-10.68L84.04-10.68Q84.04-13.80 85.46-16.30Q86.88-18.80 89.40-20.20Q91.92-21.60 95.08-21.60L95.08-21.60Q98.20-21.60 100.66-20.22Q103.12-18.84 104.50-16.34Q105.88-13.84 105.88-10.56L105.88-10.56ZM95.08-17.60Q92.68-17.60 91.02-16.18Q89.36-14.76 89.00-12.40L89.00-12.40L101.12-12.40Q100.80-14.72 99.16-16.16Q97.52-17.60 95.08-17.60L95.08-17.60Z M122.24-21.60Q126.96-21.60 129.46-19.34Q131.96-17.08 131.96-12.52L131.96-12.52L131.96 0L127.24 0L127.24-2.60Q126.32-1.20 124.62-0.46Q122.92 0.28 120.52 0.28L120.52 0.28Q118.12 0.28 116.32-0.54Q114.52-1.36 113.54-2.82Q112.56-4.28 112.56-6.12L112.56-6.12Q112.56-9 114.70-10.74Q116.84-12.48 121.44-12.48L121.44-12.48L126.96-12.48L126.96-12.80Q126.96-15.04 125.62-16.24Q124.28-17.44 121.64-17.44L121.64-17.44Q119.84-17.44 118.10-16.88Q116.36-16.32 115.16-15.32L115.16-15.32L113.20-18.96Q114.88-20.24 117.24-20.92Q119.60-21.60 122.24-21.60L122.24-21.60ZM121.56-3.36Q123.44-3.36 124.90-4.22Q126.36-5.08 126.96-6.68L126.96-6.68L126.96-9.16L121.80-9.16Q117.48-9.16 117.48-6.32L117.48-6.32Q117.48-4.96 118.56-4.16Q119.64-3.36 121.56-3.36L121.56-3.36Z M148.96 0.28Q146.36 0.28 143.88-0.40Q141.40-1.08 139.92-2.12L139.92-2.12L141.84-5.92Q143.28-4.96 145.30-4.38Q147.32-3.80 149.28-3.80L149.28-3.80Q153.76-3.80 153.76-6.16L153.76-6.16Q153.76-7.28 152.62-7.72Q151.48-8.16 148.96-8.56L148.96-8.56Q146.32-8.96 144.66-9.48Q143-10 141.78-11.30Q140.56-12.60 140.56-14.92L140.56-14.92Q140.56-17.96 143.10-19.78Q145.64-21.60 149.96-21.60L149.96-21.60Q152.16-21.60 154.36-21.10Q156.56-20.60 157.96-19.76L157.96-19.76L156.04-15.96Q153.32-17.56 149.92-17.56L149.92-17.56Q147.72-17.56 146.58-16.90Q145.44-16.24 145.44-15.16L145.44-15.16Q145.44-13.96 146.66-13.46Q147.88-12.96 150.44-12.52L150.44-12.52Q153-12.12 154.64-11.60Q156.28-11.08 157.46-9.84Q158.64-8.60 158.64-6.32L158.64-6.32Q158.64-3.32 156.04-1.52Q153.44 0.28 148.96 0.28L148.96 0.28Z M179.08-21.60Q183.12-21.60 185.56-19.24Q188-16.88 188-12.24L188-12.24L188 0L183 0L183-11.60Q183-14.40 181.68-15.82Q180.36-17.24 177.92-17.24L177.92-17.24Q175.16-17.24 173.56-15.58Q171.96-13.92 171.96-10.80L171.96-10.80L171.96 0L166.96 0L166.96-29.68L171.96-29.68L171.96-18.88Q173.20-20.20 175.02-20.90Q176.84-21.60 179.08-21.60L179.08-21.60Z M228.60-21.36L233.40-21.36L223.40 1.72Q222 5.20 220 6.62Q218 8.04 215.16 8.04L215.16 8.04Q213.56 8.04 212 7.52Q210.44 7 209.44 6.08L209.44 6.08L211.44 2.40Q212.16 3.08 213.14 3.48Q214.12 3.88 215.12 3.88L215.12 3.88Q216.44 3.88 217.30 3.20Q218.16 2.52 218.88 0.92L218.88 0.92L219.24 0.08L209.92-21.36L215.12-21.36L221.84-5.56L228.60-21.36Z M249.52 0.28Q246.28 0.28 243.68-1.12Q241.08-2.52 239.62-5.02Q238.16-7.52 238.16-10.68L238.16-10.68Q238.16-13.84 239.62-16.32Q241.08-18.80 243.68-20.20Q246.28-21.60 249.52-21.60L249.52-21.60Q252.80-21.60 255.40-20.20Q258-18.80 259.46-16.32Q260.92-13.84 260.92-10.68L260.92-10.68Q260.92-7.52 259.46-5.02Q258-2.52 255.40-1.12Q252.80 0.28 249.52 0.28L249.52 0.28ZM249.52-4Q252.28-4 254.08-5.84Q255.88-7.68 255.88-10.68L255.88-10.68Q255.88-13.68 254.08-15.52Q252.28-17.36 249.52-17.36L249.52-17.36Q246.76-17.36 244.98-15.52Q243.20-13.68 243.20-10.68L243.20-10.68Q243.20-7.68 244.98-5.84Q246.76-4 249.52-4L249.52-4Z M285.40-21.36L290.40-21.36L290.40 0L285.64 0L285.64-2.72Q284.44-1.28 282.64-0.50Q280.84 0.28 278.76 0.28L278.76 0.28Q274.48 0.28 272.02-2.10Q269.56-4.48 269.56-9.16L269.56-9.16L269.56-21.36L274.56-21.36L274.56-9.84Q274.56-6.96 275.86-5.54Q277.16-4.12 279.56-4.12L279.56-4.12Q282.24-4.12 283.82-5.78Q285.40-7.44 285.40-10.56L285.40-10.56L285.40-21.36Z M305.72-18.24Q307.88-21.60 313.32-21.60L313.32-21.60L313.32-16.84Q312.68-16.96 312.16-16.96L312.16-16.96Q309.24-16.96 307.60-15.26Q305.96-13.56 305.96-10.36L305.96-10.36L305.96 0L300.96 0L300.96-21.36L305.72-21.36L305.72-18.24Z M346.60 0.28Q343.28 0.28 340.64-1.12Q338.00-2.52 336.52-5.02Q335.04-7.52 335.04-10.68L335.04-10.68Q335.04-13.84 336.52-16.32Q338.00-18.80 340.62-20.20Q343.24-21.60 346.60-21.60L346.60-21.60Q349.76-21.60 352.14-20.32Q354.52-19.04 355.72-16.64L355.72-16.64L351.88-14.40Q350.96-15.88 349.58-16.62Q348.20-17.36 346.56-17.36L346.56-17.36Q343.76-17.36 341.92-15.54Q340.08-13.72 340.08-10.68L340.08-10.68Q340.08-7.64 341.90-5.82Q343.72-4 346.56-4L346.56-4Q348.20-4 349.58-4.74Q350.96-5.48 351.88-6.96L351.88-6.96L355.72-4.72Q354.48-2.32 352.10-1.02Q349.72 0.28 346.60 0.28L346.60 0.28Z M372.20-21.60Q376.92-21.60 379.42-19.34Q381.92-17.08 381.92-12.52L381.92-12.52L381.92 0L377.20 0L377.20-2.60Q376.28-1.20 374.58-0.46Q372.88 0.28 370.48 0.28L370.48 0.28Q368.08 0.28 366.28-0.54Q364.48-1.36 363.50-2.82Q362.52-4.28 362.52-6.12L362.52-6.12Q362.52-9 364.66-10.74Q366.80-12.48 371.40-12.48L371.40-12.48L376.92-12.48L376.92-12.80Q376.92-15.04 375.58-16.24Q374.24-17.44 371.60-17.44L371.60-17.44Q369.80-17.44 368.06-16.88Q366.32-16.32 365.12-15.32L365.12-15.32L363.16-18.96Q364.84-20.24 367.20-20.92Q369.56-21.60 372.20-21.60L372.20-21.60ZM371.52-3.36Q373.40-3.36 374.86-4.22Q376.32-5.08 376.92-6.68L376.92-6.68L376.92-9.16L371.76-9.16Q367.44-9.16 367.44-6.32L367.44-6.32Q367.44-4.96 368.52-4.16Q369.60-3.36 371.52-3.36L371.52-3.36Z M397.08-18.24Q399.24-21.60 404.68-21.60L404.68-21.60L404.68-16.84Q404.04-16.96 403.52-16.96L403.52-16.96Q400.60-16.96 398.96-15.26Q397.32-13.56 397.32-10.36L397.32-10.36L397.32 0L392.32 0L392.32-21.36L397.08-21.36L397.08-18.24Z M412.40-16.92L412.08-28L416.40-28L416.04-16.92L412.40-16.92Z M432.52 0.28Q429.92 0.28 427.44-0.40Q424.96-1.08 423.48-2.12L423.48-2.12L425.40-5.92Q426.84-4.96 428.86-4.38Q430.88-3.80 432.84-3.80L432.84-3.80Q437.32-3.80 437.32-6.16L437.32-6.16Q437.32-7.28 436.18-7.72Q435.04-8.16 432.52-8.56L432.52-8.56Q429.88-8.96 428.22-9.48Q426.56-10 425.34-11.30Q424.12-12.60 424.12-14.92L424.12-14.92Q424.12-17.96 426.66-19.78Q429.20-21.60 433.52-21.60L433.52-21.60Q435.72-21.60 437.92-21.10Q440.12-20.60 441.52-19.76L441.52-19.76L439.60-15.96Q436.88-17.56 433.48-17.56L433.48-17.56Q431.28-17.56 430.14-16.90Q429.00-16.24 429.00-15.16L429.00-15.16Q429.00-13.96 430.22-13.46Q431.44-12.96 434.00-12.52L434.00-12.52Q436.56-12.12 438.20-11.60Q439.84-11.08 441.02-9.84Q442.20-8.60 442.20-6.32L442.20-6.32Q442.20-3.32 439.60-1.52Q437.00 0.28 432.52 0.28L432.52 0.28Z M477.40-21.60Q480.52-21.60 482.98-20.24Q485.44-18.88 486.84-16.40Q488.24-13.92 488.24-10.68L488.24-10.68Q488.24-7.44 486.84-4.94Q485.44-2.44 482.98-1.08Q480.52 0.28 477.40 0.28L477.40 0.28Q473.08 0.28 470.56-2.60L470.56-2.60L470.56 7.76L465.56 7.76L465.56-21.36L470.32-21.36L470.32-18.56Q471.56-20.08 473.38-20.84Q475.20-21.60 477.40-21.60L477.40-21.60ZM476.84-4Q479.60-4 481.38-5.84Q483.16-7.68 483.16-10.68L483.16-10.68Q483.16-13.68 481.38-15.52Q479.60-17.36 476.84-17.36L476.84-17.36Q475.04-17.36 473.60-16.54Q472.16-15.72 471.32-14.20Q470.48-12.68 470.48-10.68L470.48-10.68Q470.48-8.68 471.32-7.16Q472.16-5.64 473.60-4.82Q475.04-4 476.84-4L476.84-4Z M506.60 0.28Q503.36 0.28 500.76-1.12Q498.16-2.52 496.70-5.02Q495.24-7.52 495.24-10.68L495.24-10.68Q495.24-13.84 496.70-16.32Q498.16-18.80 500.76-20.20Q503.36-21.60 506.60-21.60L506.60-21.60Q509.88-21.60 512.48-20.20Q515.08-18.80 516.54-16.32Q518.00-13.84 518.00-10.68L518.00-10.68Q518.00-7.52 516.54-5.02Q515.08-2.52 512.48-1.12Q509.88 0.28 506.60 0.28L506.60 0.28ZM506.60-4Q509.36-4 511.16-5.84Q512.96-7.68 512.96-10.68L512.96-10.68Q512.96-13.68 511.16-15.52Q509.36-17.36 506.60-17.36L506.60-17.36Q503.84-17.36 502.06-15.52Q500.28-13.68 500.28-10.68L500.28-10.68Q500.28-7.68 502.06-5.84Q503.84-4 506.60-4L506.60-4Z M538.24-4.72L539.64-1.16Q538.76-0.44 537.50-0.08Q536.24 0.28 534.84 0.28L534.84 0.28Q531.32 0.28 529.40-1.56Q527.48-3.40 527.48-6.92L527.48-6.92L527.48-17.20L523.96-17.20L523.96-21.20L527.48-21.20L527.48-26.08L532.48-26.08L532.48-21.20L538.20-21.20L538.20-17.20L532.48-17.20L532.48-7.04Q532.48-5.48 533.24-4.66Q534.00-3.84 535.44-3.84L535.44-3.84Q537.12-3.84 538.24-4.72L538.24-4.72Z M567.12-10.56Q567.12-10.04 567.04-9.08L567.04-9.08L550.28-9.08Q550.72-6.72 552.58-5.34Q554.44-3.96 557.20-3.96L557.20-3.96Q560.72-3.96 563.00-6.28L563.00-6.28L565.68-3.20Q564.24-1.48 562.04-0.60Q559.84 0.28 557.08 0.28L557.08 0.28Q553.56 0.28 550.88-1.12Q548.20-2.52 546.74-5.02Q545.28-7.52 545.28-10.68L545.28-10.68Q545.28-13.80 546.70-16.30Q548.12-18.80 550.64-20.20Q553.16-21.60 556.32-21.60L556.32-21.60Q559.44-21.60 561.90-20.22Q564.36-18.84 565.74-16.34Q567.12-13.84 567.12-10.56L567.12-10.56ZM556.32-17.60Q553.92-17.60 552.26-16.18Q550.60-14.76 550.24-12.40L550.24-12.40L562.36-12.40Q562.04-14.72 560.40-16.16Q558.76-17.60 556.32-17.60L556.32-17.60Z M588.04-21.60Q592.08-21.60 594.52-19.24Q596.96-16.88 596.96-12.24L596.96-12.24L596.96 0L591.96 0L591.96-11.60Q591.96-14.40 590.64-15.82Q589.32-17.24 586.88-17.24L586.88-17.24Q584.12-17.24 582.52-15.58Q580.92-13.92 580.92-10.80L580.92-10.80L580.92 0L575.92 0L575.92-21.36L580.68-21.36L580.68-18.60Q581.92-20.08 583.80-20.84Q585.68-21.60 588.04-21.60L588.04-21.60Z M618.76-4.72L620.16-1.16Q619.28-0.44 618.02-0.08Q616.76 0.28 615.36 0.28L615.36 0.28Q611.84 0.28 609.92-1.56Q608.00-3.40 608.00-6.92L608.00-6.92L608.00-17.20L604.48-17.20L604.48-21.20L608.00-21.20L608.00-26.08L613.00-26.08L613.00-21.20L618.72-21.20L618.72-17.20L613.00-17.20L613.00-7.04Q613.00-5.48 613.76-4.66Q614.52-3.84 615.96-3.84L615.96-3.84Q617.64-3.84 618.76-4.72L618.76-4.72Z M628.28 0L628.28-21.36L633.28-21.36L633.28 0L628.28 0ZM630.80-24.88Q629.44-24.88 628.52-25.74Q627.60-26.60 627.60-27.88L627.60-27.88Q627.60-29.16 628.52-30.02Q629.44-30.88 630.80-30.88L630.80-30.88Q632.16-30.88 633.08-30.06Q634.00-29.24 634.00-28L634.00-28Q634.00-26.68 633.10-25.78Q632.20-24.88 630.80-24.88L630.80-24.88Z M652.00-21.60Q656.72-21.60 659.22-19.34Q661.72-17.08 661.72-12.52L661.72-12.52L661.72 0L657.00 0L657.00-2.60Q656.08-1.20 654.38-0.46Q652.68 0.28 650.28 0.28L650.28 0.28Q647.88 0.28 646.08-0.54Q644.28-1.36 643.30-2.82Q642.32-4.28 642.32-6.12L642.32-6.12Q642.32-9 644.46-10.74Q646.60-12.48 651.20-12.48L651.20-12.48L656.72-12.48L656.72-12.80Q656.72-15.04 655.38-16.24Q654.04-17.44 651.40-17.44L651.40-17.44Q649.60-17.44 647.86-16.88Q646.12-16.32 644.92-15.32L644.92-15.32L642.96-18.96Q644.64-20.24 647.00-20.92Q649.36-21.60 652.00-21.60L652.00-21.60ZM651.32-3.36Q653.20-3.36 654.66-4.22Q656.12-5.08 656.72-6.68L656.72-6.68L656.72-9.16L651.56-9.16Q647.24-9.16 647.24-6.32L647.24-6.32Q647.24-4.96 648.32-4.16Q649.40-3.36 651.32-3.36L651.32-3.36Z M672.12 0L672.12-29.68L677.12-29.68L677.12 0L672.12 0Z M689.28 0.28Q687.92 0.28 686.96-0.66Q686-1.60 686-3.04L686-3.04Q686-4.52 686.94-5.44Q687.88-6.36 689.28-6.36L689.28-6.36Q690.68-6.36 691.62-5.44Q692.56-4.52 692.56-3.04L692.56-3.04Q692.56-1.60 691.60-0.66Q690.64 0.28 689.28 0.28L689.28 0.28Z"/></g>
</svg>
</g><g opacity="1" transform="rotate(0 63.3198 538.7053)">
<svg width="379.303" height="50" x="63.3198" y="538.7053" version="1.1" preserveAspectRatio="none" viewBox="1.64 -28.64 222.12 29.28">
  <g transform="matrix(1 0 0 1 0 0)" class="companyName"><path id="id-D6z1nYkh8" d="M16 0.64Q11.72 0.64 8.46-0.94Q5.20-2.52 3.42-5.36Q1.64-8.20 1.64-11.88L1.64-11.88Q1.64-16.76 3.90-20.56Q6.16-24.36 10.18-26.50Q14.20-28.64 19.32-28.64L19.32-28.64Q23.36-28.64 26.48-27.18Q29.60-25.72 31.12-23.04L31.12-23.04L24.32-17.72Q22.44-21 18.72-21L18.72-21Q16.52-21 14.80-19.92Q13.08-18.84 12.12-16.90Q11.16-14.96 11.16-12.48L11.16-12.48Q11.16-10 12.74-8.50Q14.32-7 16.92-7L16.92-7Q20.48-7 23.16-10.24L23.16-10.24L28.72-4.92Q26.28-1.92 23.18-0.64Q20.08 0.64 16 0.64L16 0.64Z M50.76 0L49.84-4.88L39.16-4.88L36.36 0L26.40 0L44.24-28L53.52-28L60.16 0L50.76 0ZM43.04-11.68L48.52-11.68L47.16-18.84L43.04-11.68Z M91.48-18.80Q91.48-15.08 89.50-12.30Q87.52-9.52 83.92-8.16L83.92-8.16L88.60 0L78.80 0L74.84-7.04L72.52-7.04L71.12 0L61.68 0L67.28-28L79.84-28Q85.36-28 88.42-25.58Q91.48-23.16 91.48-18.80L91.48-18.80ZM81.92-17.88Q81.92-20.72 78.40-20.72L78.40-20.72L75.24-20.72L73.92-14.16L77.80-14.16Q79.76-14.16 80.84-15.14Q81.92-16.12 81.92-17.88L81.92-17.88Z M102.60 0.64Q98.96 0.64 95.76-0.14Q92.56-0.92 90.48-2.20L90.48-2.20L94.12-9.16Q98.64-6.56 103.56-6.56L103.56-6.56Q105.36-6.56 106.32-7Q107.28-7.44 107.28-8.20L107.28-8.20Q107.28-8.92 106.30-9.36Q105.32-9.80 103.20-10.32L103.20-10.32Q100.40-11.04 98.56-11.78Q96.72-12.52 95.34-14.06Q93.96-15.60 93.96-18.12L93.96-18.12Q93.96-21.28 95.66-23.66Q97.36-26.04 100.56-27.34Q103.76-28.64 108.12-28.64L108.12-28.64Q111.24-28.64 113.94-28.02Q116.64-27.40 118.60-26.24L118.60-26.24L115.20-19.36Q113.56-20.40 111.58-20.92Q109.60-21.44 107.52-21.44L107.52-21.44Q105.56-21.44 104.48-20.88Q103.40-20.32 103.40-19.56L103.40-19.56Q103.40-18.80 104.38-18.36Q105.36-17.92 107.60-17.40L107.60-17.40Q110.32-16.76 112.18-16.04Q114.04-15.32 115.40-13.80Q116.76-12.28 116.76-9.80L116.76-9.80Q116.76-6.68 115.04-4.32Q113.32-1.96 110.12-0.66Q106.92 0.64 102.60 0.64L102.60 0.64Z M153.52-28L162.96-28L157.36 0L147.92 0L150-10.32L141.28-10.32L139.20 0L129.76 0L135.36-28L144.80-28L142.80-18.08L151.52-18.08L153.52-28Z M176.04 0.64Q172.28 0.64 169.54-0.62Q166.80-1.88 165.34-4.20Q163.88-6.52 163.88-9.64L163.88-9.64Q163.88-10.92 164.20-12.60L164.20-12.60L167.28-28L176.72-28L173.68-12.76Q173.44-11.64 173.44-10.72L173.44-10.72Q173.44-8.84 174.40-7.92Q175.36-7 177.20-7L177.20-7Q179.28-7 180.44-8.32Q181.60-9.64 182.24-12.76L182.24-12.76L185.28-28L194.56-28L191.40-12.20Q190.12-5.84 186.28-2.60Q182.44 0.64 176.04 0.64L176.04 0.64Z M218.76-14.40Q220.56-13.60 221.54-12.22Q222.52-10.84 222.52-8.92L222.52-8.92Q222.52-4.48 218.86-2.24Q215.20 0 209.44 0L209.44 0L193.28 0L198.88-28L213.72-28Q218.64-28 221.20-26.26Q223.76-24.52 223.76-21.32L223.76-21.32Q223.76-18.96 222.44-17.18Q221.12-15.40 218.76-14.40L218.76-14.40ZM211.44-21.40L206.84-21.40L206-17.24L210.80-17.24Q213.92-17.24 213.92-19.68L213.92-19.68Q213.92-20.52 213.28-20.96Q212.64-21.40 211.44-21.40L211.44-21.40ZM209.96-6.60Q211.40-6.60 212.28-7.26Q213.16-7.92 213.16-9.16L213.16-9.16Q213.16-10.04 212.50-10.52Q211.84-11 210.84-11L210.84-11L204.76-11L203.88-6.60L209.96-6.60Z"/></g>
</svg>
</g></svg></svg>