<svg version="1.1" preserveAspectRatio="none" xmlns="http://www.w3.org/2000/svg" width="500" height="500" viewBox="0 0 500 500"><rect width="100%" height="100%" fill="#1E1F22" fill-opacity="1"/><svg viewBox="34.3107 264.5 437.3866 86" width="333" height="65.47525690087443" x="83.5px" y="217.2624px" xmlns="http://www.w3.org/2000/svg" xmlns:xlink="http://www.w3.org/1999/xlink" preserveAspectRatio="none"><defs></defs><style>.companyName {fill:#EBE7D9;fill-opacity:1;}.icon3 {fill:#F55139;fill-opacity:1;}.icon3-str {stroke:#F55139;stroke-opacity:1;}</style><g opacity="1" transform="rotate(0 34.3107 330.5)">
<svg width="313.2267" height="20" x="34.3107" y="330.5" version="1.1" preserveAspectRatio="none" viewBox="3.96 -30.28 599.52 38.28">
  <g transform="matrix(1 0 0 1 0 0)" class="icon3"><path id="id-6izo4zJp29" d="M15.80 0.32Q10.20 0.32 7.08-2.88Q3.96-6.08 3.96-12.08L3.96-12.08L3.96-28L7.96-28L7.96-12.24Q7.96-3.24 15.84-3.24L15.84-3.24Q19.68-3.24 21.72-5.46Q23.76-7.68 23.76-12.24L23.76-12.24L23.76-28L27.64-28L27.64-12.08Q27.64-6.04 24.52-2.86Q21.40 0.32 15.80 0.32L15.80 0.32Z M47.80-21.40Q51.84-21.40 54.22-19.06Q56.60-16.72 56.60-12.20L56.60-12.20L56.60 0L52.76 0L52.76-11.76Q52.76-14.84 51.28-16.40Q49.80-17.96 47.04-17.96L47.04-17.96Q43.92-17.96 42.12-16.14Q40.32-14.32 40.32-10.92L40.32-10.92L40.32 0L36.48 0L36.48-21.20L40.16-21.20L40.16-18Q41.32-19.64 43.30-20.52Q45.28-21.40 47.80-21.40L47.80-21.40Z M64.92 0L64.92-29.68L68.76-29.68L68.76 0L64.92 0Z M96.44-10.48Q96.44-10.04 96.36-9.32L96.36-9.32L79.16-9.32Q79.52-6.52 81.62-4.82Q83.72-3.12 86.84-3.12L86.84-3.12Q90.64-3.12 92.96-5.68L92.96-5.68L95.08-3.20Q93.64-1.52 91.50-0.64Q89.36 0.24 86.72 0.24L86.72 0.24Q83.36 0.24 80.76-1.14Q78.16-2.52 76.74-5Q75.32-7.48 75.32-10.60L75.32-10.60Q75.32-13.68 76.70-16.16Q78.08-18.64 80.50-20.02Q82.92-21.40 85.96-21.40L85.96-21.40Q89.00-21.40 91.38-20.02Q93.76-18.64 95.10-16.16Q96.44-13.68 96.44-10.48L96.44-10.48ZM85.96-18.16Q83.20-18.16 81.34-16.48Q79.48-14.80 79.16-12.08L79.16-12.08L92.76-12.08Q92.44-14.76 90.58-16.46Q88.72-18.16 85.96-18.16L85.96-18.16Z M110.08-21.40Q114.48-21.40 116.82-19.24Q119.16-17.08 119.16-12.80L119.16-12.80L119.16 0L115.52 0L115.52-2.80Q114.56-1.32 112.78-0.54Q111.00 0.24 108.56 0.24L108.56 0.24Q105.00 0.24 102.86-1.48Q100.72-3.20 100.72-6L100.72-6Q100.72-8.80 102.76-10.50Q104.80-12.20 109.24-12.20L109.24-12.20L115.32-12.20L115.32-12.96Q115.32-15.44 113.88-16.76Q112.44-18.08 109.64-18.08L109.64-18.08Q107.76-18.08 105.96-17.46Q104.16-16.84 102.92-15.80L102.92-15.80L101.32-18.68Q102.96-20 105.24-20.70Q107.52-21.40 110.08-21.40L110.08-21.40ZM109.20-2.72Q111.40-2.72 113.00-3.70Q114.60-4.68 115.32-6.48L115.32-6.48L115.32-9.44L109.40-9.44Q104.52-9.44 104.52-6.16L104.52-6.16Q104.52-4.56 105.76-3.64Q107.00-2.72 109.20-2.72L109.20-2.72Z M133.56 0.24Q130.96 0.24 128.56-0.46Q126.16-1.16 124.80-2.24L124.80-2.24L126.40-5.28Q127.80-4.28 129.80-3.68Q131.80-3.08 133.84-3.08L133.84-3.08Q138.88-3.08 138.88-5.96L138.88-5.96Q138.88-6.92 138.20-7.48Q137.52-8.04 136.50-8.30Q135.48-8.56 133.60-8.88L133.60-8.88Q131.04-9.28 129.42-9.80Q127.80-10.32 126.64-11.56Q125.48-12.80 125.48-15.04L125.48-15.04Q125.48-17.92 127.88-19.66Q130.28-21.40 134.32-21.40L134.32-21.40Q136.44-21.40 138.56-20.88Q140.68-20.36 142.04-19.48L142.04-19.48L140.40-16.44Q137.80-18.12 134.28-18.12L134.28-18.12Q131.84-18.12 130.56-17.32Q129.28-16.52 129.28-15.20L129.28-15.20Q129.28-14.16 130.00-13.56Q130.72-12.96 131.78-12.68Q132.84-12.40 134.76-12.04L134.76-12.04Q137.32-11.60 138.90-11.10Q140.48-10.60 141.60-9.40Q142.72-8.20 142.72-6.04L142.72-6.04Q142.72-3.16 140.26-1.46Q137.80 0.24 133.56 0.24L133.56 0.24Z M160.04-21.40Q164.08-21.40 166.46-19.06Q168.84-16.72 168.84-12.20L168.84-12.20L168.84 0L165 0L165-11.76Q165-14.84 163.52-16.40Q162.04-17.96 159.28-17.96L159.28-17.96Q156.16-17.96 154.36-16.14Q152.56-14.32 152.56-10.92L152.56-10.92L152.56 0L148.72 0L148.72-29.68L152.56-29.68L152.56-18.20Q153.76-19.72 155.70-20.56Q157.64-21.40 160.04-21.40L160.04-21.40Z M204.12-21.20L207.88-21.20L197.60 2.12Q196.24 5.36 194.42 6.68Q192.60 8 190.04 8L190.04 8Q188.48 8 187.02 7.50Q185.56 7 184.60 6.04L184.60 6.04L186.24 3.16Q187.88 4.72 190.04 4.72L190.04 4.72Q191.44 4.72 192.38 3.98Q193.32 3.24 194.08 1.44L194.08 1.44L194.76-0.04L185.40-21.20L189.40-21.20L196.80-4.24L204.12-21.20Z M221.16 0.24Q218.00 0.24 215.48-1.16Q212.96-2.56 211.54-5.02Q210.12-7.48 210.12-10.60L210.12-10.60Q210.12-13.72 211.54-16.18Q212.96-18.64 215.48-20.02Q218.00-21.40 221.16-21.40L221.16-21.40Q224.32-21.40 226.82-20.02Q229.32-18.64 230.74-16.18Q232.16-13.72 232.16-10.60L232.16-10.60Q232.16-7.48 230.74-5.02Q229.32-2.56 226.82-1.16Q224.32 0.24 221.16 0.24L221.16 0.24ZM221.16-3.12Q223.20-3.12 224.82-4.06Q226.44-5 227.36-6.70Q228.28-8.40 228.28-10.60L228.28-10.60Q228.28-12.80 227.36-14.50Q226.44-16.20 224.82-17.12Q223.20-18.04 221.16-18.04L221.16-18.04Q219.12-18.04 217.50-17.12Q215.88-16.20 214.94-14.50Q214.00-12.80 214.00-10.60L214.00-10.60Q214.00-8.40 214.94-6.70Q215.88-5 217.50-4.06Q219.12-3.12 221.16-3.12L221.16-3.12Z M254.60-21.20L258.44-21.20L258.44 0L254.80 0L254.80-3.20Q253.64-1.56 251.74-0.66Q249.84 0.24 247.60 0.24L247.60 0.24Q243.36 0.24 240.92-2.10Q238.48-4.44 238.48-9L238.48-9L238.48-21.20L242.32-21.20L242.32-9.44Q242.32-6.36 243.80-4.78Q245.28-3.20 248.04-3.20L248.04-3.20Q251.08-3.20 252.84-5.04Q254.60-6.88 254.60-10.24L254.60-10.24L254.60-21.20Z M270.64-17.64Q271.64-19.48 273.60-20.44Q275.56-21.40 278.36-21.40L278.36-21.40L278.36-17.68Q278.04-17.72 277.48-17.72L277.48-17.72Q274.36-17.72 272.58-15.86Q270.80-14 270.80-10.56L270.80-10.56L270.80 0L266.96 0L266.96-21.20L270.64-21.20L270.64-17.64Z M305.76 0.24Q302.52 0.24 299.98-1.16Q297.44-2.56 296.00-5.02Q294.56-7.48 294.56-10.60L294.56-10.60Q294.56-13.72 296.00-16.18Q297.44-18.64 299.98-20.02Q302.52-21.40 305.76-21.40L305.76-21.40Q308.64-21.40 310.90-20.24Q313.16-19.08 314.40-16.88L314.40-16.88L311.48-15Q310.48-16.52 309.00-17.28Q307.52-18.04 305.72-18.04L305.72-18.04Q303.64-18.04 301.98-17.12Q300.32-16.20 299.38-14.50Q298.44-12.80 298.44-10.60L298.44-10.60Q298.44-8.36 299.38-6.66Q300.32-4.96 301.98-4.04Q303.64-3.12 305.72-3.12L305.72-3.12Q307.52-3.12 309.00-3.88Q310.48-4.64 311.48-6.16L311.48-6.16L314.40-4.32Q313.16-2.12 310.90-0.94Q308.64 0.24 305.76 0.24L305.76 0.24Z M328.28-21.40Q332.68-21.40 335.02-19.24Q337.36-17.08 337.36-12.80L337.36-12.80L337.36 0L333.72 0L333.72-2.80Q332.76-1.32 330.98-0.54Q329.20 0.24 326.76 0.24L326.76 0.24Q323.20 0.24 321.06-1.48Q318.92-3.20 318.92-6L318.92-6Q318.92-8.80 320.96-10.50Q323.00-12.20 327.44-12.20L327.44-12.20L333.52-12.20L333.52-12.96Q333.52-15.44 332.08-16.76Q330.64-18.08 327.84-18.08L327.84-18.08Q325.96-18.08 324.16-17.46Q322.36-16.84 321.12-15.80L321.12-15.80L319.52-18.68Q321.16-20 323.44-20.70Q325.72-21.40 328.28-21.40L328.28-21.40ZM327.40-2.72Q329.60-2.72 331.20-3.70Q332.80-4.68 333.52-6.48L333.52-6.48L333.52-9.44L327.60-9.44Q322.72-9.44 322.72-6.16L322.72-6.16Q322.72-4.56 323.96-3.64Q325.20-2.72 327.40-2.72L327.40-2.72Z M349.36-17.64Q350.36-19.48 352.32-20.44Q354.28-21.40 357.08-21.40L357.08-21.40L357.08-17.68Q356.76-17.72 356.20-17.72L356.20-17.72Q353.08-17.72 351.30-15.86Q349.52-14 349.52-10.56L349.52-10.56L349.52 0L345.68 0L345.68-21.20L349.36-21.20L349.36-17.64Z M362.40-17.20L362.16-28L365.52-28L365.24-17.20L362.40-17.20Z M378.96 0.24Q376.36 0.24 373.96-0.46Q371.56-1.16 370.20-2.24L370.20-2.24L371.80-5.28Q373.20-4.28 375.20-3.68Q377.20-3.08 379.24-3.08L379.24-3.08Q384.28-3.08 384.28-5.96L384.28-5.96Q384.28-6.92 383.60-7.48Q382.92-8.04 381.90-8.30Q380.88-8.56 379.00-8.88L379.00-8.88Q376.44-9.28 374.82-9.80Q373.20-10.32 372.04-11.56Q370.88-12.80 370.88-15.04L370.88-15.04Q370.88-17.92 373.28-19.66Q375.68-21.40 379.72-21.40L379.72-21.40Q381.84-21.40 383.96-20.88Q386.08-20.36 387.44-19.48L387.44-19.48L385.80-16.44Q383.20-18.12 379.68-18.12L379.68-18.12Q377.24-18.12 375.96-17.32Q374.68-16.52 374.68-15.20L374.68-15.20Q374.68-14.16 375.40-13.56Q376.12-12.96 377.18-12.68Q378.24-12.40 380.16-12.04L380.16-12.04Q382.72-11.60 384.30-11.10Q385.88-10.60 387.00-9.40Q388.12-8.20 388.12-6.04L388.12-6.04Q388.12-3.16 385.66-1.46Q383.20 0.24 378.96 0.24L378.96 0.24Z M417.32-21.40Q420.40-21.40 422.84-20.04Q425.28-18.68 426.66-16.24Q428.04-13.80 428.04-10.60L428.04-10.60Q428.04-7.40 426.66-4.94Q425.28-2.48 422.84-1.12Q420.40 0.24 417.32 0.24L417.32 0.24Q415.04 0.24 413.14-0.64Q411.24-1.52 409.92-3.20L409.92-3.20L409.92 7.76L406.08 7.76L406.08-21.20L409.76-21.20L409.76-17.84Q411.04-19.60 413.00-20.50Q414.96-21.40 417.32-21.40L417.32-21.40ZM417.00-3.12Q419.04-3.12 420.66-4.06Q422.28-5 423.22-6.70Q424.16-8.40 424.16-10.60L424.16-10.60Q424.16-12.80 423.22-14.50Q422.28-16.20 420.66-17.12Q419.04-18.04 417.00-18.04L417.00-18.04Q415.00-18.04 413.38-17.10Q411.76-16.16 410.82-14.48Q409.88-12.80 409.88-10.60L409.88-10.60Q409.88-8.40 410.80-6.70Q411.72-5 413.36-4.06Q415.00-3.12 417.00-3.12L417.00-3.12Z M443.64 0.24Q440.48 0.24 437.96-1.16Q435.44-2.56 434.02-5.02Q432.60-7.48 432.60-10.60L432.60-10.60Q432.60-13.72 434.02-16.18Q435.44-18.64 437.96-20.02Q440.48-21.40 443.64-21.40L443.64-21.40Q446.80-21.40 449.30-20.02Q451.80-18.64 453.22-16.18Q454.64-13.72 454.64-10.60L454.64-10.60Q454.64-7.48 453.22-5.02Q451.80-2.56 449.30-1.16Q446.80 0.24 443.64 0.24L443.64 0.24ZM443.64-3.12Q445.68-3.12 447.30-4.06Q448.92-5 449.84-6.70Q450.76-8.40 450.76-10.60L450.76-10.60Q450.76-12.80 449.84-14.50Q448.92-16.20 447.30-17.12Q445.68-18.04 443.64-18.04L443.64-18.04Q441.60-18.04 439.98-17.12Q438.36-16.20 437.42-14.50Q436.48-12.80 436.48-10.60L436.48-10.60Q436.48-8.40 437.42-6.70Q438.36-5 439.98-4.06Q441.60-3.12 443.64-3.12L443.64-3.12Z M471.88-4L473.08-1.24Q472.24-0.52 471.00-0.14Q469.76 0.24 468.44 0.24L468.44 0.24Q465.24 0.24 463.48-1.48Q461.72-3.20 461.72-6.40L461.72-6.40L461.72-18.04L458.12-18.04L458.12-21.20L461.72-21.20L461.72-25.84L465.56-25.84L465.56-21.20L471.64-21.20L471.64-18.04L465.56-18.04L465.56-6.56Q465.56-4.84 466.42-3.92Q467.28-3 468.88-3L468.88-3Q470.64-3 471.88-4L471.88-4Z M497.36-10.48Q497.36-10.04 497.28-9.32L497.28-9.32L480.08-9.32Q480.44-6.52 482.54-4.82Q484.64-3.12 487.76-3.12L487.76-3.12Q491.56-3.12 493.88-5.68L493.88-5.68L496.00-3.20Q494.56-1.52 492.42-0.64Q490.28 0.24 487.64 0.24L487.64 0.24Q484.28 0.24 481.68-1.14Q479.08-2.52 477.66-5Q476.24-7.48 476.24-10.60L476.24-10.60Q476.24-13.68 477.62-16.16Q479.00-18.64 481.42-20.02Q483.84-21.40 486.88-21.40L486.88-21.40Q489.92-21.40 492.30-20.02Q494.68-18.64 496.02-16.16Q497.36-13.68 497.36-10.48L497.36-10.48ZM486.88-18.16Q484.12-18.16 482.26-16.48Q480.40-14.80 480.08-12.08L480.08-12.08L493.68-12.08Q493.36-14.76 491.50-16.46Q489.64-18.16 486.88-18.16L486.88-18.16Z M515.20-21.40Q519.24-21.40 521.62-19.06Q524.00-16.72 524.00-12.20L524.00-12.20L524.00 0L520.16 0L520.16-11.76Q520.16-14.84 518.68-16.40Q517.20-17.96 514.44-17.96L514.44-17.96Q511.32-17.96 509.52-16.14Q507.72-14.32 507.72-10.92L507.72-10.92L507.72 0L503.88 0L503.88-21.20L507.56-21.20L507.56-18Q508.72-19.64 510.70-20.52Q512.68-21.40 515.20-21.40L515.20-21.40Z M543.04-4L544.24-1.24Q543.40-0.52 542.16-0.14Q540.92 0.24 539.60 0.24L539.60 0.24Q536.40 0.24 534.64-1.48Q532.88-3.20 532.88-6.40L532.88-6.40L532.88-18.04L529.28-18.04L529.28-21.20L532.88-21.20L532.88-25.84L536.72-25.84L536.72-21.20L542.80-21.20L542.80-18.04L536.72-18.04L536.72-6.56Q536.72-4.84 537.58-3.92Q538.44-3 540.04-3L540.04-3Q541.80-3 543.04-4L543.04-4Z M550.08 0L550.08-21.20L553.92-21.20L553.92 0L550.08 0ZM552.00-25.28Q550.88-25.28 550.14-26Q549.40-26.72 549.40-27.76L549.40-27.76Q549.40-28.80 550.14-29.54Q550.88-30.28 552.00-30.28L552.00-30.28Q553.12-30.28 553.86-29.58Q554.60-28.88 554.60-27.84L554.60-27.84Q554.60-26.76 553.86-26.02Q553.12-25.28 552.00-25.28L552.00-25.28Z M570.16-21.40Q574.56-21.40 576.90-19.24Q579.24-17.08 579.24-12.80L579.24-12.80L579.24 0L575.60 0L575.60-2.80Q574.64-1.32 572.86-0.54Q571.08 0.24 568.64 0.24L568.64 0.24Q565.08 0.24 562.94-1.48Q560.80-3.20 560.80-6L560.80-6Q560.80-8.80 562.84-10.50Q564.88-12.20 569.32-12.20L569.32-12.20L575.40-12.20L575.40-12.96Q575.40-15.44 573.96-16.76Q572.52-18.08 569.72-18.08L569.72-18.08Q567.84-18.08 566.04-17.46Q564.24-16.84 563.00-15.80L563.00-15.80L561.40-18.68Q563.04-20 565.32-20.70Q567.60-21.40 570.16-21.40L570.16-21.40ZM569.28-2.72Q571.48-2.72 573.08-3.70Q574.68-4.68 575.40-6.48L575.40-6.48L575.40-9.44L569.48-9.44Q564.60-9.44 564.60-6.16L564.60-6.16Q564.60-4.56 565.84-3.64Q567.08-2.72 569.28-2.72L569.28-2.72Z M587.56 0L587.56-29.68L591.40-29.68L591.40 0L587.56 0Z M600.84 0.24Q599.72 0.24 598.92-0.54Q598.12-1.32 598.12-2.52L598.12-2.52Q598.12-3.68 598.92-4.46Q599.72-5.24 600.84-5.24L600.84-5.24Q601.96-5.24 602.72-4.48Q603.48-3.72 603.48-2.52L603.48-2.52Q603.48-1.32 602.70-0.54Q601.92 0.24 600.84 0.24L600.84 0.24Z"/></g>
</svg>
</g><g opacity="1" transform="rotate(0 96.8353 264.5)">
<svg width="374.862" height="50" x="96.8353" y="264.5" version="1.1" preserveAspectRatio="none" viewBox="2.04 -28.48 217.12 28.96">
  <g transform="matrix(1 0 0 1 0 0)" class="companyName"><path id="id-D6z1nYkh8" d="M15.88 0.48Q11.68 0.48 8.54-1.04Q5.40-2.56 3.72-5.32Q2.04-8.08 2.04-11.68L2.04-11.68Q2.04-16.44 4.22-20.26Q6.40-24.08 10.36-26.28Q14.32-28.48 19.44-28.48L19.44-28.48Q23.20-28.48 26.08-27.20Q28.96-25.92 30.44-23.52L30.44-23.52L25.76-19.68Q23.52-22.96 19-22.96L19-22.96Q15.92-22.96 13.56-21.52Q11.20-20.08 9.90-17.60Q8.60-15.12 8.60-12.08L8.60-12.08Q8.60-8.84 10.66-6.94Q12.72-5.04 16.44-5.04L16.44-5.04Q20.88-5.04 23.88-8.28L23.88-8.28L27.72-4.36Q23.56 0.48 15.88 0.48L15.88 0.48Z M51.16 0L49.84-6L36.80-6L33.16 0L26.24 0L44.36-28L50.76-28L57.64 0L51.16 0ZM39.80-10.92L48.76-10.92L46.40-21.72L39.80-10.92Z M88.52-19.32Q88.52-15.40 86.40-12.60Q84.28-9.80 80.52-8.64L80.52-8.64L85.40 0L78.56 0L74.16-7.84L68.64-7.84L67.08 0L60.56 0L66.16-28L77.56-28Q82.76-28 85.64-25.72Q88.52-23.44 88.52-19.32L88.52-19.32ZM75.16-13Q78.40-13 80.18-14.48Q81.96-15.96 81.96-18.72L81.96-18.72Q81.96-20.72 80.60-21.72Q79.24-22.72 76.72-22.72L76.72-22.72L71.60-22.72L69.64-13L75.16-13Z M99.72 0.48Q96.40 0.48 93.36-0.40Q90.32-1.28 88.48-2.64L88.48-2.64L91.12-7.64Q93.04-6.24 95.44-5.48Q97.84-4.72 100.36-4.72L100.36-4.72Q103.04-4.72 104.60-5.60Q106.16-6.48 106.16-8L106.16-8Q106.16-9.24 104.92-9.90Q103.68-10.56 100.96-11.32L100.96-11.32Q98.24-12.12 96.52-12.86Q94.80-13.60 93.54-15.08Q92.28-16.56 92.28-19L92.28-19Q92.28-21.84 93.86-24Q95.44-26.16 98.34-27.32Q101.24-28.48 105.08-28.48L105.08-28.48Q107.92-28.48 110.44-27.86Q112.96-27.24 114.76-26.08L114.76-26.08L112.32-21.12Q110.76-22.20 108.80-22.74Q106.84-23.28 104.72-23.28L104.72-23.28Q101.96-23.28 100.36-22.32Q98.76-21.36 98.76-19.84L98.76-19.84Q98.76-18.92 99.44-18.30Q100.12-17.68 101.16-17.30Q102.20-16.92 104.08-16.40L104.08-16.40Q106.76-15.68 108.48-14.94Q110.20-14.20 111.42-12.78Q112.64-11.36 112.64-9.04L112.64-9.04Q112.64-6.16 111.04-4.02Q109.44-1.88 106.52-0.70Q103.60 0.48 99.72 0.48L99.72 0.48Z M151.60-28L158.08-28L152.48 0L146 0L148.28-11.40L135.60-11.40L133.32 0L126.80 0L132.40-28L138.92-28L136.72-17L149.40-17L151.60-28Z M172.32 0.48Q167.04 0.48 164.04-2.14Q161.04-4.76 161.04-9.32L161.04-9.32Q161.04-10.64 161.36-12.32L161.36-12.32L164.48-28L171-28L167.88-12.44Q167.64-11.12 167.64-10.08L167.64-10.08Q167.64-7.56 169.02-6.30Q170.40-5.04 173.04-5.04L173.04-5.04Q176-5.04 177.76-6.80Q179.52-8.56 180.32-12.44L180.32-12.44L183.44-28L189.80-28L186.64-12.04Q184.08 0.48 172.32 0.48L172.32 0.48Z M214.16-14.44Q215.96-13.72 216.94-12.30Q217.92-10.88 217.92-8.84L217.92-8.84Q217.92-4.48 214.48-2.24Q211.04 0 205.32 0L205.32 0L190.64 0L196.24-28L209.76-28Q214.28-28 216.72-26.34Q219.16-24.68 219.16-21.60L219.16-21.60Q219.16-19.04 217.82-17.22Q216.48-15.40 214.16-14.44L214.16-14.44ZM208.24-23.12L201.68-23.12L200.36-16.52L206.96-16.52Q209.52-16.52 210.94-17.54Q212.36-18.56 212.36-20.48L212.36-20.48Q212.36-23.12 208.24-23.12L208.24-23.12ZM205.72-4.88Q208.44-4.88 209.96-5.92Q211.48-6.96 211.48-8.92L211.48-8.92Q211.48-11.80 207.28-11.80L207.28-11.80L199.44-11.80L198.08-4.88L205.72-4.88Z"/></g>
</svg>
</g><g opacity="1" transform="rotate(0 34.3107 264.5)">
<svg width="62.5246" height="50" x="34.3107" y="264.5" version="1.1" preserveAspectRatio="none" viewBox="-4.6 -33.68 47.12 37.68">
  <g transform="matrix(1 0 0 1 0 0)" class="icon3"><path id="id-hTdFi603-2" d="M-4.60 4L15.88-33.68L24.12-33.68L3.64 4L-4.60 4Z M13.80 4L34.28-33.68L42.52-33.68L22.04 4L13.80 4Z"/></g>
</svg>
</g></svg></svg>